<ttFont>
    <TTGlyph name="A" xMin="-10" yMin="-13" xMax="525" yMax="663">
      <contour>
        <pt x="353" y="275" on="1"/>
        <pt x="322" y="406" on="0"/>
        <pt x="308" y="514" on="1"/>
        <pt x="253" y="374" on="0"/>
        <pt x="205" y="276" on="1"/>
        <pt x="259" y="274" on="0"/>
        <pt x="294" y="274" on="1"/>
        <pt x="334" y="274" on="0"/>
      </contour>
      <contour>
        <pt x="269" y="199" on="1"/>
        <pt x="246" y="199" on="0"/>
        <pt x="170" y="201" on="1"/>
        <pt x="86" y="14" on="0"/>
        <pt x="77" y="-13" on="1"/>
        <pt x="29" y="-9" on="0"/>
        <pt x="-10" y="10" on="0"/>
        <pt x="-10" y="29" on="1"/>
        <pt x="-10" y="45" on="0"/>
        <pt x="29" y="126" on="0"/>
        <pt x="115" y="295" on="0"/>
        <pt x="150" y="374" on="1"/>
        <pt x="157" y="390" on="0"/>
        <pt x="210" y="502" on="0"/>
        <pt x="251" y="598" on="0"/>
        <pt x="271" y="656" on="1"/>
        <pt x="300" y="663" on="0"/>
        <pt x="329" y="663" on="1"/>
        <pt x="356" y="663" on="0"/>
        <pt x="383" y="641" on="0"/>
        <pt x="389" y="610" on="1"/>
        <pt x="390" y="607" on="0"/>
        <pt x="437" y="352" on="0"/>
        <pt x="454" y="280" on="1"/>
        <pt x="498" y="87" on="0"/>
        <pt x="525" y="10" on="1"/>
        <pt x="487" y="-10" on="0"/>
        <pt x="454" y="-10" on="1"/>
        <pt x="414" y="-10" on="0"/>
        <pt x="406" y="27" on="1"/>
        <pt x="375" y="173" on="0"/>
        <pt x="370" y="201" on="1"/>
        <pt x="288" y="199" on="0"/>
      </contour>
    </TTGlyph>
    <TTGlyph name="AE" xMin="-42" yMin="-10" xMax="753" yMax="665">
      <contour>
        <pt x="311" y="281" on="1"/>
        <pt x="350" y="281" on="1"/>
        <pt x="374" y="451" on="0"/>
        <pt x="383" y="551" on="1"/>
        <pt x="366" y="523" on="0"/>
        <pt x="259" y="340" on="0"/>
        <pt x="223" y="283" on="1"/>
        <pt x="279" y="281" on="0"/>
      </contour>
      <contour>
        <pt x="731" y="564" on="1"/>
        <pt x="689" y="585" on="0"/>
        <pt x="583" y="585" on="1"/>
        <pt x="542" y="585" on="0"/>
        <pt x="494" y="582" on="1"/>
        <pt x="492" y="534" on="0"/>
        <pt x="472" y="394" on="1"/>
        <pt x="601" y="394" on="0"/>
        <pt x="631" y="398" on="1"/>
        <pt x="633" y="384" on="0"/>
        <pt x="633" y="370" on="1"/>
        <pt x="633" y="319" on="0"/>
        <pt x="591" y="316" on="1"/>
        <pt x="569" y="315" on="0"/>
        <pt x="461" y="315" on="1"/>
        <pt x="435" y="103" on="0"/>
        <pt x="435" y="77" on="1"/>
        <pt x="461" y="75" on="0"/>
        <pt x="485" y="75" on="1"/>
        <pt x="535" y="75" on="0"/>
        <pt x="637" y="89" on="0"/>
        <pt x="653" y="99" on="1"/>
        <pt x="666" y="63" on="0"/>
        <pt x="666" y="40" on="1"/>
        <pt x="666" y="11" on="0"/>
        <pt x="599" y="-3" on="0"/>
        <pt x="505" y="-3" on="1"/>
        <pt x="386" y="-3" on="0"/>
        <pt x="358" y="-1" on="1"/>
        <pt x="337" y="0" on="0"/>
        <pt x="320" y="17" on="0"/>
        <pt x="320" y="34" on="1"/>
        <pt x="320" y="67" on="0"/>
        <pt x="339" y="207" on="1"/>
        <pt x="271" y="207" on="1"/>
        <pt x="253" y="207" on="0"/>
        <pt x="165" y="209" on="1"/>
        <pt x="54" y="28" on="0"/>
        <pt x="36" y="-10" on="1"/>
        <pt x="3" y="-8" on="0"/>
        <pt x="-42" y="16" on="0"/>
        <pt x="-42" y="36" on="1"/>
        <pt x="-42" y="50" on="0"/>
        <pt x="-32" y="64" on="1"/>
        <pt x="49" y="176" on="0"/>
        <pt x="132" y="298" on="1"/>
        <pt x="275" y="508" on="0"/>
        <pt x="354" y="654" on="1"/>
        <pt x="459" y="665" on="0"/>
        <pt x="596" y="665" on="1"/>
        <pt x="732" y="665" on="0"/>
        <pt x="748" y="650" on="1"/>
        <pt x="753" y="639" on="0"/>
        <pt x="753" y="622" on="1"/>
        <pt x="753" y="592" on="0"/>
      </contour>
    </TTGlyph>
    <TTGlyph name="Aacute" xMin="-10" yMin="-13" xMax="525" yMax="899">
      <contour>
        <pt x="426" y="801" on="1"/>
        <pt x="401" y="787" on="0"/>
        <pt x="270" y="727" on="0"/>
        <pt x="255" y="715" on="1"/>
        <pt x="231" y="739" on="0"/>
        <pt x="231" y="758" on="1"/>
        <pt x="231" y="778" on="0"/>
        <pt x="254" y="790" on="1"/>
        <pt x="282" y="803" on="0"/>
        <pt x="395" y="873" on="0"/>
        <pt x="424" y="899" on="1"/>
        <pt x="457" y="882" on="0"/>
        <pt x="457" y="848" on="1"/>
        <pt x="457" y="819" on="0"/>
      </contour>
      <contour>
        <pt x="353" y="275" on="1"/>
        <pt x="322" y="406" on="0"/>
        <pt x="308" y="514" on="1"/>
        <pt x="253" y="374" on="0"/>
        <pt x="205" y="276" on="1"/>
        <pt x="259" y="274" on="0"/>
        <pt x="294" y="274" on="1"/>
        <pt x="334" y="274" on="0"/>
      </contour>
      <contour>
        <pt x="269" y="199" on="1"/>
        <pt x="246" y="199" on="0"/>
        <pt x="170" y="201" on="1"/>
        <pt x="86" y="14" on="0"/>
        <pt x="77" y="-13" on="1"/>
        <pt x="29" y="-9" on="0"/>
        <pt x="-10" y="10" on="0"/>
        <pt x="-10" y="29" on="1"/>
        <pt x="-10" y="45" on="0"/>
        <pt x="29" y="126" on="0"/>
        <pt x="115" y="295" on="0"/>
        <pt x="150" y="374" on="1"/>
        <pt x="157" y="390" on="0"/>
        <pt x="210" y="502" on="0"/>
        <pt x="251" y="598" on="0"/>
        <pt x="271" y="656" on="1"/>
        <pt x="300" y="663" on="0"/>
        <pt x="329" y="663" on="1"/>
        <pt x="356" y="663" on="0"/>
        <pt x="383" y="641" on="0"/>
        <pt x="389" y="610" on="1"/>
        <pt x="390" y="607" on="0"/>
        <pt x="437" y="352" on="0"/>
        <pt x="454" y="280" on="1"/>
        <pt x="498" y="87" on="0"/>
        <pt x="525" y="10" on="1"/>
        <pt x="487" y="-10" on="0"/>
        <pt x="454" y="-10" on="1"/>
        <pt x="414" y="-10" on="0"/>
        <pt x="406" y="27" on="1"/>
        <pt x="375" y="173" on="0"/>
        <pt x="370" y="201" on="1"/>
        <pt x="288" y="199" on="0"/>
      </contour>
    </TTGlyph>
    <TTGlyph name="Acircumflex" xMin="-10" yMin="-13" xMax="525" yMax="892">
      <contour>
        <pt x="467" y="758" on="1"/>
        <pt x="467" y="727" on="0"/>
        <pt x="424" y="709" on="1"/>
        <pt x="410" y="730" on="0"/>
        <pt x="365" y="773" on="0"/>
        <pt x="350" y="784" on="1"/>
        <pt x="335" y="796" on="1"/>
        <pt x="238" y="721" on="0"/>
        <pt x="210" y="721" on="1"/>
        <pt x="190" y="721" on="0"/>
        <pt x="180" y="747" on="1"/>
        <pt x="276" y="845" on="0"/>
        <pt x="349" y="892" on="1"/>
        <pt x="467" y="800" on="0"/>
      </contour>
      <contour>
        <pt x="353" y="275" on="1"/>
        <pt x="322" y="406" on="0"/>
        <pt x="308" y="514" on="1"/>
        <pt x="253" y="374" on="0"/>
        <pt x="205" y="276" on="1"/>
        <pt x="259" y="274" on="0"/>
        <pt x="294" y="274" on="1"/>
        <pt x="334" y="274" on="0"/>
      </contour>
      <contour>
        <pt x="269" y="199" on="1"/>
        <pt x="246" y="199" on="0"/>
        <pt x="170" y="201" on="1"/>
        <pt x="86" y="14" on="0"/>
        <pt x="77" y="-13" on="1"/>
        <pt x="29" y="-9" on="0"/>
        <pt x="-10" y="10" on="0"/>
        <pt x="-10" y="29" on="1"/>
        <pt x="-10" y="45" on="0"/>
        <pt x="29" y="126" on="0"/>
        <pt x="115" y="295" on="0"/>
        <pt x="150" y="374" on="1"/>
        <pt x="157" y="390" on="0"/>
        <pt x="210" y="502" on="0"/>
        <pt x="251" y="598" on="0"/>
        <pt x="271" y="656" on="1"/>
        <pt x="300" y="663" on="0"/>
        <pt x="329" y="663" on="1"/>
        <pt x="356" y="663" on="0"/>
        <pt x="383" y="641" on="0"/>
        <pt x="389" y="610" on="1"/>
        <pt x="390" y="607" on="0"/>
        <pt x="437" y="352" on="0"/>
        <pt x="454" y="280" on="1"/>
        <pt x="498" y="87" on="0"/>
        <pt x="525" y="10" on="1"/>
        <pt x="487" y="-10" on="0"/>
        <pt x="454" y="-10" on="1"/>
        <pt x="414" y="-10" on="0"/>
        <pt x="406" y="27" on="1"/>
        <pt x="375" y="173" on="0"/>
        <pt x="370" y="201" on="1"/>
        <pt x="288" y="199" on="0"/>
      </contour>
    </TTGlyph>
    <TTGlyph name="Adieresis" xMin="-10" yMin="-13" xMax="525" yMax="860">
      <contour>
        <pt x="353" y="275" on="1"/>
        <pt x="322" y="406" on="0"/>
        <pt x="308" y="514" on="1"/>
        <pt x="253" y="374" on="0"/>
        <pt x="205" y="276" on="1"/>
        <pt x="259" y="274" on="0"/>
        <pt x="294" y="274" on="1"/>
        <pt x="334" y="274" on="0"/>
      </contour>
      <contour>
        <pt x="269" y="199" on="1"/>
        <pt x="246" y="199" on="0"/>
        <pt x="170" y="201" on="1"/>
        <pt x="86" y="14" on="0"/>
        <pt x="77" y="-13" on="1"/>
        <pt x="29" y="-9" on="0"/>
        <pt x="-10" y="10" on="0"/>
        <pt x="-10" y="29" on="1"/>
        <pt x="-10" y="45" on="0"/>
        <pt x="29" y="126" on="0"/>
        <pt x="115" y="295" on="0"/>
        <pt x="150" y="374" on="1"/>
        <pt x="157" y="390" on="0"/>
        <pt x="210" y="502" on="0"/>
        <pt x="251" y="598" on="0"/>
        <pt x="271" y="656" on="1"/>
        <pt x="300" y="663" on="0"/>
        <pt x="329" y="663" on="1"/>
        <pt x="356" y="663" on="0"/>
        <pt x="383" y="641" on="0"/>
        <pt x="389" y="610" on="1"/>
        <pt x="390" y="607" on="0"/>
        <pt x="437" y="352" on="0"/>
        <pt x="454" y="280" on="1"/>
        <pt x="498" y="87" on="0"/>
        <pt x="525" y="10" on="1"/>
        <pt x="487" y="-10" on="0"/>
        <pt x="454" y="-10" on="1"/>
        <pt x="414" y="-10" on="0"/>
        <pt x="406" y="27" on="1"/>
        <pt x="375" y="173" on="0"/>
        <pt x="370" y="201" on="1"/>
        <pt x="288" y="199" on="0"/>
      </contour>
      <contour>
        <pt x="401" y="721" on="1"/>
        <pt x="376" y="721" on="0"/>
        <pt x="345" y="754" on="0"/>
        <pt x="345" y="782" on="1"/>
        <pt x="345" y="814" on="0"/>
        <pt x="389" y="860" on="0"/>
        <pt x="418" y="860" on="1"/>
        <pt x="441" y="860" on="0"/>
        <pt x="474" y="823" on="0"/>
        <pt x="474" y="796" on="1"/>
        <pt x="474" y="765" on="0"/>
        <pt x="427" y="721" on="0"/>
      </contour>
      <contour>
        <pt x="228" y="721" on="1"/>
        <pt x="203" y="721" on="0"/>
        <pt x="172" y="754" on="0"/>
        <pt x="172" y="782" on="1"/>
        <pt x="172" y="814" on="0"/>
        <pt x="216" y="860" on="0"/>
        <pt x="245" y="860" on="1"/>
        <pt x="268" y="860" on="0"/>
        <pt x="301" y="823" on="0"/>
        <pt x="301" y="796" on="1"/>
        <pt x="301" y="765" on="0"/>
        <pt x="254" y="721" on="0"/>
      </contour>
    </TTGlyph>
    <TTGlyph name="Agrave" xMin="-10" yMin="-13" xMax="525" yMax="920">
      <contour>
        <pt x="201" y="823" on="1"/>
        <pt x="174" y="840" on="0"/>
        <pt x="174" y="866" on="1"/>
        <pt x="174" y="902" on="0"/>
        <pt x="215" y="920" on="1"/>
        <pt x="260" y="863" on="0"/>
        <pt x="361" y="790" on="1"/>
        <pt x="380" y="777" on="0"/>
        <pt x="380" y="756" on="1"/>
        <pt x="380" y="731" on="0"/>
        <pt x="361" y="714" on="1"/>
        <pt x="348" y="726" on="0"/>
        <pt x="226" y="804" on="0"/>
      </contour>
      <contour>
        <pt x="353" y="275" on="1"/>
        <pt x="322" y="406" on="0"/>
        <pt x="308" y="514" on="1"/>
        <pt x="253" y="374" on="0"/>
        <pt x="205" y="276" on="1"/>
        <pt x="259" y="274" on="0"/>
        <pt x="294" y="274" on="1"/>
        <pt x="334" y="274" on="0"/>
      </contour>
      <contour>
        <pt x="269" y="199" on="1"/>
        <pt x="246" y="199" on="0"/>
        <pt x="170" y="201" on="1"/>
        <pt x="86" y="14" on="0"/>
        <pt x="77" y="-13" on="1"/>
        <pt x="29" y="-9" on="0"/>
        <pt x="-10" y="10" on="0"/>
        <pt x="-10" y="29" on="1"/>
        <pt x="-10" y="45" on="0"/>
        <pt x="29" y="126" on="0"/>
        <pt x="115" y="295" on="0"/>
        <pt x="150" y="374" on="1"/>
        <pt x="157" y="390" on="0"/>
        <pt x="210" y="502" on="0"/>
        <pt x="251" y="598" on="0"/>
        <pt x="271" y="656" on="1"/>
        <pt x="300" y="663" on="0"/>
        <pt x="329" y="663" on="1"/>
        <pt x="356" y="663" on="0"/>
        <pt x="383" y="641" on="0"/>
        <pt x="389" y="610" on="1"/>
        <pt x="390" y="607" on="0"/>
        <pt x="437" y="352" on="0"/>
        <pt x="454" y="280" on="1"/>
        <pt x="498" y="87" on="0"/>
        <pt x="525" y="10" on="1"/>
        <pt x="487" y="-10" on="0"/>
        <pt x="454" y="-10" on="1"/>
        <pt x="414" y="-10" on="0"/>
        <pt x="406" y="27" on="1"/>
        <pt x="375" y="173" on="0"/>
        <pt x="370" y="201" on="1"/>
        <pt x="288" y="199" on="0"/>
      </contour>
    </TTGlyph>
    <TTGlyph name="Aring" xMin="-10" yMin="-13" xMax="525" yMax="900">
      <contour>
        <pt x="344" y="852" on="1"/>
        <pt x="324" y="852" on="0"/>
        <pt x="299" y="821" on="0"/>
        <pt x="299" y="798" on="1"/>
        <pt x="299" y="758" on="0"/>
        <pt x="331" y="758" on="1"/>
        <pt x="350" y="758" on="0"/>
        <pt x="374" y="790" on="0"/>
        <pt x="374" y="812" on="1"/>
        <pt x="374" y="852" on="0"/>
      </contour>
      <contour>
        <pt x="324" y="710" on="1"/>
        <pt x="288" y="710" on="0"/>
        <pt x="242" y="755" on="0"/>
        <pt x="242" y="789" on="1"/>
        <pt x="242" y="834" on="0"/>
        <pt x="304" y="900" on="0"/>
        <pt x="351" y="900" on="1"/>
        <pt x="388" y="900" on="0"/>
        <pt x="432" y="858" on="0"/>
        <pt x="432" y="822" on="1"/>
        <pt x="432" y="777" on="0"/>
        <pt x="371" y="710" on="0"/>
      </contour>
      <contour>
        <pt x="353" y="275" on="1"/>
        <pt x="322" y="406" on="0"/>
        <pt x="308" y="514" on="1"/>
        <pt x="253" y="374" on="0"/>
        <pt x="205" y="276" on="1"/>
        <pt x="259" y="274" on="0"/>
        <pt x="294" y="274" on="1"/>
        <pt x="334" y="274" on="0"/>
      </contour>
      <contour>
        <pt x="269" y="199" on="1"/>
        <pt x="246" y="199" on="0"/>
        <pt x="170" y="201" on="1"/>
        <pt x="86" y="14" on="0"/>
        <pt x="77" y="-13" on="1"/>
        <pt x="29" y="-9" on="0"/>
        <pt x="-10" y="10" on="0"/>
        <pt x="-10" y="29" on="1"/>
        <pt x="-10" y="45" on="0"/>
        <pt x="29" y="126" on="0"/>
        <pt x="115" y="295" on="0"/>
        <pt x="150" y="374" on="1"/>
        <pt x="157" y="390" on="0"/>
        <pt x="210" y="502" on="0"/>
        <pt x="251" y="598" on="0"/>
        <pt x="271" y="656" on="1"/>
        <pt x="300" y="663" on="0"/>
        <pt x="329" y="663" on="1"/>
        <pt x="356" y="663" on="0"/>
        <pt x="383" y="641" on="0"/>
        <pt x="389" y="610" on="1"/>
        <pt x="390" y="607" on="0"/>
        <pt x="437" y="352" on="0"/>
        <pt x="454" y="280" on="1"/>
        <pt x="498" y="87" on="0"/>
        <pt x="525" y="10" on="1"/>
        <pt x="487" y="-10" on="0"/>
        <pt x="454" y="-10" on="1"/>
        <pt x="414" y="-10" on="0"/>
        <pt x="406" y="27" on="1"/>
        <pt x="375" y="173" on="0"/>
        <pt x="370" y="201" on="1"/>
        <pt x="288" y="199" on="0"/>
      </contour>
    </TTGlyph>
    <TTGlyph name="Atilde" xMin="-10" yMin="-13" xMax="525" yMax="838">
      <contour>
        <pt x="353" y="275" on="1"/>
        <pt x="322" y="406" on="0"/>
        <pt x="308" y="514" on="1"/>
        <pt x="253" y="374" on="0"/>
        <pt x="205" y="276" on="1"/>
        <pt x="259" y="274" on="0"/>
        <pt x="294" y="274" on="1"/>
        <pt x="334" y="274" on="0"/>
      </contour>
      <contour>
        <pt x="269" y="199" on="1"/>
        <pt x="246" y="199" on="0"/>
        <pt x="170" y="201" on="1"/>
        <pt x="86" y="14" on="0"/>
        <pt x="77" y="-13" on="1"/>
        <pt x="29" y="-9" on="0"/>
        <pt x="-10" y="10" on="0"/>
        <pt x="-10" y="29" on="1"/>
        <pt x="-10" y="45" on="0"/>
        <pt x="29" y="126" on="0"/>
        <pt x="115" y="295" on="0"/>
        <pt x="150" y="374" on="1"/>
        <pt x="157" y="390" on="0"/>
        <pt x="210" y="502" on="0"/>
        <pt x="251" y="598" on="0"/>
        <pt x="271" y="656" on="1"/>
        <pt x="300" y="663" on="0"/>
        <pt x="329" y="663" on="1"/>
        <pt x="356" y="663" on="0"/>
        <pt x="383" y="641" on="0"/>
        <pt x="389" y="610" on="1"/>
        <pt x="390" y="607" on="0"/>
        <pt x="437" y="352" on="0"/>
        <pt x="454" y="280" on="1"/>
        <pt x="498" y="87" on="0"/>
        <pt x="525" y="10" on="1"/>
        <pt x="487" y="-10" on="0"/>
        <pt x="454" y="-10" on="1"/>
        <pt x="414" y="-10" on="0"/>
        <pt x="406" y="27" on="1"/>
        <pt x="375" y="173" on="0"/>
        <pt x="370" y="201" on="1"/>
        <pt x="288" y="199" on="0"/>
      </contour>
      <contour>
        <pt x="492" y="810" on="1"/>
        <pt x="492" y="777" on="0"/>
        <pt x="411" y="720" on="0"/>
        <pt x="373" y="720" on="1"/>
        <pt x="344" y="720" on="0"/>
        <pt x="275" y="764" on="0"/>
        <pt x="268" y="764" on="1"/>
        <pt x="253" y="764" on="0"/>
        <pt x="210" y="718" on="1"/>
        <pt x="182" y="732" on="0"/>
        <pt x="182" y="756" on="1"/>
        <pt x="186" y="785" on="0"/>
        <pt x="260" y="837" on="0"/>
        <pt x="301" y="837" on="1"/>
        <pt x="325" y="837" on="0"/>
        <pt x="394" y="793" on="0"/>
        <pt x="405" y="793" on="1"/>
        <pt x="423" y="793" on="0"/>
        <pt x="462" y="838" on="1"/>
        <pt x="492" y="830" on="0"/>
      </contour>
    </TTGlyph>
    <TTGlyph name="B" xMin="48" yMin="-10" xMax="500" yMax="673">
      <contour>
        <pt x="279" y="596" on="1"/>
        <pt x="262" y="596" on="0"/>
        <pt x="232" y="592" on="1"/>
        <pt x="216" y="436" on="0"/>
        <pt x="210" y="391" on="1"/>
        <pt x="232" y="389" on="0"/>
        <pt x="245" y="389" on="1"/>
        <pt x="385" y="389" on="0"/>
        <pt x="385" y="509" on="1"/>
        <pt x="385" y="596" on="0"/>
      </contour>
      <contour>
        <pt x="245" y="59" on="1"/>
        <pt x="296" y="59" on="0"/>
        <pt x="368" y="142" on="0"/>
        <pt x="368" y="210" on="1"/>
        <pt x="368" y="265" on="0"/>
        <pt x="309" y="323" on="0"/>
        <pt x="265" y="323" on="1"/>
        <pt x="220" y="323" on="0"/>
        <pt x="200" y="318" on="1"/>
        <pt x="187" y="224" on="0"/>
        <pt x="160" y="95" on="1"/>
        <pt x="172" y="81" on="0"/>
        <pt x="222" y="59" on="0"/>
      </contour>
      <contour>
        <pt x="48" y="56" on="1"/>
        <pt x="76" y="167" on="0"/>
        <pt x="104" y="387" on="1"/>
        <pt x="128" y="572" on="0"/>
        <pt x="128" y="660" on="1"/>
        <pt x="202" y="673" on="0"/>
        <pt x="284" y="673" on="1"/>
        <pt x="345" y="673" on="0"/>
        <pt x="437" y="649" on="0"/>
        <pt x="500" y="582" on="0"/>
        <pt x="500" y="530" on="1"/>
        <pt x="500" y="407" on="0"/>
        <pt x="393" y="362" on="1"/>
        <pt x="443" y="338" on="0"/>
        <pt x="483" y="277" on="0"/>
        <pt x="483" y="227" on="1"/>
        <pt x="483" y="120" on="0"/>
        <pt x="347" y="-10" on="0"/>
        <pt x="251" y="-10" on="1"/>
        <pt x="111" y="-10" on="0"/>
      </contour>
    </TTGlyph>
    <TTGlyph name="C" xMin="46" yMin="-10" xMax="550" yMax="673">
      <contour>
        <pt x="423" y="150" on="1"/>
        <pt x="488" y="126" on="0"/>
        <pt x="488" y="87" on="1"/>
        <pt x="488" y="49" on="0"/>
        <pt x="371" y="-10" on="0"/>
        <pt x="291" y="-10" on="1"/>
        <pt x="177" y="-10" on="0"/>
        <pt x="46" y="139" on="0"/>
        <pt x="46" y="264" on="1"/>
        <pt x="46" y="445" on="0"/>
        <pt x="238" y="673" on="0"/>
        <pt x="390" y="673" on="1"/>
        <pt x="459" y="673" on="0"/>
        <pt x="550" y="616" on="0"/>
        <pt x="550" y="574" on="1"/>
        <pt x="550" y="543" on="0"/>
        <pt x="502" y="503" on="0"/>
        <pt x="464" y="498" on="1"/>
        <pt x="455" y="547" on="0"/>
        <pt x="395" y="596" on="0"/>
        <pt x="358" y="596" on="1"/>
        <pt x="272" y="596" on="0"/>
        <pt x="162" y="411" on="0"/>
        <pt x="162" y="290" on="1"/>
        <pt x="162" y="191" on="0"/>
        <pt x="233" y="67" on="0"/>
        <pt x="301" y="67" on="1"/>
        <pt x="376" y="67" on="0"/>
      </contour>
    </TTGlyph>
    <TTGlyph name="Ccedilla" xMin="46" yMin="-244" xMax="550" yMax="673">
      <contour>
        <pt x="423" y="150" on="1"/>
        <pt x="488" y="126" on="0"/>
        <pt x="488" y="87" on="1"/>
        <pt x="488" y="51" on="0"/>
        <pt x="382" y="-6" on="0"/>
        <pt x="307" y="-9" on="1"/>
        <pt x="297" y="-31" on="0"/>
        <pt x="297" y="-40" on="1"/>
        <pt x="297" y="-45" on="0"/>
        <pt x="332" y="-66" on="0"/>
        <pt x="366" y="-104" on="0"/>
        <pt x="366" y="-130" on="1"/>
        <pt x="366" y="-178" on="0"/>
        <pt x="271" y="-244" on="0"/>
        <pt x="217" y="-244" on="1"/>
        <pt x="171" y="-244" on="0"/>
        <pt x="171" y="-217" on="1"/>
        <pt x="171" y="-197" on="0"/>
        <pt x="202" y="-170" on="1"/>
        <pt x="214" y="-184" on="0"/>
        <pt x="239" y="-184" on="1"/>
        <pt x="254" y="-184" on="0"/>
        <pt x="280" y="-166" on="0"/>
        <pt x="280" y="-148" on="1"/>
        <pt x="280" y="-131" on="0"/>
        <pt x="224" y="-86" on="0"/>
        <pt x="224" y="-67" on="1"/>
        <pt x="224" y="-41" on="0"/>
        <pt x="244" y="-6" on="1"/>
        <pt x="151" y="8" on="0"/>
        <pt x="46" y="152" on="0"/>
        <pt x="46" y="264" on="1"/>
        <pt x="46" y="445" on="0"/>
        <pt x="238" y="673" on="0"/>
        <pt x="390" y="673" on="1"/>
        <pt x="459" y="673" on="0"/>
        <pt x="550" y="616" on="0"/>
        <pt x="550" y="574" on="1"/>
        <pt x="550" y="543" on="0"/>
        <pt x="502" y="503" on="0"/>
        <pt x="464" y="498" on="1"/>
        <pt x="455" y="547" on="0"/>
        <pt x="395" y="596" on="0"/>
        <pt x="358" y="596" on="1"/>
        <pt x="272" y="596" on="0"/>
        <pt x="162" y="411" on="0"/>
        <pt x="162" y="290" on="1"/>
        <pt x="162" y="191" on="0"/>
        <pt x="233" y="67" on="0"/>
        <pt x="301" y="67" on="1"/>
        <pt x="376" y="67" on="0"/>
      </contour>
    </TTGlyph>
    <TTGlyph name="D" xMin="48" yMin="-10" xMax="580" yMax="673">
      <contour>
        <pt x="48" y="53" on="1"/>
        <pt x="77" y="186" on="0"/>
        <pt x="125" y="532" on="0"/>
        <pt x="128" y="661" on="1"/>
        <pt x="185" y="673" on="0"/>
        <pt x="277" y="673" on="1"/>
        <pt x="580" y="673" on="0"/>
        <pt x="580" y="404" on="1"/>
        <pt x="580" y="296" on="0"/>
        <pt x="503" y="111" on="0"/>
        <pt x="344" y="-10" on="0"/>
        <pt x="239" y="-10" on="1"/>
        <pt x="111" y="-10" on="0"/>
      </contour>
      <contour>
        <pt x="234" y="592" on="1"/>
        <pt x="213" y="339" on="0"/>
        <pt x="164" y="103" on="1"/>
        <pt x="200" y="67" on="0"/>
        <pt x="261" y="67" on="1"/>
        <pt x="316" y="67" on="0"/>
        <pt x="398" y="128" on="0"/>
        <pt x="442" y="226" on="0"/>
        <pt x="463" y="328" on="0"/>
        <pt x="463" y="379" on="1"/>
        <pt x="463" y="487" on="0"/>
        <pt x="370" y="596" on="0"/>
        <pt x="284" y="596" on="1"/>
        <pt x="266" y="596" on="0"/>
      </contour>
    </TTGlyph>
    <TTGlyph name="Delta" xMin="19" yMin="0" xMax="587" yMax="644">
      <contour>
        <pt x="348" y="527" on="1"/>
        <pt x="107" y="87" on="1"/>
        <pt x="159" y="80" on="0"/>
        <pt x="282" y="80" on="1"/>
        <pt x="406" y="80" on="0"/>
        <pt x="463" y="87" on="1"/>
      </contour>
      <contour>
        <pt x="539" y="0" on="1"/>
        <pt x="54" y="0" on="1"/>
        <pt x="19" y="0" on="0"/>
        <pt x="19" y="34" on="1"/>
        <pt x="19" y="42" on="0"/>
        <pt x="20" y="47" on="1"/>
        <pt x="261" y="484" on="0"/>
        <pt x="330" y="618" on="1"/>
        <pt x="343" y="644" on="0"/>
        <pt x="387" y="644" on="1"/>
        <pt x="411" y="644" on="0"/>
        <pt x="423" y="640" on="1"/>
        <pt x="534" y="229" on="0"/>
        <pt x="587" y="48" on="1"/>
        <pt x="580" y="0" on="0"/>
      </contour>
    </TTGlyph>
    <TTGlyph name="E" xMin="57" yMin="-3" xMax="485" yMax="665">
      <contour>
        <pt x="463" y="564" on="1"/>
        <pt x="421" y="585" on="0"/>
        <pt x="315" y="585" on="1"/>
        <pt x="279" y="585" on="0"/>
        <pt x="231" y="582" on="1"/>
        <pt x="229" y="534" on="0"/>
        <pt x="209" y="394" on="1"/>
        <pt x="338" y="394" on="0"/>
        <pt x="368" y="398" on="1"/>
        <pt x="370" y="384" on="0"/>
        <pt x="370" y="370" on="1"/>
        <pt x="370" y="319" on="0"/>
        <pt x="328" y="316" on="1"/>
        <pt x="306" y="315" on="0"/>
        <pt x="198" y="315" on="1"/>
        <pt x="172" y="103" on="0"/>
        <pt x="172" y="77" on="1"/>
        <pt x="198" y="75" on="0"/>
        <pt x="237" y="75" on="1"/>
        <pt x="287" y="75" on="0"/>
        <pt x="389" y="89" on="0"/>
        <pt x="405" y="99" on="1"/>
        <pt x="418" y="63" on="0"/>
        <pt x="418" y="40" on="1"/>
        <pt x="418" y="11" on="0"/>
        <pt x="351" y="-3" on="0"/>
        <pt x="257" y="-3" on="1"/>
        <pt x="123" y="-3" on="0"/>
        <pt x="95" y="-1" on="1"/>
        <pt x="74" y="0" on="0"/>
        <pt x="57" y="17" on="0"/>
        <pt x="57" y="34" on="1"/>
        <pt x="57" y="62" on="0"/>
        <pt x="124" y="550" on="0"/>
        <pt x="124" y="631" on="1"/>
        <pt x="124" y="649" on="0"/>
        <pt x="123" y="656" on="1"/>
        <pt x="226" y="665" on="0"/>
        <pt x="328" y="665" on="1"/>
        <pt x="464" y="665" on="0"/>
        <pt x="480" y="650" on="1"/>
        <pt x="485" y="639" on="0"/>
        <pt x="485" y="622" on="1"/>
        <pt x="485" y="592" on="0"/>
      </contour>
    </TTGlyph>
    <TTGlyph name="Eacute" xMin="57" yMin="-3" xMax="490" yMax="899">
      <contour>
        <pt x="435" y="801" on="1"/>
        <pt x="410" y="787" on="0"/>
        <pt x="279" y="727" on="0"/>
        <pt x="264" y="715" on="1"/>
        <pt x="240" y="739" on="0"/>
        <pt x="240" y="758" on="1"/>
        <pt x="240" y="778" on="0"/>
        <pt x="263" y="790" on="1"/>
        <pt x="291" y="803" on="0"/>
        <pt x="404" y="873" on="0"/>
        <pt x="433" y="899" on="1"/>
        <pt x="466" y="882" on="0"/>
        <pt x="466" y="848" on="1"/>
        <pt x="466" y="819" on="0"/>
      </contour>
      <contour>
        <pt x="468" y="564" on="1"/>
        <pt x="426" y="585" on="0"/>
        <pt x="320" y="585" on="1"/>
        <pt x="279" y="585" on="0"/>
        <pt x="231" y="582" on="1"/>
        <pt x="229" y="534" on="0"/>
        <pt x="209" y="394" on="1"/>
        <pt x="338" y="394" on="0"/>
        <pt x="368" y="398" on="1"/>
        <pt x="370" y="384" on="0"/>
        <pt x="370" y="370" on="1"/>
        <pt x="370" y="319" on="0"/>
        <pt x="328" y="316" on="1"/>
        <pt x="306" y="315" on="0"/>
        <pt x="198" y="315" on="1"/>
        <pt x="172" y="103" on="0"/>
        <pt x="172" y="77" on="1"/>
        <pt x="198" y="75" on="0"/>
        <pt x="222" y="75" on="1"/>
        <pt x="272" y="75" on="0"/>
        <pt x="374" y="89" on="0"/>
        <pt x="390" y="99" on="1"/>
        <pt x="403" y="63" on="0"/>
        <pt x="403" y="40" on="1"/>
        <pt x="403" y="11" on="0"/>
        <pt x="336" y="-3" on="0"/>
        <pt x="242" y="-3" on="1"/>
        <pt x="123" y="-3" on="0"/>
        <pt x="95" y="-1" on="1"/>
        <pt x="74" y="0" on="0"/>
        <pt x="57" y="17" on="0"/>
        <pt x="57" y="34" on="1"/>
        <pt x="57" y="62" on="0"/>
        <pt x="124" y="550" on="0"/>
        <pt x="124" y="631" on="1"/>
        <pt x="124" y="649" on="0"/>
        <pt x="123" y="656" on="1"/>
        <pt x="226" y="665" on="0"/>
        <pt x="333" y="665" on="1"/>
        <pt x="469" y="665" on="0"/>
        <pt x="485" y="650" on="1"/>
        <pt x="490" y="639" on="0"/>
        <pt x="490" y="622" on="1"/>
        <pt x="490" y="592" on="0"/>
      </contour>
    </TTGlyph>
    <TTGlyph name="Ecircumflex" xMin="57" yMin="-3" xMax="490" yMax="892">
      <contour>
        <pt x="457" y="758" on="1"/>
        <pt x="457" y="727" on="0"/>
        <pt x="414" y="709" on="1"/>
        <pt x="400" y="730" on="0"/>
        <pt x="355" y="773" on="0"/>
        <pt x="340" y="784" on="1"/>
        <pt x="325" y="796" on="1"/>
        <pt x="228" y="721" on="0"/>
        <pt x="200" y="721" on="1"/>
        <pt x="180" y="721" on="0"/>
        <pt x="170" y="747" on="1"/>
        <pt x="266" y="845" on="0"/>
        <pt x="339" y="892" on="1"/>
        <pt x="457" y="800" on="0"/>
      </contour>
      <contour>
        <pt x="468" y="564" on="1"/>
        <pt x="426" y="585" on="0"/>
        <pt x="320" y="585" on="1"/>
        <pt x="279" y="585" on="0"/>
        <pt x="231" y="582" on="1"/>
        <pt x="229" y="534" on="0"/>
        <pt x="209" y="394" on="1"/>
        <pt x="338" y="394" on="0"/>
        <pt x="368" y="398" on="1"/>
        <pt x="370" y="384" on="0"/>
        <pt x="370" y="370" on="1"/>
        <pt x="370" y="319" on="0"/>
        <pt x="328" y="316" on="1"/>
        <pt x="306" y="315" on="0"/>
        <pt x="198" y="315" on="1"/>
        <pt x="172" y="103" on="0"/>
        <pt x="172" y="77" on="1"/>
        <pt x="198" y="75" on="0"/>
        <pt x="222" y="75" on="1"/>
        <pt x="272" y="75" on="0"/>
        <pt x="374" y="89" on="0"/>
        <pt x="390" y="99" on="1"/>
        <pt x="403" y="63" on="0"/>
        <pt x="403" y="40" on="1"/>
        <pt x="403" y="11" on="0"/>
        <pt x="336" y="-3" on="0"/>
        <pt x="242" y="-3" on="1"/>
        <pt x="123" y="-3" on="0"/>
        <pt x="95" y="-1" on="1"/>
        <pt x="74" y="0" on="0"/>
        <pt x="57" y="17" on="0"/>
        <pt x="57" y="34" on="1"/>
        <pt x="57" y="62" on="0"/>
        <pt x="124" y="550" on="0"/>
        <pt x="124" y="631" on="1"/>
        <pt x="124" y="649" on="0"/>
        <pt x="123" y="656" on="1"/>
        <pt x="226" y="665" on="0"/>
        <pt x="333" y="665" on="1"/>
        <pt x="469" y="665" on="0"/>
        <pt x="485" y="650" on="1"/>
        <pt x="490" y="639" on="0"/>
        <pt x="490" y="622" on="1"/>
        <pt x="490" y="592" on="0"/>
      </contour>
    </TTGlyph>
    <TTGlyph name="Edieresis" xMin="57" yMin="-3" xMax="485" yMax="860">
      <contour>
        <pt x="463" y="564" on="1"/>
        <pt x="421" y="585" on="0"/>
        <pt x="315" y="585" on="1"/>
        <pt x="279" y="585" on="0"/>
        <pt x="231" y="582" on="1"/>
        <pt x="229" y="534" on="0"/>
        <pt x="209" y="394" on="1"/>
        <pt x="338" y="394" on="0"/>
        <pt x="368" y="398" on="1"/>
        <pt x="370" y="384" on="0"/>
        <pt x="370" y="370" on="1"/>
        <pt x="370" y="319" on="0"/>
        <pt x="328" y="316" on="1"/>
        <pt x="306" y="315" on="0"/>
        <pt x="198" y="315" on="1"/>
        <pt x="172" y="103" on="0"/>
        <pt x="172" y="77" on="1"/>
        <pt x="198" y="75" on="0"/>
        <pt x="237" y="75" on="1"/>
        <pt x="287" y="75" on="0"/>
        <pt x="389" y="89" on="0"/>
        <pt x="405" y="99" on="1"/>
        <pt x="418" y="63" on="0"/>
        <pt x="418" y="40" on="1"/>
        <pt x="418" y="11" on="0"/>
        <pt x="351" y="-3" on="0"/>
        <pt x="257" y="-3" on="1"/>
        <pt x="123" y="-3" on="0"/>
        <pt x="95" y="-1" on="1"/>
        <pt x="74" y="0" on="0"/>
        <pt x="57" y="17" on="0"/>
        <pt x="57" y="34" on="1"/>
        <pt x="57" y="62" on="0"/>
        <pt x="124" y="550" on="0"/>
        <pt x="124" y="631" on="1"/>
        <pt x="124" y="649" on="0"/>
        <pt x="123" y="656" on="1"/>
        <pt x="226" y="665" on="0"/>
        <pt x="328" y="665" on="1"/>
        <pt x="464" y="665" on="0"/>
        <pt x="480" y="650" on="1"/>
        <pt x="485" y="639" on="0"/>
        <pt x="485" y="622" on="1"/>
        <pt x="485" y="592" on="0"/>
      </contour>
      <contour>
        <pt x="409" y="721" on="1"/>
        <pt x="384" y="721" on="0"/>
        <pt x="353" y="754" on="0"/>
        <pt x="353" y="782" on="1"/>
        <pt x="353" y="814" on="0"/>
        <pt x="397" y="860" on="0"/>
        <pt x="426" y="860" on="1"/>
        <pt x="449" y="860" on="0"/>
        <pt x="482" y="823" on="0"/>
        <pt x="482" y="796" on="1"/>
        <pt x="482" y="765" on="0"/>
        <pt x="435" y="721" on="0"/>
      </contour>
      <contour>
        <pt x="236" y="721" on="1"/>
        <pt x="211" y="721" on="0"/>
        <pt x="180" y="754" on="0"/>
        <pt x="180" y="782" on="1"/>
        <pt x="180" y="814" on="0"/>
        <pt x="224" y="860" on="0"/>
        <pt x="253" y="860" on="1"/>
        <pt x="276" y="860" on="0"/>
        <pt x="309" y="823" on="0"/>
        <pt x="309" y="796" on="1"/>
        <pt x="309" y="765" on="0"/>
        <pt x="262" y="721" on="0"/>
      </contour>
    </TTGlyph>
    <TTGlyph name="Egrave" xMin="57" yMin="-3" xMax="490" yMax="920">
      <contour>
        <pt x="197" y="823" on="1"/>
        <pt x="170" y="840" on="0"/>
        <pt x="170" y="866" on="1"/>
        <pt x="170" y="902" on="0"/>
        <pt x="211" y="920" on="1"/>
        <pt x="256" y="863" on="0"/>
        <pt x="357" y="790" on="1"/>
        <pt x="376" y="777" on="0"/>
        <pt x="376" y="756" on="1"/>
        <pt x="376" y="731" on="0"/>
        <pt x="357" y="714" on="1"/>
        <pt x="344" y="726" on="0"/>
        <pt x="222" y="804" on="0"/>
      </contour>
      <contour>
        <pt x="468" y="564" on="1"/>
        <pt x="426" y="585" on="0"/>
        <pt x="320" y="585" on="1"/>
        <pt x="279" y="585" on="0"/>
        <pt x="231" y="582" on="1"/>
        <pt x="229" y="534" on="0"/>
        <pt x="209" y="394" on="1"/>
        <pt x="338" y="394" on="0"/>
        <pt x="368" y="398" on="1"/>
        <pt x="370" y="384" on="0"/>
        <pt x="370" y="370" on="1"/>
        <pt x="370" y="319" on="0"/>
        <pt x="328" y="316" on="1"/>
        <pt x="306" y="315" on="0"/>
        <pt x="198" y="315" on="1"/>
        <pt x="172" y="103" on="0"/>
        <pt x="172" y="77" on="1"/>
        <pt x="198" y="75" on="0"/>
        <pt x="222" y="75" on="1"/>
        <pt x="272" y="75" on="0"/>
        <pt x="374" y="89" on="0"/>
        <pt x="390" y="99" on="1"/>
        <pt x="403" y="63" on="0"/>
        <pt x="403" y="40" on="1"/>
        <pt x="403" y="11" on="0"/>
        <pt x="336" y="-3" on="0"/>
        <pt x="242" y="-3" on="1"/>
        <pt x="123" y="-3" on="0"/>
        <pt x="95" y="-1" on="1"/>
        <pt x="74" y="0" on="0"/>
        <pt x="57" y="17" on="0"/>
        <pt x="57" y="34" on="1"/>
        <pt x="57" y="62" on="0"/>
        <pt x="124" y="550" on="0"/>
        <pt x="124" y="631" on="1"/>
        <pt x="124" y="649" on="0"/>
        <pt x="123" y="656" on="1"/>
        <pt x="226" y="665" on="0"/>
        <pt x="333" y="665" on="1"/>
        <pt x="469" y="665" on="0"/>
        <pt x="485" y="650" on="1"/>
        <pt x="490" y="639" on="0"/>
        <pt x="490" y="622" on="1"/>
        <pt x="490" y="592" on="0"/>
      </contour>
    </TTGlyph>
    <TTGlyph name="Eth" xMin="38" yMin="-10" xMax="604" yMax="673">
      <contour>
        <pt x="239" y="315" on="1"/>
        <pt x="225" y="315" on="1"/>
        <pt x="209" y="210" on="0"/>
        <pt x="188" y="103" on="1"/>
        <pt x="224" y="67" on="0"/>
        <pt x="285" y="67" on="1"/>
        <pt x="340" y="67" on="0"/>
        <pt x="422" y="128" on="0"/>
        <pt x="466" y="226" on="0"/>
        <pt x="487" y="328" on="0"/>
        <pt x="487" y="379" on="1"/>
        <pt x="487" y="487" on="0"/>
        <pt x="394" y="596" on="0"/>
        <pt x="308" y="596" on="1"/>
        <pt x="290" y="596" on="0"/>
        <pt x="258" y="592" on="1"/>
        <pt x="251" y="508" on="0"/>
        <pt x="236" y="394" on="1"/>
        <pt x="354" y="394" on="0"/>
        <pt x="385" y="398" on="1"/>
        <pt x="387" y="380" on="0"/>
        <pt x="387" y="371" on="1"/>
        <pt x="387" y="319" on="0"/>
        <pt x="342" y="316" on="1"/>
        <pt x="321" y="315" on="0"/>
      </contour>
      <contour>
        <pt x="72" y="53" on="1"/>
        <pt x="98" y="171" on="0"/>
        <pt x="119" y="315" on="1"/>
        <pt x="67" y="315" on="0"/>
        <pt x="40" y="311" on="1"/>
        <pt x="38" y="329" on="0"/>
        <pt x="38" y="338" on="1"/>
        <pt x="38" y="389" on="0"/>
        <pt x="83" y="393" on="1"/>
        <pt x="93" y="394" on="0"/>
        <pt x="130" y="394" on="1"/>
        <pt x="149" y="543" on="0"/>
        <pt x="152" y="661" on="1"/>
        <pt x="209" y="673" on="0"/>
        <pt x="301" y="673" on="1"/>
        <pt x="604" y="673" on="0"/>
        <pt x="604" y="404" on="1"/>
        <pt x="604" y="296" on="0"/>
        <pt x="527" y="111" on="0"/>
        <pt x="368" y="-10" on="0"/>
        <pt x="263" y="-10" on="1"/>
        <pt x="135" y="-10" on="0"/>
      </contour>
    </TTGlyph>
    <TTGlyph name="Euro" xMin="46" yMin="-9" xMax="554" yMax="674">
      <contour>
        <pt x="232" y="409" on="1"/>
        <pt x="322" y="409" on="1"/>
        <pt x="415" y="409" on="0"/>
        <pt x="471" y="415" on="1"/>
        <pt x="473" y="405" on="0"/>
        <pt x="473" y="395" on="1"/>
        <pt x="473" y="355" on="0"/>
        <pt x="431" y="355" on="1"/>
        <pt x="218" y="355" on="1"/>
        <pt x="216" y="346" on="0"/>
        <pt x="211" y="301" on="1"/>
        <pt x="307" y="301" on="1"/>
        <pt x="399" y="301" on="0"/>
        <pt x="457" y="307" on="1"/>
        <pt x="459" y="295" on="0"/>
        <pt x="459" y="290" on="1"/>
        <pt x="459" y="247" on="0"/>
        <pt x="416" y="247" on="1"/>
        <pt x="211" y="247" on="1"/>
        <pt x="219" y="161" on="0"/>
        <pt x="303" y="63" on="0"/>
        <pt x="351" y="63" on="1"/>
        <pt x="403" y="63" on="0"/>
        <pt x="453" y="103" on="1"/>
        <pt x="481" y="82" on="0"/>
        <pt x="481" y="52" on="1"/>
        <pt x="481" y="-9" on="0"/>
        <pt x="343" y="-9" on="1"/>
        <pt x="245" y="-9" on="0"/>
        <pt x="109" y="115" on="0"/>
        <pt x="106" y="247" on="1"/>
        <pt x="95" y="246" on="0"/>
        <pt x="53" y="241" on="0"/>
        <pt x="49" y="241" on="1"/>
        <pt x="46" y="246" on="0"/>
        <pt x="46" y="261" on="1"/>
        <pt x="46" y="301" on="0"/>
        <pt x="88" y="301" on="1"/>
        <pt x="107" y="301" on="1"/>
        <pt x="109" y="333" on="0"/>
        <pt x="115" y="355" on="1"/>
        <pt x="86" y="353" on="0"/>
        <pt x="63" y="348" on="1"/>
        <pt x="60" y="354" on="0"/>
        <pt x="60" y="366" on="1"/>
        <pt x="60" y="409" on="0"/>
        <pt x="103" y="409" on="1"/>
        <pt x="127" y="409" on="1"/>
        <pt x="150" y="501" on="0"/>
        <pt x="252" y="624" on="0"/>
        <pt x="366" y="674" on="0"/>
        <pt x="429" y="674" on="1"/>
        <pt x="554" y="674" on="0"/>
        <pt x="554" y="625" on="1"/>
        <pt x="554" y="591" on="0"/>
        <pt x="508" y="563" on="1"/>
        <pt x="466" y="603" on="0"/>
        <pt x="417" y="603" on="1"/>
        <pt x="366" y="603" on="0"/>
        <pt x="258" y="503" on="0"/>
      </contour>
    </TTGlyph>
    <TTGlyph name="Eurooldstyle" xMin="45" yMin="-10" xMax="541" yMax="583">
      <contour>
        <pt x="113" y="266" on="1"/>
        <pt x="118" y="310" on="1"/>
        <pt x="101" y="309" on="0"/>
        <pt x="59" y="303" on="1"/>
        <pt x="56" y="313" on="0"/>
        <pt x="56" y="322" on="1"/>
        <pt x="56" y="364" on="0"/>
        <pt x="100" y="364" on="1"/>
        <pt x="132" y="364" on="1"/>
        <pt x="166" y="473" on="0"/>
        <pt x="324" y="583" on="0"/>
        <pt x="417" y="583" on="1"/>
        <pt x="541" y="583" on="0"/>
        <pt x="541" y="533" on="1"/>
        <pt x="541" y="499" on="0"/>
        <pt x="499" y="471" on="1"/>
        <pt x="460" y="512" on="0"/>
        <pt x="407" y="512" on="1"/>
        <pt x="359" y="512" on="0"/>
        <pt x="264" y="436" on="0"/>
        <pt x="238" y="364" on="1"/>
        <pt x="317" y="364" on="1"/>
        <pt x="410" y="364" on="0"/>
        <pt x="465" y="370" on="1"/>
        <pt x="467" y="360" on="0"/>
        <pt x="467" y="350" on="1"/>
        <pt x="467" y="310" on="0"/>
        <pt x="425" y="310" on="1"/>
        <pt x="221" y="310" on="1"/>
        <pt x="215" y="266" on="1"/>
        <pt x="250" y="266" on="1"/>
        <pt x="396" y="266" on="0"/>
        <pt x="452" y="272" on="1"/>
        <pt x="454" y="262" on="0"/>
        <pt x="454" y="252" on="1"/>
        <pt x="454" y="212" on="0"/>
        <pt x="412" y="212" on="1"/>
        <pt x="216" y="212" on="1"/>
        <pt x="224" y="140" on="0"/>
        <pt x="302" y="62" on="0"/>
        <pt x="350" y="62" on="1"/>
        <pt x="401" y="62" on="0"/>
        <pt x="453" y="102" on="1"/>
        <pt x="484" y="80" on="0"/>
        <pt x="484" y="50" on="1"/>
        <pt x="484" y="-10" on="0"/>
        <pt x="342" y="-10" on="1"/>
        <pt x="247" y="-10" on="0"/>
        <pt x="115" y="99" on="0"/>
        <pt x="110" y="212" on="1"/>
        <pt x="92" y="211" on="0"/>
        <pt x="47" y="205" on="1"/>
        <pt x="45" y="221" on="0"/>
        <pt x="45" y="226" on="1"/>
        <pt x="45" y="266" on="0"/>
        <pt x="88" y="266" on="1"/>
      </contour>
    </TTGlyph>
    <TTGlyph name="F" xMin="57" yMin="-3" xMax="490" yMax="665">
      <contour>
        <pt x="231" y="582" on="1"/>
        <pt x="229" y="534" on="0"/>
        <pt x="209" y="394" on="1"/>
        <pt x="338" y="394" on="0"/>
        <pt x="368" y="398" on="1"/>
        <pt x="370" y="384" on="0"/>
        <pt x="370" y="370" on="1"/>
        <pt x="370" y="319" on="0"/>
        <pt x="328" y="316" on="1"/>
        <pt x="306" y="315" on="0"/>
        <pt x="198" y="315" on="1"/>
        <pt x="195" y="289" on="0"/>
        <pt x="183" y="196" on="0"/>
        <pt x="177" y="150" on="0"/>
        <pt x="172" y="89" on="0"/>
        <pt x="172" y="66" on="1"/>
        <pt x="172" y="32" on="0"/>
        <pt x="176" y="5" on="1"/>
        <pt x="141" y="-3" on="0"/>
        <pt x="116" y="-3" on="1"/>
        <pt x="57" y="-3" on="0"/>
        <pt x="57" y="49" on="1"/>
        <pt x="57" y="57" on="0"/>
        <pt x="124" y="553" on="0"/>
        <pt x="124" y="631" on="1"/>
        <pt x="124" y="649" on="0"/>
        <pt x="123" y="656" on="1"/>
        <pt x="226" y="665" on="0"/>
        <pt x="333" y="665" on="1"/>
        <pt x="469" y="665" on="0"/>
        <pt x="485" y="650" on="1"/>
        <pt x="490" y="635" on="0"/>
        <pt x="490" y="622" on="1"/>
        <pt x="490" y="591" on="0"/>
        <pt x="468" y="564" on="1"/>
        <pt x="426" y="585" on="0"/>
        <pt x="320" y="585" on="1"/>
        <pt x="279" y="585" on="0"/>
      </contour>
    </TTGlyph>
    <TTGlyph name="G" xMin="46" yMin="-10" xMax="550" yMax="673">
      <contour>
        <pt x="416" y="317" on="1"/>
        <pt x="441" y="320" on="0"/>
        <pt x="467" y="320" on="1"/>
        <pt x="527" y="320" on="0"/>
        <pt x="527" y="273" on="1"/>
        <pt x="527" y="267" on="0"/>
        <pt x="517" y="215" on="0"/>
        <pt x="502" y="126" on="0"/>
        <pt x="497" y="85" on="1"/>
        <pt x="489" y="44" on="0"/>
        <pt x="372" y="-10" on="0"/>
        <pt x="291" y="-10" on="1"/>
        <pt x="177" y="-10" on="0"/>
        <pt x="46" y="139" on="0"/>
        <pt x="46" y="264" on="1"/>
        <pt x="46" y="445" on="0"/>
        <pt x="238" y="673" on="0"/>
        <pt x="390" y="673" on="1"/>
        <pt x="459" y="673" on="0"/>
        <pt x="550" y="616" on="0"/>
        <pt x="550" y="574" on="1"/>
        <pt x="550" y="543" on="0"/>
        <pt x="502" y="504" on="0"/>
        <pt x="464" y="499" on="1"/>
        <pt x="455" y="547" on="0"/>
        <pt x="395" y="596" on="0"/>
        <pt x="358" y="596" on="1"/>
        <pt x="272" y="596" on="0"/>
        <pt x="162" y="411" on="0"/>
        <pt x="162" y="290" on="1"/>
        <pt x="162" y="191" on="0"/>
        <pt x="232" y="67" on="0"/>
        <pt x="300" y="67" on="1"/>
        <pt x="356" y="67" on="0"/>
        <pt x="396" y="107" on="1"/>
        <pt x="410" y="230" on="0"/>
      </contour>
    </TTGlyph>
    <TTGlyph name="H" xMin="57" yMin="-3" xMax="597" yMax="666">
      <contour>
        <pt x="484" y="663" on="1"/>
        <pt x="512" y="666" on="0"/>
        <pt x="537" y="666" on="1"/>
        <pt x="597" y="666" on="0"/>
        <pt x="597" y="623" on="1"/>
        <pt x="597" y="618" on="0"/>
        <pt x="588" y="568" on="0"/>
        <pt x="571" y="462" on="0"/>
        <pt x="564" y="404" on="1"/>
        <pt x="538" y="203" on="1"/>
        <pt x="526" y="115" on="0"/>
        <pt x="526" y="66" on="1"/>
        <pt x="526" y="32" on="0"/>
        <pt x="530" y="5" on="1"/>
        <pt x="495" y="-3" on="0"/>
        <pt x="470" y="-3" on="1"/>
        <pt x="411" y="-3" on="0"/>
        <pt x="411" y="49" on="1"/>
        <pt x="411" y="55" on="0"/>
        <pt x="418" y="106" on="0"/>
        <pt x="437" y="245" on="0"/>
        <pt x="447" y="323" on="1"/>
        <pt x="409" y="321" on="0"/>
        <pt x="338" y="321" on="1"/>
        <pt x="271" y="321" on="0"/>
        <pt x="199" y="323" on="1"/>
        <pt x="184" y="203" on="1"/>
        <pt x="172" y="115" on="0"/>
        <pt x="172" y="66" on="1"/>
        <pt x="172" y="32" on="0"/>
        <pt x="176" y="5" on="1"/>
        <pt x="141" y="-3" on="0"/>
        <pt x="116" y="-3" on="1"/>
        <pt x="57" y="-3" on="0"/>
        <pt x="57" y="49" on="1"/>
        <pt x="57" y="56" on="0"/>
        <pt x="66" y="124" on="0"/>
        <pt x="93" y="317" on="0"/>
        <pt x="107" y="431" on="1"/>
        <pt x="126" y="581" on="0"/>
        <pt x="130" y="663" on="1"/>
        <pt x="159" y="666" on="0"/>
        <pt x="183" y="666" on="1"/>
        <pt x="243" y="666" on="0"/>
        <pt x="243" y="623" on="1"/>
        <pt x="243" y="618" on="0"/>
        <pt x="234" y="567" on="0"/>
        <pt x="217" y="458" on="0"/>
        <pt x="209" y="398" on="1"/>
        <pt x="309" y="396" on="0"/>
        <pt x="345" y="396" on="1"/>
        <pt x="389" y="396" on="0"/>
        <pt x="457" y="398" on="1"/>
        <pt x="481" y="583" on="0"/>
      </contour>
    </TTGlyph>
    <TTGlyph name="I" xMin="57" yMin="-3" xMax="243" yMax="666">
      <contour>
        <pt x="130" y="663" on="1"/>
        <pt x="159" y="666" on="0"/>
        <pt x="183" y="666" on="1"/>
        <pt x="243" y="666" on="0"/>
        <pt x="243" y="623" on="1"/>
        <pt x="243" y="618" on="0"/>
        <pt x="234" y="568" on="0"/>
        <pt x="217" y="462" on="0"/>
        <pt x="210" y="404" on="1"/>
        <pt x="184" y="203" on="1"/>
        <pt x="172" y="115" on="0"/>
        <pt x="172" y="66" on="1"/>
        <pt x="172" y="32" on="0"/>
        <pt x="176" y="5" on="1"/>
        <pt x="141" y="-3" on="0"/>
        <pt x="116" y="-3" on="1"/>
        <pt x="57" y="-3" on="0"/>
        <pt x="57" y="49" on="1"/>
        <pt x="57" y="56" on="0"/>
        <pt x="66" y="124" on="0"/>
        <pt x="93" y="317" on="0"/>
        <pt x="107" y="431" on="1"/>
        <pt x="126" y="581" on="0"/>
      </contour>
    </TTGlyph>
    <TTGlyph name="Iacute" xMin="57" yMin="-3" xMax="333" yMax="899">
      <contour>
        <pt x="302" y="801" on="1"/>
        <pt x="277" y="787" on="0"/>
        <pt x="146" y="727" on="0"/>
        <pt x="131" y="715" on="1"/>
        <pt x="107" y="739" on="0"/>
        <pt x="107" y="758" on="1"/>
        <pt x="107" y="778" on="0"/>
        <pt x="130" y="790" on="1"/>
        <pt x="158" y="803" on="0"/>
        <pt x="271" y="873" on="0"/>
        <pt x="300" y="899" on="1"/>
        <pt x="333" y="882" on="0"/>
        <pt x="333" y="848" on="1"/>
        <pt x="333" y="819" on="0"/>
      </contour>
      <contour>
        <pt x="130" y="663" on="1"/>
        <pt x="159" y="666" on="0"/>
        <pt x="183" y="666" on="1"/>
        <pt x="243" y="666" on="0"/>
        <pt x="243" y="623" on="1"/>
        <pt x="243" y="618" on="0"/>
        <pt x="234" y="568" on="0"/>
        <pt x="217" y="462" on="0"/>
        <pt x="210" y="404" on="1"/>
        <pt x="184" y="203" on="1"/>
        <pt x="172" y="115" on="0"/>
        <pt x="172" y="66" on="1"/>
        <pt x="172" y="32" on="0"/>
        <pt x="176" y="5" on="1"/>
        <pt x="141" y="-3" on="0"/>
        <pt x="116" y="-3" on="1"/>
        <pt x="57" y="-3" on="0"/>
        <pt x="57" y="49" on="1"/>
        <pt x="57" y="56" on="0"/>
        <pt x="66" y="124" on="0"/>
        <pt x="93" y="317" on="0"/>
        <pt x="107" y="431" on="1"/>
        <pt x="126" y="581" on="0"/>
      </contour>
    </TTGlyph>
    <TTGlyph name="Icircumflex" xMin="47" yMin="-3" xMax="334" yMax="892">
      <contour>
        <pt x="334" y="758" on="1"/>
        <pt x="334" y="727" on="0"/>
        <pt x="291" y="709" on="1"/>
        <pt x="277" y="730" on="0"/>
        <pt x="232" y="773" on="0"/>
        <pt x="217" y="784" on="1"/>
        <pt x="202" y="796" on="1"/>
        <pt x="105" y="721" on="0"/>
        <pt x="77" y="721" on="1"/>
        <pt x="57" y="721" on="0"/>
        <pt x="47" y="747" on="1"/>
        <pt x="143" y="845" on="0"/>
        <pt x="216" y="892" on="1"/>
        <pt x="334" y="800" on="0"/>
      </contour>
      <contour>
        <pt x="130" y="663" on="1"/>
        <pt x="159" y="666" on="0"/>
        <pt x="183" y="666" on="1"/>
        <pt x="243" y="666" on="0"/>
        <pt x="243" y="623" on="1"/>
        <pt x="243" y="618" on="0"/>
        <pt x="234" y="568" on="0"/>
        <pt x="217" y="462" on="0"/>
        <pt x="210" y="404" on="1"/>
        <pt x="184" y="203" on="1"/>
        <pt x="172" y="115" on="0"/>
        <pt x="172" y="66" on="1"/>
        <pt x="172" y="32" on="0"/>
        <pt x="176" y="5" on="1"/>
        <pt x="141" y="-3" on="0"/>
        <pt x="116" y="-3" on="1"/>
        <pt x="57" y="-3" on="0"/>
        <pt x="57" y="49" on="1"/>
        <pt x="57" y="56" on="0"/>
        <pt x="66" y="124" on="0"/>
        <pt x="93" y="317" on="0"/>
        <pt x="107" y="431" on="1"/>
        <pt x="126" y="581" on="0"/>
      </contour>
    </TTGlyph>
    <TTGlyph name="Idieresis" xMin="56" yMin="-3" xMax="358" yMax="860">
      <contour>
        <pt x="130" y="663" on="1"/>
        <pt x="159" y="666" on="0"/>
        <pt x="183" y="666" on="1"/>
        <pt x="243" y="666" on="0"/>
        <pt x="243" y="623" on="1"/>
        <pt x="243" y="618" on="0"/>
        <pt x="234" y="568" on="0"/>
        <pt x="217" y="462" on="0"/>
        <pt x="210" y="404" on="1"/>
        <pt x="184" y="203" on="1"/>
        <pt x="172" y="115" on="0"/>
        <pt x="172" y="66" on="1"/>
        <pt x="172" y="32" on="0"/>
        <pt x="176" y="5" on="1"/>
        <pt x="141" y="-3" on="0"/>
        <pt x="116" y="-3" on="1"/>
        <pt x="57" y="-3" on="0"/>
        <pt x="57" y="49" on="1"/>
        <pt x="57" y="56" on="0"/>
        <pt x="66" y="124" on="0"/>
        <pt x="93" y="317" on="0"/>
        <pt x="107" y="431" on="1"/>
        <pt x="126" y="581" on="0"/>
      </contour>
      <contour>
        <pt x="285" y="721" on="1"/>
        <pt x="260" y="721" on="0"/>
        <pt x="229" y="754" on="0"/>
        <pt x="229" y="782" on="1"/>
        <pt x="229" y="814" on="0"/>
        <pt x="273" y="860" on="0"/>
        <pt x="302" y="860" on="1"/>
        <pt x="325" y="860" on="0"/>
        <pt x="358" y="823" on="0"/>
        <pt x="358" y="796" on="1"/>
        <pt x="358" y="765" on="0"/>
        <pt x="311" y="721" on="0"/>
      </contour>
      <contour>
        <pt x="112" y="721" on="1"/>
        <pt x="87" y="721" on="0"/>
        <pt x="56" y="754" on="0"/>
        <pt x="56" y="782" on="1"/>
        <pt x="56" y="814" on="0"/>
        <pt x="100" y="860" on="0"/>
        <pt x="129" y="860" on="1"/>
        <pt x="152" y="860" on="0"/>
        <pt x="185" y="823" on="0"/>
        <pt x="185" y="796" on="1"/>
        <pt x="185" y="765" on="0"/>
        <pt x="138" y="721" on="0"/>
      </contour>
    </TTGlyph>
    <TTGlyph name="Igrave" xMin="40" yMin="-3" xMax="246" yMax="920">
      <contour>
        <pt x="67" y="823" on="1"/>
        <pt x="40" y="840" on="0"/>
        <pt x="40" y="866" on="1"/>
        <pt x="40" y="902" on="0"/>
        <pt x="81" y="920" on="1"/>
        <pt x="126" y="863" on="0"/>
        <pt x="227" y="790" on="1"/>
        <pt x="246" y="777" on="0"/>
        <pt x="246" y="756" on="1"/>
        <pt x="246" y="731" on="0"/>
        <pt x="227" y="714" on="1"/>
        <pt x="214" y="726" on="0"/>
        <pt x="92" y="804" on="0"/>
      </contour>
      <contour>
        <pt x="130" y="663" on="1"/>
        <pt x="159" y="666" on="0"/>
        <pt x="183" y="666" on="1"/>
        <pt x="243" y="666" on="0"/>
        <pt x="243" y="623" on="1"/>
        <pt x="243" y="618" on="0"/>
        <pt x="234" y="568" on="0"/>
        <pt x="217" y="462" on="0"/>
        <pt x="210" y="404" on="1"/>
        <pt x="184" y="203" on="1"/>
        <pt x="172" y="115" on="0"/>
        <pt x="172" y="66" on="1"/>
        <pt x="172" y="32" on="0"/>
        <pt x="176" y="5" on="1"/>
        <pt x="141" y="-3" on="0"/>
        <pt x="116" y="-3" on="1"/>
        <pt x="57" y="-3" on="0"/>
        <pt x="57" y="49" on="1"/>
        <pt x="57" y="56" on="0"/>
        <pt x="66" y="124" on="0"/>
        <pt x="93" y="317" on="0"/>
        <pt x="107" y="431" on="1"/>
        <pt x="126" y="581" on="0"/>
      </contour>
    </TTGlyph>
    <TTGlyph name="J" xMin="0" yMin="-119" xMax="311" yMax="666">
      <contour>
        <pt x="39" y="-119" on="1"/>
        <pt x="0" y="-119" on="0"/>
        <pt x="0" y="-72" on="1"/>
        <pt x="0" y="-52" on="0"/>
        <pt x="3" y="-40" on="1"/>
        <pt x="33" y="-37" on="0"/>
        <pt x="75" y="-18" on="0"/>
        <pt x="101" y="7" on="0"/>
        <pt x="118" y="59" on="0"/>
        <pt x="127" y="104" on="0"/>
        <pt x="133" y="148" on="1"/>
        <pt x="173" y="436" on="1"/>
        <pt x="192" y="571" on="0"/>
        <pt x="198" y="663" on="1"/>
        <pt x="225" y="666" on="0"/>
        <pt x="250" y="666" on="1"/>
        <pt x="311" y="666" on="0"/>
        <pt x="311" y="625" on="1"/>
        <pt x="311" y="615" on="0"/>
        <pt x="300" y="560" on="0"/>
        <pt x="282" y="465" on="0"/>
        <pt x="276" y="421" on="1"/>
        <pt x="233" y="114" on="1"/>
        <pt x="224" y="47" on="0"/>
        <pt x="170" y="-53" on="0"/>
        <pt x="106" y="-99" on="0"/>
        <pt x="56" y="-119" on="0"/>
      </contour>
    </TTGlyph>
    <TTGlyph name="J_alt" xMin="-57" yMin="-112" xMax="371" yMax="667">
      <contour>
        <pt x="184" y="95" on="1"/>
        <pt x="233" y="436" on="1"/>
        <pt x="249" y="548" on="0"/>
        <pt x="258" y="663" on="1"/>
        <pt x="294" y="667" on="0"/>
        <pt x="310" y="667" on="1"/>
        <pt x="371" y="667" on="0"/>
        <pt x="371" y="626" on="1"/>
        <pt x="371" y="619" on="0"/>
        <pt x="361" y="567" on="0"/>
        <pt x="343" y="470" on="0"/>
        <pt x="336" y="421" on="1"/>
        <pt x="328" y="363" on="0"/>
        <pt x="307" y="212" on="0"/>
        <pt x="292" y="106" on="0"/>
        <pt x="292" y="104" on="1"/>
        <pt x="278" y="5" on="0"/>
        <pt x="154" y="-112" on="0"/>
        <pt x="64" y="-112" on="1"/>
        <pt x="14" y="-112" on="0"/>
        <pt x="-57" y="-79" on="0"/>
        <pt x="-57" y="-55" on="1"/>
        <pt x="-57" y="-22" on="0"/>
        <pt x="-2" y="13" on="1"/>
        <pt x="30" y="-36" on="0"/>
        <pt x="89" y="-36" on="1"/>
        <pt x="122" y="-36" on="0"/>
        <pt x="174" y="26" on="0"/>
      </contour>
    </TTGlyph>
    <TTGlyph name="K" xMin="57" yMin="-10" xMax="527" yMax="668">
      <contour>
        <pt x="130" y="663" on="1"/>
        <pt x="159" y="666" on="0"/>
        <pt x="183" y="666" on="1"/>
        <pt x="243" y="666" on="0"/>
        <pt x="243" y="623" on="1"/>
        <pt x="243" y="618" on="0"/>
        <pt x="235" y="568" on="0"/>
        <pt x="218" y="461" on="0"/>
        <pt x="210" y="402" on="1"/>
        <pt x="324" y="493" on="0"/>
        <pt x="418" y="613" on="0"/>
        <pt x="436" y="668" on="1"/>
        <pt x="518" y="667" on="0"/>
        <pt x="518" y="616" on="1"/>
        <pt x="518" y="585" on="0"/>
        <pt x="388" y="441" on="0"/>
        <pt x="298" y="363" on="1"/>
        <pt x="401" y="134" on="0"/>
        <pt x="452" y="84" on="1"/>
        <pt x="467" y="71" on="0"/>
        <pt x="496" y="71" on="1"/>
        <pt x="517" y="71" on="0"/>
        <pt x="523" y="74" on="1"/>
        <pt x="527" y="58" on="0"/>
        <pt x="527" y="42" on="1"/>
        <pt x="527" y="15" on="0"/>
        <pt x="484" y="-10" on="0"/>
        <pt x="456" y="-10" on="1"/>
        <pt x="403" y="-10" on="0"/>
        <pt x="360" y="47" on="1"/>
        <pt x="333" y="83" on="0"/>
        <pt x="247" y="236" on="0"/>
        <pt x="218" y="298" on="1"/>
        <pt x="194" y="278" on="1"/>
        <pt x="184" y="203" on="1"/>
        <pt x="172" y="115" on="0"/>
        <pt x="172" y="66" on="1"/>
        <pt x="172" y="32" on="0"/>
        <pt x="176" y="5" on="1"/>
        <pt x="141" y="-3" on="0"/>
        <pt x="116" y="-3" on="1"/>
        <pt x="57" y="-3" on="0"/>
        <pt x="57" y="49" on="1"/>
        <pt x="57" y="56" on="0"/>
        <pt x="66" y="124" on="0"/>
        <pt x="93" y="317" on="0"/>
        <pt x="107" y="431" on="1"/>
        <pt x="126" y="581" on="0"/>
      </contour>
    </TTGlyph>
    <TTGlyph name="L" xMin="57" yMin="-3" xMax="403" yMax="666">
      <contour>
        <pt x="390" y="99" on="1"/>
        <pt x="403" y="63" on="0"/>
        <pt x="403" y="40" on="1"/>
        <pt x="403" y="11" on="0"/>
        <pt x="336" y="-3" on="0"/>
        <pt x="242" y="-3" on="1"/>
        <pt x="123" y="-3" on="0"/>
        <pt x="95" y="-1" on="1"/>
        <pt x="74" y="0" on="0"/>
        <pt x="57" y="17" on="0"/>
        <pt x="57" y="34" on="1"/>
        <pt x="57" y="68" on="0"/>
        <pt x="130" y="595" on="0"/>
        <pt x="130" y="663" on="1"/>
        <pt x="152" y="666" on="0"/>
        <pt x="187" y="666" on="1"/>
        <pt x="245" y="666" on="0"/>
        <pt x="245" y="633" on="1"/>
        <pt x="245" y="620" on="0"/>
        <pt x="213" y="422" on="0"/>
        <pt x="176" y="160" on="0"/>
        <pt x="172" y="77" on="1"/>
        <pt x="198" y="75" on="0"/>
        <pt x="222" y="75" on="1"/>
        <pt x="272" y="75" on="0"/>
        <pt x="374" y="89" on="0"/>
      </contour>
    </TTGlyph>
    <TTGlyph name="Lslash" xMin="-36" yMin="-3" xMax="404" yMax="666">
      <contour>
        <pt x="391" y="99" on="1"/>
        <pt x="404" y="63" on="0"/>
        <pt x="404" y="40" on="1"/>
        <pt x="404" y="11" on="0"/>
        <pt x="337" y="-3" on="0"/>
        <pt x="243" y="-3" on="1"/>
        <pt x="124" y="-3" on="0"/>
        <pt x="96" y="-1" on="1"/>
        <pt x="75" y="0" on="0"/>
        <pt x="58" y="17" on="0"/>
        <pt x="58" y="34" on="1"/>
        <pt x="58" y="67" on="0"/>
        <pt x="82" y="246" on="1"/>
        <pt x="9" y="191" on="0"/>
        <pt x="-9" y="176" on="1"/>
        <pt x="-36" y="196" on="0"/>
        <pt x="-36" y="221" on="1"/>
        <pt x="-36" y="238" on="0"/>
        <pt x="-17" y="255" on="1"/>
        <pt x="95" y="334" on="1"/>
        <pt x="131" y="596" on="0"/>
        <pt x="131" y="663" on="1"/>
        <pt x="153" y="666" on="0"/>
        <pt x="188" y="666" on="1"/>
        <pt x="246" y="666" on="0"/>
        <pt x="246" y="633" on="1"/>
        <pt x="214" y="417" on="1"/>
        <pt x="230" y="429" on="0"/>
        <pt x="313" y="494" on="1"/>
        <pt x="340" y="477" on="0"/>
        <pt x="340" y="450" on="1"/>
        <pt x="340" y="431" on="0"/>
        <pt x="321" y="415" on="1"/>
        <pt x="201" y="332" on="1"/>
        <pt x="179" y="178" on="0"/>
        <pt x="173" y="77" on="1"/>
        <pt x="199" y="75" on="0"/>
        <pt x="223" y="75" on="1"/>
        <pt x="273" y="75" on="0"/>
        <pt x="375" y="89" on="0"/>
      </contour>
    </TTGlyph>
    <TTGlyph name="M" xMin="57" yMin="-3" xMax="760" yMax="667">
      <contour>
        <pt x="713" y="436" on="1"/>
        <pt x="680" y="203" on="1"/>
        <pt x="666" y="111" on="0"/>
        <pt x="666" y="59" on="1"/>
        <pt x="666" y="39" on="0"/>
        <pt x="670" y="5" on="1"/>
        <pt x="646" y="-3" on="0"/>
        <pt x="604" y="-3" on="1"/>
        <pt x="549" y="-3" on="0"/>
        <pt x="549" y="35" on="1"/>
        <pt x="549" y="39" on="0"/>
        <pt x="567" y="157" on="0"/>
        <pt x="598" y="372" on="0"/>
        <pt x="611" y="469" on="1"/>
        <pt x="510" y="270" on="0"/>
        <pt x="402" y="2" on="1"/>
        <pt x="388" y="-2" on="0"/>
        <pt x="360" y="-2" on="1"/>
        <pt x="309" y="-2" on="0"/>
        <pt x="302" y="24" on="1"/>
        <pt x="284" y="86" on="0"/>
        <pt x="227" y="402" on="0"/>
        <pt x="209" y="477" on="1"/>
        <pt x="158" y="122" on="0"/>
        <pt x="158" y="59" on="1"/>
        <pt x="158" y="39" on="0"/>
        <pt x="162" y="5" on="1"/>
        <pt x="138" y="-3" on="0"/>
        <pt x="99" y="-3" on="1"/>
        <pt x="75" y="-3" on="0"/>
        <pt x="57" y="14" on="0"/>
        <pt x="57" y="32" on="1"/>
        <pt x="57" y="40" on="0"/>
        <pt x="85" y="231" on="1"/>
        <pt x="121" y="483" on="1"/>
        <pt x="131" y="555" on="0"/>
        <pt x="131" y="610" on="1"/>
        <pt x="131" y="636" on="0"/>
        <pt x="128" y="659" on="1"/>
        <pt x="165" y="667" on="0"/>
        <pt x="199" y="667" on="1"/>
        <pt x="254" y="667" on="0"/>
        <pt x="272" y="619" on="1"/>
        <pt x="285" y="584" on="0"/>
        <pt x="310" y="504" on="0"/>
        <pt x="324" y="453" on="0"/>
        <pt x="346" y="345" on="0"/>
        <pt x="352" y="317" on="0"/>
        <pt x="376" y="183" on="0"/>
        <pt x="377" y="177" on="1"/>
        <pt x="470" y="415" on="0"/>
        <pt x="603" y="619" on="1"/>
        <pt x="635" y="667" on="0"/>
        <pt x="698" y="667" on="1"/>
        <pt x="738" y="667" on="0"/>
        <pt x="760" y="659" on="1"/>
        <pt x="736" y="599" on="0"/>
      </contour>
    </TTGlyph>
    <TTGlyph name="N" xMin="57" yMin="-3" xMax="580" yMax="667">
      <contour>
        <pt x="500" y="1" on="1"/>
        <pt x="480" y="-3" on="0"/>
        <pt x="455" y="-3" on="1"/>
        <pt x="405" y="-3" on="0"/>
        <pt x="394" y="24" on="1"/>
        <pt x="360" y="102" on="0"/>
        <pt x="230" y="433" on="0"/>
        <pt x="208" y="488" on="1"/>
        <pt x="203" y="452" on="0"/>
        <pt x="181" y="284" on="0"/>
        <pt x="170" y="192" on="0"/>
        <pt x="159" y="85" on="0"/>
        <pt x="159" y="59" on="1"/>
        <pt x="159" y="39" on="0"/>
        <pt x="163" y="5" on="1"/>
        <pt x="139" y="-3" on="0"/>
        <pt x="113" y="-3" on="1"/>
        <pt x="81" y="-3" on="0"/>
        <pt x="57" y="15" on="0"/>
        <pt x="57" y="35" on="1"/>
        <pt x="57" y="44" on="0"/>
        <pt x="66" y="108" on="0"/>
        <pt x="79" y="202" on="0"/>
        <pt x="83" y="231" on="1"/>
        <pt x="90" y="286" on="0"/>
        <pt x="108" y="424" on="0"/>
        <pt x="117" y="494" on="0"/>
        <pt x="124" y="573" on="0"/>
        <pt x="124" y="604" on="1"/>
        <pt x="124" y="636" on="0"/>
        <pt x="120" y="659" on="1"/>
        <pt x="145" y="667" on="0"/>
        <pt x="180" y="667" on="1"/>
        <pt x="222" y="667" on="0"/>
        <pt x="242" y="638" on="1"/>
        <pt x="277" y="586" on="0"/>
        <pt x="386" y="338" on="0"/>
        <pt x="431" y="211" on="1"/>
        <pt x="457" y="431" on="1"/>
        <pt x="476" y="590" on="0"/>
        <pt x="480" y="663" on="1"/>
        <pt x="501" y="666" on="0"/>
        <pt x="523" y="666" on="1"/>
        <pt x="580" y="666" on="0"/>
        <pt x="580" y="632" on="1"/>
        <pt x="580" y="625" on="0"/>
        <pt x="568" y="560" on="0"/>
        <pt x="551" y="451" on="0"/>
        <pt x="545" y="404" on="1"/>
        <pt x="539" y="355" on="0"/>
        <pt x="515" y="170" on="0"/>
        <pt x="503" y="53" on="0"/>
      </contour>
    </TTGlyph>
    <TTGlyph name="Ntilde" xMin="57" yMin="-3" xMax="580" yMax="838">
      <contour>
        <pt x="500" y="1" on="1"/>
        <pt x="480" y="-3" on="0"/>
        <pt x="455" y="-3" on="1"/>
        <pt x="405" y="-3" on="0"/>
        <pt x="394" y="24" on="1"/>
        <pt x="360" y="102" on="0"/>
        <pt x="230" y="433" on="0"/>
        <pt x="208" y="488" on="1"/>
        <pt x="203" y="452" on="0"/>
        <pt x="181" y="284" on="0"/>
        <pt x="170" y="192" on="0"/>
        <pt x="159" y="85" on="0"/>
        <pt x="159" y="59" on="1"/>
        <pt x="159" y="39" on="0"/>
        <pt x="163" y="5" on="1"/>
        <pt x="139" y="-3" on="0"/>
        <pt x="113" y="-3" on="1"/>
        <pt x="81" y="-3" on="0"/>
        <pt x="57" y="15" on="0"/>
        <pt x="57" y="35" on="1"/>
        <pt x="57" y="44" on="0"/>
        <pt x="66" y="108" on="0"/>
        <pt x="79" y="202" on="0"/>
        <pt x="83" y="231" on="1"/>
        <pt x="90" y="286" on="0"/>
        <pt x="108" y="424" on="0"/>
        <pt x="117" y="494" on="0"/>
        <pt x="124" y="573" on="0"/>
        <pt x="124" y="604" on="1"/>
        <pt x="124" y="636" on="0"/>
        <pt x="120" y="659" on="1"/>
        <pt x="145" y="667" on="0"/>
        <pt x="180" y="667" on="1"/>
        <pt x="222" y="667" on="0"/>
        <pt x="242" y="638" on="1"/>
        <pt x="277" y="586" on="0"/>
        <pt x="386" y="338" on="0"/>
        <pt x="431" y="211" on="1"/>
        <pt x="457" y="431" on="1"/>
        <pt x="476" y="590" on="0"/>
        <pt x="480" y="663" on="1"/>
        <pt x="501" y="666" on="0"/>
        <pt x="523" y="666" on="1"/>
        <pt x="580" y="666" on="0"/>
        <pt x="580" y="632" on="1"/>
        <pt x="580" y="625" on="0"/>
        <pt x="568" y="560" on="0"/>
        <pt x="551" y="451" on="0"/>
        <pt x="545" y="404" on="1"/>
        <pt x="539" y="355" on="0"/>
        <pt x="515" y="170" on="0"/>
        <pt x="503" y="53" on="0"/>
      </contour>
      <contour>
        <pt x="522" y="810" on="1"/>
        <pt x="522" y="777" on="0"/>
        <pt x="441" y="720" on="0"/>
        <pt x="403" y="720" on="1"/>
        <pt x="374" y="720" on="0"/>
        <pt x="305" y="764" on="0"/>
        <pt x="298" y="764" on="1"/>
        <pt x="283" y="764" on="0"/>
        <pt x="240" y="718" on="1"/>
        <pt x="212" y="732" on="0"/>
        <pt x="212" y="756" on="1"/>
        <pt x="216" y="785" on="0"/>
        <pt x="290" y="837" on="0"/>
        <pt x="331" y="837" on="1"/>
        <pt x="355" y="837" on="0"/>
        <pt x="424" y="793" on="0"/>
        <pt x="435" y="793" on="1"/>
        <pt x="453" y="793" on="0"/>
        <pt x="492" y="838" on="1"/>
        <pt x="522" y="830" on="0"/>
      </contour>
    </TTGlyph>
    <TTGlyph name="O" xMin="46" yMin="-10" xMax="627" yMax="674">
      <contour>
        <pt x="290" y="-10" on="1"/>
        <pt x="175" y="-10" on="0"/>
        <pt x="46" y="137" on="0"/>
        <pt x="46" y="263" on="1"/>
        <pt x="46" y="438" on="0"/>
        <pt x="232" y="674" on="0"/>
        <pt x="379" y="674" on="1"/>
        <pt x="496" y="674" on="0"/>
        <pt x="627" y="529" on="0"/>
        <pt x="627" y="402" on="1"/>
        <pt x="627" y="230" on="0"/>
        <pt x="441" y="-10" on="0"/>
      </contour>
      <contour>
        <pt x="365" y="596" on="1"/>
        <pt x="272" y="596" on="0"/>
        <pt x="162" y="419" on="0"/>
        <pt x="162" y="290" on="1"/>
        <pt x="162" y="245" on="0"/>
        <pt x="178" y="167" on="0"/>
        <pt x="210" y="103" on="0"/>
        <pt x="267" y="66" on="0"/>
        <pt x="305" y="66" on="1"/>
        <pt x="370" y="66" on="0"/>
        <pt x="465" y="157" on="0"/>
        <pt x="509" y="296" on="0"/>
        <pt x="509" y="378" on="1"/>
        <pt x="509" y="472" on="0"/>
        <pt x="439" y="596" on="0"/>
      </contour>
    </TTGlyph>
    <TTGlyph name="OE" xMin="46" yMin="-10" xMax="870" yMax="673">
      <contour>
        <pt x="162" y="291" on="1"/>
        <pt x="162" y="176" on="0"/>
        <pt x="239" y="67" on="0"/>
        <pt x="317" y="67" on="1"/>
        <pt x="373" y="67" on="0"/>
        <pt x="441" y="87" on="1"/>
        <pt x="444" y="115" on="0"/>
        <pt x="496" y="496" on="0"/>
        <pt x="501" y="573" on="1"/>
        <pt x="451" y="595" on="0"/>
        <pt x="382" y="595" on="1"/>
        <pt x="280" y="595" on="0"/>
        <pt x="162" y="433" on="0"/>
      </contour>
      <contour>
        <pt x="848" y="564" on="1"/>
        <pt x="806" y="585" on="0"/>
        <pt x="700" y="585" on="1"/>
        <pt x="659" y="585" on="0"/>
        <pt x="611" y="582" on="1"/>
        <pt x="609" y="534" on="0"/>
        <pt x="589" y="394" on="1"/>
        <pt x="718" y="394" on="0"/>
        <pt x="748" y="398" on="1"/>
        <pt x="750" y="384" on="0"/>
        <pt x="750" y="370" on="1"/>
        <pt x="750" y="319" on="0"/>
        <pt x="708" y="316" on="1"/>
        <pt x="686" y="315" on="0"/>
        <pt x="578" y="315" on="1"/>
        <pt x="552" y="103" on="0"/>
        <pt x="552" y="77" on="1"/>
        <pt x="578" y="75" on="0"/>
        <pt x="602" y="75" on="1"/>
        <pt x="652" y="75" on="0"/>
        <pt x="754" y="89" on="0"/>
        <pt x="770" y="99" on="1"/>
        <pt x="783" y="63" on="0"/>
        <pt x="783" y="40" on="1"/>
        <pt x="783" y="11" on="0"/>
        <pt x="716" y="-3" on="0"/>
        <pt x="622" y="-3" on="1"/>
        <pt x="503" y="-3" on="0"/>
        <pt x="475" y="-1" on="1"/>
        <pt x="450" y="0" on="0"/>
        <pt x="441" y="13" on="1"/>
        <pt x="365" y="-10" on="0"/>
        <pt x="308" y="-10" on="1"/>
        <pt x="190" y="-10" on="0"/>
        <pt x="46" y="121" on="0"/>
        <pt x="46" y="264" on="1"/>
        <pt x="46" y="450" on="0"/>
        <pt x="239" y="673" on="0"/>
        <pt x="392" y="673" on="1"/>
        <pt x="435" y="673" on="0"/>
        <pt x="504" y="653" on="1"/>
        <pt x="641" y="665" on="0"/>
        <pt x="713" y="665" on="1"/>
        <pt x="849" y="665" on="0"/>
        <pt x="865" y="650" on="1"/>
        <pt x="870" y="639" on="0"/>
        <pt x="870" y="622" on="1"/>
        <pt x="870" y="592" on="0"/>
      </contour>
    </TTGlyph>
    <TTGlyph name="Oacute" xMin="46" yMin="-10" xMax="627" yMax="899">
      <contour>
        <pt x="502" y="801" on="1"/>
        <pt x="477" y="787" on="0"/>
        <pt x="346" y="727" on="0"/>
        <pt x="331" y="715" on="1"/>
        <pt x="307" y="739" on="0"/>
        <pt x="307" y="758" on="1"/>
        <pt x="307" y="778" on="0"/>
        <pt x="330" y="790" on="1"/>
        <pt x="358" y="803" on="0"/>
        <pt x="471" y="873" on="0"/>
        <pt x="500" y="899" on="1"/>
        <pt x="533" y="882" on="0"/>
        <pt x="533" y="848" on="1"/>
        <pt x="533" y="819" on="0"/>
      </contour>
      <contour>
        <pt x="290" y="-10" on="1"/>
        <pt x="175" y="-10" on="0"/>
        <pt x="46" y="137" on="0"/>
        <pt x="46" y="263" on="1"/>
        <pt x="46" y="438" on="0"/>
        <pt x="232" y="674" on="0"/>
        <pt x="379" y="674" on="1"/>
        <pt x="496" y="674" on="0"/>
        <pt x="627" y="529" on="0"/>
        <pt x="627" y="402" on="1"/>
        <pt x="627" y="230" on="0"/>
        <pt x="441" y="-10" on="0"/>
      </contour>
      <contour>
        <pt x="365" y="596" on="1"/>
        <pt x="272" y="596" on="0"/>
        <pt x="162" y="419" on="0"/>
        <pt x="162" y="290" on="1"/>
        <pt x="162" y="245" on="0"/>
        <pt x="178" y="167" on="0"/>
        <pt x="210" y="103" on="0"/>
        <pt x="267" y="66" on="0"/>
        <pt x="305" y="66" on="1"/>
        <pt x="370" y="66" on="0"/>
        <pt x="465" y="157" on="0"/>
        <pt x="509" y="296" on="0"/>
        <pt x="509" y="378" on="1"/>
        <pt x="509" y="472" on="0"/>
        <pt x="439" y="596" on="0"/>
      </contour>
    </TTGlyph>
    <TTGlyph name="Ocircumflex" xMin="46" yMin="-10" xMax="627" yMax="892">
      <contour>
        <pt x="523" y="758" on="1"/>
        <pt x="523" y="727" on="0"/>
        <pt x="480" y="709" on="1"/>
        <pt x="466" y="730" on="0"/>
        <pt x="421" y="773" on="0"/>
        <pt x="406" y="784" on="1"/>
        <pt x="391" y="796" on="1"/>
        <pt x="294" y="721" on="0"/>
        <pt x="266" y="721" on="1"/>
        <pt x="246" y="721" on="0"/>
        <pt x="236" y="747" on="1"/>
        <pt x="332" y="845" on="0"/>
        <pt x="405" y="892" on="1"/>
        <pt x="523" y="800" on="0"/>
      </contour>
      <contour>
        <pt x="290" y="-10" on="1"/>
        <pt x="175" y="-10" on="0"/>
        <pt x="46" y="137" on="0"/>
        <pt x="46" y="263" on="1"/>
        <pt x="46" y="438" on="0"/>
        <pt x="232" y="674" on="0"/>
        <pt x="379" y="674" on="1"/>
        <pt x="496" y="674" on="0"/>
        <pt x="627" y="529" on="0"/>
        <pt x="627" y="402" on="1"/>
        <pt x="627" y="230" on="0"/>
        <pt x="441" y="-10" on="0"/>
      </contour>
      <contour>
        <pt x="365" y="596" on="1"/>
        <pt x="272" y="596" on="0"/>
        <pt x="162" y="419" on="0"/>
        <pt x="162" y="290" on="1"/>
        <pt x="162" y="245" on="0"/>
        <pt x="178" y="167" on="0"/>
        <pt x="210" y="103" on="0"/>
        <pt x="267" y="66" on="0"/>
        <pt x="305" y="66" on="1"/>
        <pt x="370" y="66" on="0"/>
        <pt x="465" y="157" on="0"/>
        <pt x="509" y="296" on="0"/>
        <pt x="509" y="378" on="1"/>
        <pt x="509" y="472" on="0"/>
        <pt x="439" y="596" on="0"/>
      </contour>
    </TTGlyph>
    <TTGlyph name="Odieresis" xMin="46" yMin="-10" xMax="627" yMax="860">
      <contour>
        <pt x="290" y="-10" on="1"/>
        <pt x="175" y="-10" on="0"/>
        <pt x="46" y="137" on="0"/>
        <pt x="46" y="263" on="1"/>
        <pt x="46" y="438" on="0"/>
        <pt x="232" y="674" on="0"/>
        <pt x="379" y="674" on="1"/>
        <pt x="496" y="674" on="0"/>
        <pt x="627" y="529" on="0"/>
        <pt x="627" y="402" on="1"/>
        <pt x="627" y="230" on="0"/>
        <pt x="441" y="-10" on="0"/>
      </contour>
      <contour>
        <pt x="365" y="596" on="1"/>
        <pt x="272" y="596" on="0"/>
        <pt x="162" y="419" on="0"/>
        <pt x="162" y="290" on="1"/>
        <pt x="162" y="245" on="0"/>
        <pt x="178" y="167" on="0"/>
        <pt x="210" y="103" on="0"/>
        <pt x="267" y="66" on="0"/>
        <pt x="305" y="66" on="1"/>
        <pt x="370" y="66" on="0"/>
        <pt x="465" y="157" on="0"/>
        <pt x="509" y="296" on="0"/>
        <pt x="509" y="378" on="1"/>
        <pt x="509" y="472" on="0"/>
        <pt x="439" y="596" on="0"/>
      </contour>
      <contour>
        <pt x="476" y="721" on="1"/>
        <pt x="451" y="721" on="0"/>
        <pt x="420" y="754" on="0"/>
        <pt x="420" y="782" on="1"/>
        <pt x="420" y="814" on="0"/>
        <pt x="464" y="860" on="0"/>
        <pt x="493" y="860" on="1"/>
        <pt x="516" y="860" on="0"/>
        <pt x="549" y="823" on="0"/>
        <pt x="549" y="796" on="1"/>
        <pt x="549" y="765" on="0"/>
        <pt x="502" y="721" on="0"/>
      </contour>
      <contour>
        <pt x="303" y="721" on="1"/>
        <pt x="278" y="721" on="0"/>
        <pt x="247" y="754" on="0"/>
        <pt x="247" y="782" on="1"/>
        <pt x="247" y="814" on="0"/>
        <pt x="291" y="860" on="0"/>
        <pt x="320" y="860" on="1"/>
        <pt x="343" y="860" on="0"/>
        <pt x="376" y="823" on="0"/>
        <pt x="376" y="796" on="1"/>
        <pt x="376" y="765" on="0"/>
        <pt x="329" y="721" on="0"/>
      </contour>
    </TTGlyph>
    <TTGlyph name="Ograve" xMin="46" yMin="-10" xMax="627" yMax="920">
      <contour>
        <pt x="250" y="823" on="1"/>
        <pt x="223" y="840" on="0"/>
        <pt x="223" y="866" on="1"/>
        <pt x="223" y="902" on="0"/>
        <pt x="264" y="920" on="1"/>
        <pt x="309" y="863" on="0"/>
        <pt x="410" y="790" on="1"/>
        <pt x="429" y="777" on="0"/>
        <pt x="429" y="756" on="1"/>
        <pt x="429" y="731" on="0"/>
        <pt x="410" y="714" on="1"/>
        <pt x="397" y="726" on="0"/>
        <pt x="275" y="804" on="0"/>
      </contour>
      <contour>
        <pt x="290" y="-10" on="1"/>
        <pt x="175" y="-10" on="0"/>
        <pt x="46" y="137" on="0"/>
        <pt x="46" y="263" on="1"/>
        <pt x="46" y="438" on="0"/>
        <pt x="232" y="674" on="0"/>
        <pt x="379" y="674" on="1"/>
        <pt x="496" y="674" on="0"/>
        <pt x="627" y="529" on="0"/>
        <pt x="627" y="402" on="1"/>
        <pt x="627" y="230" on="0"/>
        <pt x="441" y="-10" on="0"/>
      </contour>
      <contour>
        <pt x="365" y="596" on="1"/>
        <pt x="272" y="596" on="0"/>
        <pt x="162" y="419" on="0"/>
        <pt x="162" y="290" on="1"/>
        <pt x="162" y="245" on="0"/>
        <pt x="178" y="167" on="0"/>
        <pt x="210" y="103" on="0"/>
        <pt x="267" y="66" on="0"/>
        <pt x="305" y="66" on="1"/>
        <pt x="370" y="66" on="0"/>
        <pt x="465" y="157" on="0"/>
        <pt x="509" y="296" on="0"/>
        <pt x="509" y="378" on="1"/>
        <pt x="509" y="472" on="0"/>
        <pt x="439" y="596" on="0"/>
      </contour>
    </TTGlyph>
    <TTGlyph name="Omega" xMin="38" yMin="0" xMax="801" yMax="677">
      <contour>
        <pt x="479" y="609" on="1"/>
        <pt x="374" y="609" on="0"/>
        <pt x="242" y="430" on="0"/>
        <pt x="242" y="310" on="1"/>
        <pt x="242" y="176" on="0"/>
        <pt x="359" y="98" on="1"/>
        <pt x="359" y="74" on="0"/>
        <pt x="357" y="64" on="1"/>
        <pt x="345" y="0" on="0"/>
        <pt x="277" y="0" on="1"/>
        <pt x="45" y="0" on="1"/>
        <pt x="38" y="82" on="0"/>
        <pt x="38" y="131" on="1"/>
        <pt x="38" y="143" on="0"/>
        <pt x="39" y="154" on="0"/>
        <pt x="46" y="168" on="0"/>
        <pt x="61" y="174" on="0"/>
        <pt x="74" y="174" on="1"/>
        <pt x="83" y="174" on="0"/>
        <pt x="94" y="170" on="1"/>
        <pt x="112" y="110" on="0"/>
        <pt x="133" y="73" on="1"/>
        <pt x="271" y="73" on="1"/>
        <pt x="131" y="170" on="0"/>
        <pt x="131" y="321" on="1"/>
        <pt x="131" y="469" on="0"/>
        <pt x="342" y="677" on="0"/>
        <pt x="486" y="677" on="1"/>
        <pt x="611" y="677" on="0"/>
        <pt x="770" y="536" on="0"/>
        <pt x="770" y="419" on="1"/>
        <pt x="770" y="309" on="0"/>
        <pt x="645" y="131" on="0"/>
        <pt x="545" y="73" on="1"/>
        <pt x="684" y="73" on="1"/>
        <pt x="704" y="95" on="0"/>
        <pt x="749" y="170" on="1"/>
        <pt x="761" y="174" on="0"/>
        <pt x="770" y="174" on="1"/>
        <pt x="801" y="174" on="0"/>
        <pt x="801" y="153" on="1"/>
        <pt x="801" y="145" on="0"/>
        <pt x="782" y="85" on="0"/>
        <pt x="756" y="10" on="0"/>
        <pt x="753" y="0" on="1"/>
        <pt x="522" y="0" on="1"/>
        <pt x="456" y="0" on="0"/>
        <pt x="456" y="52" on="1"/>
        <pt x="456" y="72" on="0"/>
        <pt x="466" y="99" on="1"/>
        <pt x="655" y="205" on="0"/>
        <pt x="655" y="411" on="1"/>
        <pt x="655" y="503" on="0"/>
        <pt x="565" y="609" on="0"/>
      </contour>
    </TTGlyph>
    <TTGlyph name="Oslash" xMin="46" yMin="-83" xMax="627" yMax="744">
      <contour>
        <pt x="509" y="378" on="1"/>
        <pt x="509" y="438" on="0"/>
        <pt x="494" y="488" on="1"/>
        <pt x="325" y="228" on="0"/>
        <pt x="234" y="87" on="1"/>
        <pt x="265" y="66" on="0"/>
        <pt x="305" y="66" on="1"/>
        <pt x="370" y="66" on="0"/>
        <pt x="465" y="157" on="0"/>
        <pt x="509" y="296" on="0"/>
      </contour>
      <contour>
        <pt x="365" y="596" on="1"/>
        <pt x="272" y="596" on="0"/>
        <pt x="162" y="419" on="0"/>
        <pt x="162" y="290" on="1"/>
        <pt x="162" y="208" on="0"/>
        <pt x="185" y="152" on="1"/>
        <pt x="422" y="516" on="0"/>
        <pt x="451" y="562" on="1"/>
        <pt x="417" y="596" on="0"/>
      </contour>
      <contour>
        <pt x="504" y="645" on="1"/>
        <pt x="564" y="744" on="1"/>
        <pt x="591" y="742" on="0"/>
        <pt x="627" y="722" on="0"/>
        <pt x="627" y="706" on="1"/>
        <pt x="627" y="696" on="0"/>
        <pt x="564" y="598" on="1"/>
        <pt x="627" y="526" on="0"/>
        <pt x="627" y="402" on="1"/>
        <pt x="627" y="230" on="0"/>
        <pt x="441" y="-10" on="0"/>
        <pt x="290" y="-10" on="1"/>
        <pt x="232" y="-10" on="0"/>
        <pt x="184" y="10" on="1"/>
        <pt x="141" y="-61" on="0"/>
        <pt x="129" y="-83" on="1"/>
        <pt x="100" y="-81" on="0"/>
        <pt x="66" y="-61" on="0"/>
        <pt x="66" y="-45" on="1"/>
        <pt x="66" y="-42" on="0"/>
        <pt x="68" y="-34" on="0"/>
        <pt x="73" y="-24" on="0"/>
        <pt x="79" y="-14" on="0"/>
        <pt x="90" y="3" on="0"/>
        <pt x="99" y="17" on="0"/>
        <pt x="116" y="42" on="0"/>
        <pt x="122" y="52" on="1"/>
        <pt x="46" y="125" on="0"/>
        <pt x="46" y="263" on="1"/>
        <pt x="46" y="438" on="0"/>
        <pt x="232" y="674" on="0"/>
        <pt x="379" y="674" on="1"/>
        <pt x="451" y="674" on="0"/>
      </contour>
    </TTGlyph>
    <TTGlyph name="Otilde" xMin="46" yMin="-10" xMax="627" yMax="838">
      <contour>
        <pt x="290" y="-10" on="1"/>
        <pt x="175" y="-10" on="0"/>
        <pt x="46" y="137" on="0"/>
        <pt x="46" y="263" on="1"/>
        <pt x="46" y="438" on="0"/>
        <pt x="232" y="674" on="0"/>
        <pt x="379" y="674" on="1"/>
        <pt x="496" y="674" on="0"/>
        <pt x="627" y="529" on="0"/>
        <pt x="627" y="402" on="1"/>
        <pt x="627" y="230" on="0"/>
        <pt x="441" y="-10" on="0"/>
      </contour>
      <contour>
        <pt x="365" y="596" on="1"/>
        <pt x="272" y="596" on="0"/>
        <pt x="162" y="419" on="0"/>
        <pt x="162" y="290" on="1"/>
        <pt x="162" y="245" on="0"/>
        <pt x="178" y="167" on="0"/>
        <pt x="210" y="103" on="0"/>
        <pt x="267" y="66" on="0"/>
        <pt x="305" y="66" on="1"/>
        <pt x="370" y="66" on="0"/>
        <pt x="465" y="157" on="0"/>
        <pt x="509" y="296" on="0"/>
        <pt x="509" y="378" on="1"/>
        <pt x="509" y="472" on="0"/>
        <pt x="439" y="596" on="0"/>
      </contour>
      <contour>
        <pt x="541" y="810" on="1"/>
        <pt x="541" y="777" on="0"/>
        <pt x="460" y="720" on="0"/>
        <pt x="422" y="720" on="1"/>
        <pt x="393" y="720" on="0"/>
        <pt x="324" y="764" on="0"/>
        <pt x="317" y="764" on="1"/>
        <pt x="302" y="764" on="0"/>
        <pt x="259" y="718" on="1"/>
        <pt x="231" y="732" on="0"/>
        <pt x="231" y="756" on="1"/>
        <pt x="235" y="785" on="0"/>
        <pt x="309" y="837" on="0"/>
        <pt x="350" y="837" on="1"/>
        <pt x="374" y="837" on="0"/>
        <pt x="443" y="793" on="0"/>
        <pt x="454" y="793" on="1"/>
        <pt x="472" y="793" on="0"/>
        <pt x="511" y="838" on="1"/>
        <pt x="541" y="830" on="0"/>
      </contour>
    </TTGlyph>
    <TTGlyph name="P" xMin="57" yMin="-3" xMax="504" yMax="673">
      <contour>
        <pt x="267" y="312" on="1"/>
        <pt x="327" y="312" on="0"/>
        <pt x="389" y="410" on="0"/>
        <pt x="389" y="487" on="1"/>
        <pt x="389" y="549" on="0"/>
        <pt x="334" y="596" on="0"/>
        <pt x="283" y="596" on="1"/>
        <pt x="255" y="596" on="0"/>
        <pt x="232" y="592" on="1"/>
        <pt x="225" y="501" on="0"/>
        <pt x="202" y="337" on="1"/>
        <pt x="232" y="312" on="0"/>
      </contour>
      <contour>
        <pt x="83" y="231" on="1"/>
        <pt x="108" y="431" on="1"/>
        <pt x="126" y="586" on="0"/>
        <pt x="126" y="661" on="1"/>
        <pt x="196" y="673" on="0"/>
        <pt x="273" y="673" on="1"/>
        <pt x="504" y="673" on="0"/>
        <pt x="504" y="493" on="1"/>
        <pt x="504" y="374" on="0"/>
        <pt x="374" y="235" on="0"/>
        <pt x="291" y="235" on="1"/>
        <pt x="231" y="235" on="0"/>
        <pt x="193" y="267" on="1"/>
        <pt x="173" y="118" on="0"/>
        <pt x="173" y="61" on="1"/>
        <pt x="173" y="29" on="0"/>
        <pt x="177" y="5" on="1"/>
        <pt x="153" y="-3" on="0"/>
        <pt x="113" y="-3" on="1"/>
        <pt x="57" y="-3" on="0"/>
        <pt x="57" y="39" on="1"/>
        <pt x="57" y="48" on="0"/>
        <pt x="66" y="111" on="0"/>
        <pt x="80" y="204" on="0"/>
      </contour>
    </TTGlyph>
    <TTGlyph name="Q" xMin="46" yMin="-206" xMax="722" yMax="674">
      <contour>
        <pt x="365" y="596" on="1"/>
        <pt x="272" y="596" on="0"/>
        <pt x="162" y="419" on="0"/>
        <pt x="162" y="290" on="1"/>
        <pt x="162" y="245" on="0"/>
        <pt x="178" y="167" on="0"/>
        <pt x="210" y="103" on="0"/>
        <pt x="267" y="66" on="0"/>
        <pt x="305" y="66" on="1"/>
        <pt x="370" y="66" on="0"/>
        <pt x="465" y="157" on="0"/>
        <pt x="509" y="296" on="0"/>
        <pt x="509" y="378" on="1"/>
        <pt x="509" y="472" on="0"/>
        <pt x="439" y="596" on="0"/>
      </contour>
      <contour>
        <pt x="660" y="-43" on="1"/>
        <pt x="722" y="-61" on="0"/>
        <pt x="722" y="-109" on="1"/>
        <pt x="722" y="-142" on="0"/>
        <pt x="667" y="-188" on="0"/>
        <pt x="595" y="-206" on="0"/>
        <pt x="558" y="-206" on="1"/>
        <pt x="451" y="-206" on="0"/>
        <pt x="273" y="-106" on="0"/>
        <pt x="246" y="-7" on="1"/>
        <pt x="151" y="6" on="0"/>
        <pt x="46" y="149" on="0"/>
        <pt x="46" y="263" on="1"/>
        <pt x="46" y="438" on="0"/>
        <pt x="232" y="674" on="0"/>
        <pt x="379" y="674" on="1"/>
        <pt x="496" y="674" on="0"/>
        <pt x="627" y="529" on="0"/>
        <pt x="627" y="402" on="1"/>
        <pt x="627" y="245" on="0"/>
        <pt x="471" y="15" on="0"/>
        <pt x="340" y="-6" on="1"/>
        <pt x="359" y="-61" on="0"/>
        <pt x="463" y="-126" on="0"/>
        <pt x="526" y="-126" on="1"/>
        <pt x="626" y="-126" on="0"/>
      </contour>
    </TTGlyph>
    <TTGlyph name="Q_alt" xMin="46" yMin="-226" xMax="627" yMax="674">
      <contour>
        <pt x="365" y="596" on="1"/>
        <pt x="272" y="596" on="0"/>
        <pt x="162" y="419" on="0"/>
        <pt x="162" y="290" on="1"/>
        <pt x="162" y="245" on="0"/>
        <pt x="178" y="167" on="0"/>
        <pt x="210" y="103" on="0"/>
        <pt x="267" y="66" on="0"/>
        <pt x="305" y="66" on="1"/>
        <pt x="370" y="66" on="0"/>
        <pt x="465" y="157" on="0"/>
        <pt x="509" y="296" on="0"/>
        <pt x="509" y="378" on="1"/>
        <pt x="509" y="472" on="0"/>
        <pt x="439" y="596" on="0"/>
      </contour>
      <contour>
        <pt x="570" y="-95" on="1"/>
        <pt x="599" y="-124" on="0"/>
        <pt x="599" y="-155" on="1"/>
        <pt x="599" y="-191" on="0"/>
        <pt x="534" y="-226" on="0"/>
        <pt x="492" y="-226" on="1"/>
        <pt x="402" y="-226" on="0"/>
        <pt x="268" y="-114" on="0"/>
        <pt x="246" y="-7" on="1"/>
        <pt x="151" y="6" on="0"/>
        <pt x="46" y="149" on="0"/>
        <pt x="46" y="263" on="1"/>
        <pt x="46" y="438" on="0"/>
        <pt x="232" y="674" on="0"/>
        <pt x="379" y="674" on="1"/>
        <pt x="496" y="674" on="0"/>
        <pt x="627" y="529" on="0"/>
        <pt x="627" y="402" on="1"/>
        <pt x="627" y="245" on="0"/>
        <pt x="471" y="15" on="0"/>
        <pt x="340" y="-6" on="1"/>
        <pt x="354" y="-69" on="0"/>
        <pt x="433" y="-135" on="0"/>
        <pt x="489" y="-135" on="1"/>
        <pt x="530" y="-135" on="0"/>
      </contour>
    </TTGlyph>
    <TTGlyph name="R" xMin="57" yMin="-10" xMax="512" yMax="673">
      <contour>
        <pt x="401" y="123" on="0"/>
        <pt x="437" y="71" on="0"/>
        <pt x="480" y="71" on="1"/>
        <pt x="500" y="71" on="0"/>
        <pt x="508" y="74" on="1"/>
        <pt x="512" y="56" on="0"/>
        <pt x="512" y="42" on="1"/>
        <pt x="512" y="-10" on="0"/>
        <pt x="433" y="-10" on="1"/>
        <pt x="365" y="-10" on="0"/>
        <pt x="333" y="47" on="1"/>
        <pt x="287" y="128" on="0"/>
        <pt x="236" y="271" on="1"/>
        <pt x="219" y="277" on="0"/>
        <pt x="219" y="294" on="1"/>
        <pt x="219" y="314" on="0"/>
        <pt x="236" y="334" on="1"/>
        <pt x="244" y="330" on="0"/>
        <pt x="258" y="330" on="1"/>
        <pt x="293" y="330" on="0"/>
        <pt x="324" y="347" on="1"/>
        <pt x="389" y="384" on="0"/>
        <pt x="389" y="489" on="1"/>
        <pt x="389" y="553" on="0"/>
        <pt x="340" y="596" on="0"/>
        <pt x="286" y="596" on="1"/>
        <pt x="253" y="596" on="0"/>
        <pt x="232" y="592" on="1"/>
        <pt x="227" y="504" on="0"/>
        <pt x="215" y="418" on="1"/>
        <pt x="185" y="198" on="1"/>
        <pt x="173" y="110" on="0"/>
        <pt x="173" y="60" on="1"/>
        <pt x="173" y="29" on="0"/>
        <pt x="177" y="5" on="1"/>
        <pt x="153" y="-3" on="0"/>
        <pt x="113" y="-3" on="1"/>
        <pt x="57" y="-3" on="0"/>
        <pt x="57" y="39" on="1"/>
        <pt x="57" y="49" on="0"/>
        <pt x="66" y="112" on="0"/>
        <pt x="80" y="204" on="0"/>
        <pt x="83" y="231" on="1"/>
        <pt x="108" y="431" on="1"/>
        <pt x="126" y="577" on="0"/>
        <pt x="126" y="661" on="1"/>
        <pt x="196" y="673" on="0"/>
        <pt x="274" y="673" on="1"/>
        <pt x="373" y="673" on="0"/>
        <pt x="504" y="593" on="0"/>
        <pt x="504" y="500" on="1"/>
        <pt x="504" y="413" on="0"/>
        <pt x="410" y="289" on="0"/>
        <pt x="336" y="272" on="1"/>
        <pt x="351" y="229" on="0"/>
      </contour>
    </TTGlyph>
    <TTGlyph name="S" xMin="24" yMin="-10" xMax="479" yMax="671">
      <contour>
        <pt x="404" y="523" on="1"/>
        <pt x="395" y="551" on="0"/>
        <pt x="337" y="591" on="0"/>
        <pt x="304" y="591" on="1"/>
        <pt x="257" y="591" on="0"/>
        <pt x="190" y="531" on="0"/>
        <pt x="190" y="476" on="1"/>
        <pt x="190" y="441" on="0"/>
        <pt x="236" y="403" on="0"/>
        <pt x="280" y="387" on="1"/>
        <pt x="286" y="385" on="0"/>
        <pt x="337" y="367" on="0"/>
        <pt x="355" y="359" on="0"/>
        <pt x="396" y="338" on="0"/>
        <pt x="413" y="319" on="0"/>
        <pt x="436" y="289" on="0"/>
        <pt x="445" y="251" on="0"/>
        <pt x="445" y="227" on="1"/>
        <pt x="445" y="115" on="0"/>
        <pt x="312" y="-10" on="0"/>
        <pt x="201" y="-10" on="1"/>
        <pt x="131" y="-10" on="0"/>
        <pt x="24" y="41" on="0"/>
        <pt x="24" y="76" on="1"/>
        <pt x="24" y="123" on="0"/>
        <pt x="88" y="147" on="1"/>
        <pt x="99" y="114" on="0"/>
        <pt x="172" y="68" on="0"/>
        <pt x="210" y="68" on="1"/>
        <pt x="262" y="68" on="0"/>
        <pt x="340" y="135" on="0"/>
        <pt x="340" y="195" on="1"/>
        <pt x="340" y="232" on="0"/>
        <pt x="292" y="268" on="0"/>
        <pt x="246" y="282" on="1"/>
        <pt x="214" y="291" on="0"/>
        <pt x="185" y="301" on="0"/>
        <pt x="131" y="330" on="0"/>
        <pt x="106" y="361" on="0"/>
        <pt x="84" y="417" on="0"/>
        <pt x="84" y="453" on="1"/>
        <pt x="84" y="555" on="0"/>
        <pt x="219" y="671" on="0"/>
        <pt x="321" y="671" on="1"/>
        <pt x="379" y="671" on="0"/>
        <pt x="479" y="627" on="0"/>
        <pt x="479" y="588" on="1"/>
        <pt x="479" y="564" on="0"/>
        <pt x="442" y="527" on="0"/>
      </contour>
    </TTGlyph>
    <TTGlyph name="Scaron" xMin="24" yMin="-10" xMax="479" yMax="892">
      <contour>
        <pt x="305" y="805" on="1"/>
        <pt x="402" y="880" on="0"/>
        <pt x="430" y="880" on="1"/>
        <pt x="451" y="880" on="0"/>
        <pt x="467" y="854" on="1"/>
        <pt x="378" y="765" on="0"/>
        <pt x="291" y="709" on="1"/>
        <pt x="173" y="801" on="0"/>
        <pt x="173" y="843" on="1"/>
        <pt x="173" y="869" on="0"/>
        <pt x="216" y="892" on="1"/>
        <pt x="230" y="871" on="0"/>
        <pt x="275" y="828" on="0"/>
        <pt x="290" y="816" on="1"/>
      </contour>
      <contour>
        <pt x="404" y="523" on="1"/>
        <pt x="395" y="551" on="0"/>
        <pt x="337" y="591" on="0"/>
        <pt x="304" y="591" on="1"/>
        <pt x="257" y="591" on="0"/>
        <pt x="190" y="531" on="0"/>
        <pt x="190" y="476" on="1"/>
        <pt x="190" y="441" on="0"/>
        <pt x="236" y="403" on="0"/>
        <pt x="280" y="387" on="1"/>
        <pt x="286" y="385" on="0"/>
        <pt x="337" y="367" on="0"/>
        <pt x="355" y="359" on="0"/>
        <pt x="396" y="338" on="0"/>
        <pt x="413" y="319" on="0"/>
        <pt x="436" y="289" on="0"/>
        <pt x="445" y="251" on="0"/>
        <pt x="445" y="227" on="1"/>
        <pt x="445" y="115" on="0"/>
        <pt x="312" y="-10" on="0"/>
        <pt x="201" y="-10" on="1"/>
        <pt x="131" y="-10" on="0"/>
        <pt x="24" y="41" on="0"/>
        <pt x="24" y="76" on="1"/>
        <pt x="24" y="123" on="0"/>
        <pt x="88" y="147" on="1"/>
        <pt x="99" y="114" on="0"/>
        <pt x="172" y="68" on="0"/>
        <pt x="210" y="68" on="1"/>
        <pt x="262" y="68" on="0"/>
        <pt x="340" y="135" on="0"/>
        <pt x="340" y="195" on="1"/>
        <pt x="340" y="232" on="0"/>
        <pt x="292" y="268" on="0"/>
        <pt x="246" y="282" on="1"/>
        <pt x="214" y="291" on="0"/>
        <pt x="185" y="301" on="0"/>
        <pt x="131" y="330" on="0"/>
        <pt x="106" y="361" on="0"/>
        <pt x="84" y="417" on="0"/>
        <pt x="84" y="453" on="1"/>
        <pt x="84" y="555" on="0"/>
        <pt x="219" y="671" on="0"/>
        <pt x="321" y="671" on="1"/>
        <pt x="379" y="671" on="0"/>
        <pt x="479" y="627" on="0"/>
        <pt x="479" y="588" on="1"/>
        <pt x="479" y="564" on="0"/>
        <pt x="442" y="527" on="0"/>
      </contour>
    </TTGlyph>
    <TTGlyph name="T" xMin="43" yMin="-3" xMax="486" yMax="664">
      <contour>
        <pt x="438" y="590" on="1"/>
        <pt x="412" y="589" on="0"/>
        <pt x="317" y="589" on="1"/>
        <pt x="300" y="492" on="0"/>
        <pt x="289" y="404" on="1"/>
        <pt x="263" y="203" on="1"/>
        <pt x="251" y="115" on="0"/>
        <pt x="251" y="66" on="1"/>
        <pt x="251" y="32" on="0"/>
        <pt x="255" y="5" on="1"/>
        <pt x="231" y="-3" on="0"/>
        <pt x="193" y="-3" on="1"/>
        <pt x="135" y="-3" on="0"/>
        <pt x="135" y="39" on="1"/>
        <pt x="135" y="46" on="0"/>
        <pt x="145" y="119" on="0"/>
        <pt x="172" y="318" on="0"/>
        <pt x="186" y="431" on="1"/>
        <pt x="198" y="526" on="0"/>
        <pt x="203" y="589" on="1"/>
        <pt x="100" y="589" on="0"/>
        <pt x="44" y="585" on="1"/>
        <pt x="43" y="592" on="0"/>
        <pt x="43" y="603" on="1"/>
        <pt x="43" y="633" on="0"/>
        <pt x="65" y="659" on="0"/>
        <pt x="91" y="660" on="1"/>
        <pt x="116" y="661" on="0"/>
        <pt x="195" y="661" on="1"/>
        <pt x="301" y="661" on="1"/>
        <pt x="450" y="661" on="0"/>
        <pt x="484" y="664" on="1"/>
        <pt x="486" y="652" on="0"/>
        <pt x="486" y="640" on="1"/>
        <pt x="486" y="615" on="0"/>
        <pt x="464" y="592" on="0"/>
      </contour>
    </TTGlyph>
    <TTGlyph name="Thorn" xMin="48" yMin="-4" xMax="481" yMax="666">
      <contour>
        <pt x="224" y="559" on="1"/>
        <pt x="232" y="560" on="0"/>
        <pt x="250" y="560" on="1"/>
        <pt x="481" y="560" on="0"/>
        <pt x="481" y="380" on="1"/>
        <pt x="481" y="261" on="0"/>
        <pt x="351" y="122" on="0"/>
        <pt x="268" y="122" on="1"/>
        <pt x="208" y="122" on="0"/>
        <pt x="170" y="154" on="1"/>
        <pt x="164" y="100" on="0"/>
        <pt x="164" y="60" on="1"/>
        <pt x="164" y="28" on="0"/>
        <pt x="168" y="4" on="1"/>
        <pt x="144" y="-4" on="0"/>
        <pt x="104" y="-4" on="1"/>
        <pt x="48" y="-4" on="0"/>
        <pt x="48" y="38" on="1"/>
        <pt x="48" y="47" on="0"/>
        <pt x="57" y="111" on="0"/>
        <pt x="71" y="201" on="0"/>
        <pt x="74" y="230" on="1"/>
        <pt x="99" y="454" on="1"/>
        <pt x="119" y="630" on="0"/>
        <pt x="119" y="663" on="1"/>
        <pt x="141" y="666" on="0"/>
        <pt x="176" y="666" on="1"/>
        <pt x="234" y="666" on="0"/>
        <pt x="234" y="633" on="1"/>
        <pt x="234" y="625" on="0"/>
      </contour>
      <contour>
        <pt x="212" y="479" on="1"/>
        <pt x="179" y="224" on="1"/>
        <pt x="209" y="199" on="0"/>
        <pt x="244" y="199" on="1"/>
        <pt x="304" y="199" on="0"/>
        <pt x="366" y="297" on="0"/>
        <pt x="366" y="374" on="1"/>
        <pt x="366" y="436" on="0"/>
        <pt x="311" y="483" on="0"/>
        <pt x="260" y="483" on="1"/>
        <pt x="235" y="483" on="0"/>
      </contour>
    </TTGlyph>
    <TTGlyph name="U" xMin="75" yMin="-10" xMax="593" yMax="666">
      <contour>
        <pt x="438" y="290" on="1"/>
        <pt x="476" y="573" on="0"/>
        <pt x="480" y="663" on="1"/>
        <pt x="508" y="666" on="0"/>
        <pt x="533" y="666" on="1"/>
        <pt x="563" y="666" on="0"/>
        <pt x="593" y="648" on="0"/>
        <pt x="593" y="623" on="1"/>
        <pt x="593" y="620" on="0"/>
        <pt x="579" y="539" on="0"/>
        <pt x="549" y="333" on="0"/>
        <pt x="534" y="203" on="1"/>
        <pt x="522" y="93" on="0"/>
        <pt x="522" y="29" on="0"/>
        <pt x="526" y="5" on="1"/>
        <pt x="488" y="-3" on="0"/>
        <pt x="463" y="-3" on="1"/>
        <pt x="407" y="-3" on="0"/>
        <pt x="407" y="49" on="1"/>
        <pt x="407" y="55" on="0"/>
        <pt x="418" y="132" on="1"/>
        <pt x="377" y="64" on="0"/>
        <pt x="265" y="-10" on="0"/>
        <pt x="211" y="-10" on="1"/>
        <pt x="146" y="-10" on="0"/>
        <pt x="75" y="87" on="0"/>
        <pt x="75" y="157" on="1"/>
        <pt x="75" y="182" on="0"/>
        <pt x="125" y="561" on="0"/>
        <pt x="130" y="663" on="1"/>
        <pt x="157" y="666" on="0"/>
        <pt x="181" y="666" on="1"/>
        <pt x="243" y="666" on="0"/>
        <pt x="243" y="624" on="1"/>
        <pt x="243" y="621" on="0"/>
        <pt x="235" y="573" on="0"/>
        <pt x="219" y="477" on="0"/>
        <pt x="212" y="429" on="1"/>
        <pt x="182" y="215" on="0"/>
        <pt x="182" y="180" on="1"/>
        <pt x="182" y="137" on="0"/>
        <pt x="214" y="78" on="0"/>
        <pt x="248" y="78" on="1"/>
        <pt x="296" y="78" on="0"/>
        <pt x="409" y="199" on="0"/>
      </contour>
    </TTGlyph>
    <TTGlyph name="Uacute" xMin="75" yMin="-10" xMax="593" yMax="899">
      <contour>
        <pt x="500" y="801" on="1"/>
        <pt x="475" y="787" on="0"/>
        <pt x="344" y="727" on="0"/>
        <pt x="329" y="715" on="1"/>
        <pt x="305" y="739" on="0"/>
        <pt x="305" y="758" on="1"/>
        <pt x="305" y="778" on="0"/>
        <pt x="328" y="790" on="1"/>
        <pt x="356" y="803" on="0"/>
        <pt x="469" y="873" on="0"/>
        <pt x="498" y="899" on="1"/>
        <pt x="531" y="882" on="0"/>
        <pt x="531" y="848" on="1"/>
        <pt x="531" y="819" on="0"/>
      </contour>
      <contour>
        <pt x="438" y="290" on="1"/>
        <pt x="476" y="573" on="0"/>
        <pt x="480" y="663" on="1"/>
        <pt x="508" y="666" on="0"/>
        <pt x="533" y="666" on="1"/>
        <pt x="563" y="666" on="0"/>
        <pt x="593" y="648" on="0"/>
        <pt x="593" y="623" on="1"/>
        <pt x="593" y="620" on="0"/>
        <pt x="579" y="539" on="0"/>
        <pt x="549" y="333" on="0"/>
        <pt x="534" y="203" on="1"/>
        <pt x="522" y="93" on="0"/>
        <pt x="522" y="29" on="0"/>
        <pt x="526" y="5" on="1"/>
        <pt x="488" y="-3" on="0"/>
        <pt x="463" y="-3" on="1"/>
        <pt x="407" y="-3" on="0"/>
        <pt x="407" y="49" on="1"/>
        <pt x="407" y="55" on="0"/>
        <pt x="418" y="132" on="1"/>
        <pt x="377" y="64" on="0"/>
        <pt x="265" y="-10" on="0"/>
        <pt x="211" y="-10" on="1"/>
        <pt x="146" y="-10" on="0"/>
        <pt x="75" y="87" on="0"/>
        <pt x="75" y="157" on="1"/>
        <pt x="75" y="182" on="0"/>
        <pt x="125" y="561" on="0"/>
        <pt x="130" y="663" on="1"/>
        <pt x="157" y="666" on="0"/>
        <pt x="181" y="666" on="1"/>
        <pt x="243" y="666" on="0"/>
        <pt x="243" y="624" on="1"/>
        <pt x="243" y="621" on="0"/>
        <pt x="235" y="573" on="0"/>
        <pt x="219" y="477" on="0"/>
        <pt x="212" y="429" on="1"/>
        <pt x="182" y="215" on="0"/>
        <pt x="182" y="180" on="1"/>
        <pt x="182" y="137" on="0"/>
        <pt x="214" y="78" on="0"/>
        <pt x="248" y="78" on="1"/>
        <pt x="296" y="78" on="0"/>
        <pt x="409" y="199" on="0"/>
      </contour>
    </TTGlyph>
    <TTGlyph name="Ucircumflex" xMin="75" yMin="-10" xMax="593" yMax="892">
      <contour>
        <pt x="518" y="758" on="1"/>
        <pt x="518" y="727" on="0"/>
        <pt x="475" y="709" on="1"/>
        <pt x="461" y="730" on="0"/>
        <pt x="416" y="773" on="0"/>
        <pt x="401" y="784" on="1"/>
        <pt x="386" y="796" on="1"/>
        <pt x="289" y="721" on="0"/>
        <pt x="261" y="721" on="1"/>
        <pt x="241" y="721" on="0"/>
        <pt x="231" y="747" on="1"/>
        <pt x="327" y="845" on="0"/>
        <pt x="400" y="892" on="1"/>
        <pt x="518" y="800" on="0"/>
      </contour>
      <contour>
        <pt x="438" y="290" on="1"/>
        <pt x="476" y="573" on="0"/>
        <pt x="480" y="663" on="1"/>
        <pt x="508" y="666" on="0"/>
        <pt x="533" y="666" on="1"/>
        <pt x="563" y="666" on="0"/>
        <pt x="593" y="648" on="0"/>
        <pt x="593" y="623" on="1"/>
        <pt x="593" y="620" on="0"/>
        <pt x="579" y="539" on="0"/>
        <pt x="549" y="333" on="0"/>
        <pt x="534" y="203" on="1"/>
        <pt x="522" y="93" on="0"/>
        <pt x="522" y="29" on="0"/>
        <pt x="526" y="5" on="1"/>
        <pt x="488" y="-3" on="0"/>
        <pt x="463" y="-3" on="1"/>
        <pt x="407" y="-3" on="0"/>
        <pt x="407" y="49" on="1"/>
        <pt x="407" y="55" on="0"/>
        <pt x="418" y="132" on="1"/>
        <pt x="377" y="64" on="0"/>
        <pt x="265" y="-10" on="0"/>
        <pt x="211" y="-10" on="1"/>
        <pt x="146" y="-10" on="0"/>
        <pt x="75" y="87" on="0"/>
        <pt x="75" y="157" on="1"/>
        <pt x="75" y="182" on="0"/>
        <pt x="125" y="561" on="0"/>
        <pt x="130" y="663" on="1"/>
        <pt x="157" y="666" on="0"/>
        <pt x="181" y="666" on="1"/>
        <pt x="243" y="666" on="0"/>
        <pt x="243" y="624" on="1"/>
        <pt x="243" y="621" on="0"/>
        <pt x="235" y="573" on="0"/>
        <pt x="219" y="477" on="0"/>
        <pt x="212" y="429" on="1"/>
        <pt x="182" y="215" on="0"/>
        <pt x="182" y="180" on="1"/>
        <pt x="182" y="137" on="0"/>
        <pt x="214" y="78" on="0"/>
        <pt x="248" y="78" on="1"/>
        <pt x="296" y="78" on="0"/>
        <pt x="409" y="199" on="0"/>
      </contour>
    </TTGlyph>
    <TTGlyph name="Udieresis" xMin="75" yMin="-10" xMax="593" yMax="860">
      <contour>
        <pt x="438" y="290" on="1"/>
        <pt x="476" y="573" on="0"/>
        <pt x="480" y="663" on="1"/>
        <pt x="508" y="666" on="0"/>
        <pt x="533" y="666" on="1"/>
        <pt x="563" y="666" on="0"/>
        <pt x="593" y="648" on="0"/>
        <pt x="593" y="623" on="1"/>
        <pt x="593" y="620" on="0"/>
        <pt x="579" y="539" on="0"/>
        <pt x="549" y="333" on="0"/>
        <pt x="534" y="203" on="1"/>
        <pt x="522" y="93" on="0"/>
        <pt x="522" y="29" on="0"/>
        <pt x="526" y="5" on="1"/>
        <pt x="488" y="-3" on="0"/>
        <pt x="463" y="-3" on="1"/>
        <pt x="407" y="-3" on="0"/>
        <pt x="407" y="49" on="1"/>
        <pt x="407" y="55" on="0"/>
        <pt x="418" y="132" on="1"/>
        <pt x="377" y="64" on="0"/>
        <pt x="265" y="-10" on="0"/>
        <pt x="211" y="-10" on="1"/>
        <pt x="146" y="-10" on="0"/>
        <pt x="75" y="87" on="0"/>
        <pt x="75" y="157" on="1"/>
        <pt x="75" y="182" on="0"/>
        <pt x="125" y="561" on="0"/>
        <pt x="130" y="663" on="1"/>
        <pt x="157" y="666" on="0"/>
        <pt x="181" y="666" on="1"/>
        <pt x="243" y="666" on="0"/>
        <pt x="243" y="624" on="1"/>
        <pt x="243" y="621" on="0"/>
        <pt x="235" y="573" on="0"/>
        <pt x="219" y="477" on="0"/>
        <pt x="212" y="429" on="1"/>
        <pt x="182" y="215" on="0"/>
        <pt x="182" y="180" on="1"/>
        <pt x="182" y="137" on="0"/>
        <pt x="214" y="78" on="0"/>
        <pt x="248" y="78" on="1"/>
        <pt x="296" y="78" on="0"/>
        <pt x="409" y="199" on="0"/>
      </contour>
      <contour>
        <pt x="469" y="721" on="1"/>
        <pt x="444" y="721" on="0"/>
        <pt x="413" y="754" on="0"/>
        <pt x="413" y="782" on="1"/>
        <pt x="413" y="814" on="0"/>
        <pt x="457" y="860" on="0"/>
        <pt x="486" y="860" on="1"/>
        <pt x="509" y="860" on="0"/>
        <pt x="542" y="823" on="0"/>
        <pt x="542" y="796" on="1"/>
        <pt x="542" y="765" on="0"/>
        <pt x="495" y="721" on="0"/>
      </contour>
      <contour>
        <pt x="296" y="721" on="1"/>
        <pt x="271" y="721" on="0"/>
        <pt x="240" y="754" on="0"/>
        <pt x="240" y="782" on="1"/>
        <pt x="240" y="814" on="0"/>
        <pt x="284" y="860" on="0"/>
        <pt x="313" y="860" on="1"/>
        <pt x="336" y="860" on="0"/>
        <pt x="369" y="823" on="0"/>
        <pt x="369" y="796" on="1"/>
        <pt x="369" y="765" on="0"/>
        <pt x="322" y="721" on="0"/>
      </contour>
    </TTGlyph>
    <TTGlyph name="Ugrave" xMin="75" yMin="-10" xMax="593" yMax="920">
      <contour>
        <pt x="248" y="823" on="1"/>
        <pt x="221" y="840" on="0"/>
        <pt x="221" y="866" on="1"/>
        <pt x="221" y="902" on="0"/>
        <pt x="262" y="920" on="1"/>
        <pt x="307" y="863" on="0"/>
        <pt x="408" y="790" on="1"/>
        <pt x="427" y="777" on="0"/>
        <pt x="427" y="756" on="1"/>
        <pt x="427" y="731" on="0"/>
        <pt x="408" y="714" on="1"/>
        <pt x="395" y="726" on="0"/>
        <pt x="273" y="804" on="0"/>
      </contour>
      <contour>
        <pt x="438" y="290" on="1"/>
        <pt x="476" y="573" on="0"/>
        <pt x="480" y="663" on="1"/>
        <pt x="508" y="666" on="0"/>
        <pt x="533" y="666" on="1"/>
        <pt x="563" y="666" on="0"/>
        <pt x="593" y="648" on="0"/>
        <pt x="593" y="623" on="1"/>
        <pt x="593" y="620" on="0"/>
        <pt x="579" y="539" on="0"/>
        <pt x="549" y="333" on="0"/>
        <pt x="534" y="203" on="1"/>
        <pt x="522" y="93" on="0"/>
        <pt x="522" y="29" on="0"/>
        <pt x="526" y="5" on="1"/>
        <pt x="488" y="-3" on="0"/>
        <pt x="463" y="-3" on="1"/>
        <pt x="407" y="-3" on="0"/>
        <pt x="407" y="49" on="1"/>
        <pt x="407" y="55" on="0"/>
        <pt x="418" y="132" on="1"/>
        <pt x="377" y="64" on="0"/>
        <pt x="265" y="-10" on="0"/>
        <pt x="211" y="-10" on="1"/>
        <pt x="146" y="-10" on="0"/>
        <pt x="75" y="87" on="0"/>
        <pt x="75" y="157" on="1"/>
        <pt x="75" y="182" on="0"/>
        <pt x="125" y="561" on="0"/>
        <pt x="130" y="663" on="1"/>
        <pt x="157" y="666" on="0"/>
        <pt x="181" y="666" on="1"/>
        <pt x="243" y="666" on="0"/>
        <pt x="243" y="624" on="1"/>
        <pt x="243" y="621" on="0"/>
        <pt x="235" y="573" on="0"/>
        <pt x="219" y="477" on="0"/>
        <pt x="212" y="429" on="1"/>
        <pt x="182" y="215" on="0"/>
        <pt x="182" y="180" on="1"/>
        <pt x="182" y="137" on="0"/>
        <pt x="214" y="78" on="0"/>
        <pt x="248" y="78" on="1"/>
        <pt x="296" y="78" on="0"/>
        <pt x="409" y="199" on="0"/>
      </contour>
    </TTGlyph>
    <TTGlyph name="V" xMin="76" yMin="-10" xMax="576" yMax="674">
      <contour>
        <pt x="109" y="521" on="1"/>
        <pt x="109" y="594" on="0"/>
        <pt x="82" y="650" on="1"/>
        <pt x="127" y="674" on="0"/>
        <pt x="161" y="674" on="1"/>
        <pt x="225" y="674" on="0"/>
        <pt x="225" y="579" on="1"/>
        <pt x="225" y="528" on="0"/>
        <pt x="180" y="255" on="0"/>
        <pt x="180" y="191" on="1"/>
        <pt x="180" y="94" on="0"/>
        <pt x="211" y="54" on="1"/>
        <pt x="274" y="75" on="0"/>
        <pt x="387" y="246" on="0"/>
        <pt x="451" y="457" on="0"/>
        <pt x="451" y="547" on="1"/>
        <pt x="451" y="609" on="0"/>
        <pt x="434" y="653" on="1"/>
        <pt x="476" y="674" on="0"/>
        <pt x="510" y="674" on="1"/>
        <pt x="576" y="674" on="0"/>
        <pt x="576" y="594" on="1"/>
        <pt x="576" y="539" on="0"/>
        <pt x="543" y="386" on="0"/>
        <pt x="476" y="221" on="0"/>
        <pt x="389" y="81" on="0"/>
        <pt x="268" y="-10" on="0"/>
        <pt x="204" y="-10" on="1"/>
        <pt x="169" y="-10" on="0"/>
        <pt x="138" y="1" on="1"/>
        <pt x="76" y="67" on="0"/>
        <pt x="76" y="191" on="1"/>
        <pt x="76" y="255" on="0"/>
        <pt x="109" y="439" on="0"/>
      </contour>
    </TTGlyph>
    <TTGlyph name="W" xMin="76" yMin="-10" xMax="891" yMax="674">
      <contour>
        <pt x="109" y="521" on="1"/>
        <pt x="109" y="594" on="0"/>
        <pt x="82" y="650" on="1"/>
        <pt x="127" y="674" on="0"/>
        <pt x="161" y="674" on="1"/>
        <pt x="225" y="674" on="0"/>
        <pt x="225" y="579" on="1"/>
        <pt x="225" y="528" on="0"/>
        <pt x="180" y="255" on="0"/>
        <pt x="180" y="191" on="1"/>
        <pt x="180" y="94" on="0"/>
        <pt x="211" y="54" on="1"/>
        <pt x="271" y="75" on="0"/>
        <pt x="380" y="246" on="0"/>
        <pt x="441" y="457" on="0"/>
        <pt x="441" y="547" on="1"/>
        <pt x="441" y="609" on="0"/>
        <pt x="424" y="653" on="1"/>
        <pt x="466" y="674" on="0"/>
        <pt x="500" y="674" on="1"/>
        <pt x="566" y="674" on="0"/>
        <pt x="566" y="594" on="1"/>
        <pt x="566" y="472" on="0"/>
        <pt x="502" y="307" on="1"/>
        <pt x="499" y="268" on="0"/>
        <pt x="499" y="230" on="1"/>
        <pt x="499" y="99" on="0"/>
        <pt x="536" y="54" on="1"/>
        <pt x="596" y="75" on="0"/>
        <pt x="705" y="246" on="0"/>
        <pt x="766" y="457" on="0"/>
        <pt x="766" y="547" on="1"/>
        <pt x="766" y="609" on="0"/>
        <pt x="749" y="653" on="1"/>
        <pt x="791" y="674" on="0"/>
        <pt x="825" y="674" on="1"/>
        <pt x="891" y="674" on="0"/>
        <pt x="891" y="594" on="1"/>
        <pt x="891" y="539" on="0"/>
        <pt x="858" y="386" on="0"/>
        <pt x="793" y="221" on="0"/>
        <pt x="708" y="81" on="0"/>
        <pt x="589" y="-10" on="0"/>
        <pt x="527" y="-10" on="1"/>
        <pt x="494" y="-10" on="0"/>
        <pt x="463" y="1" on="1"/>
        <pt x="419" y="47" on="0"/>
        <pt x="406" y="124" on="1"/>
        <pt x="311" y="-10" on="0"/>
        <pt x="202" y="-10" on="1"/>
        <pt x="169" y="-10" on="0"/>
        <pt x="138" y="1" on="1"/>
        <pt x="76" y="67" on="0"/>
        <pt x="76" y="191" on="1"/>
        <pt x="76" y="255" on="0"/>
        <pt x="109" y="439" on="0"/>
      </contour>
    </TTGlyph>
    <TTGlyph name="X" xMin="6" yMin="-10" xMax="548" yMax="674">
      <contour>
        <pt x="240" y="348" on="1"/>
        <pt x="183" y="478" on="0"/>
        <pt x="131" y="564" on="0"/>
        <pt x="81" y="602" on="1"/>
        <pt x="114" y="652" on="0"/>
        <pt x="146" y="668" on="1"/>
        <pt x="158" y="674" on="0"/>
        <pt x="175" y="674" on="1"/>
        <pt x="193" y="674" on="0"/>
        <pt x="233" y="632" on="0"/>
        <pt x="273" y="551" on="0"/>
        <pt x="303" y="482" on="0"/>
        <pt x="322" y="432" on="1"/>
        <pt x="438" y="623" on="0"/>
        <pt x="453" y="674" on="1"/>
        <pt x="548" y="653" on="0"/>
        <pt x="548" y="606" on="1"/>
        <pt x="548" y="557" on="0"/>
        <pt x="354" y="348" on="1"/>
        <pt x="357" y="340" on="0"/>
        <pt x="391" y="257" on="0"/>
        <pt x="404" y="227" on="0"/>
        <pt x="438" y="158" on="0"/>
        <pt x="464" y="122" on="0"/>
        <pt x="504" y="77" on="0"/>
        <pt x="525" y="62" on="1"/>
        <pt x="492" y="12" on="0"/>
        <pt x="460" y="-4" on="1"/>
        <pt x="448" y="-10" on="0"/>
        <pt x="431" y="-10" on="1"/>
        <pt x="421" y="-10" on="0"/>
        <pt x="402" y="0" on="0"/>
        <pt x="382" y="24" on="0"/>
        <pt x="365" y="48" on="0"/>
        <pt x="345" y="88" on="0"/>
        <pt x="330" y="119" on="0"/>
        <pt x="309" y="170" on="0"/>
        <pt x="297" y="201" on="0"/>
        <pt x="276" y="255" on="0"/>
        <pt x="271" y="268" on="1"/>
        <pt x="124" y="64" on="0"/>
        <pt x="99" y="-10" on="1"/>
        <pt x="6" y="10" on="0"/>
        <pt x="6" y="54" on="1"/>
        <pt x="6" y="71" on="0"/>
        <pt x="37" y="125" on="0"/>
        <pt x="101" y="200" on="0"/>
        <pt x="147" y="251" on="0"/>
        <pt x="231" y="339" on="0"/>
      </contour>
    </TTGlyph>
    <TTGlyph name="Y" xMin="47" yMin="-3" xMax="521" yMax="672">
      <contour>
        <pt x="521" y="620" on="1"/>
        <pt x="521" y="587" on="0"/>
        <pt x="341" y="356" on="1"/>
        <pt x="317" y="325" on="0"/>
        <pt x="305" y="309" on="1"/>
        <pt x="291" y="203" on="1"/>
        <pt x="279" y="115" on="0"/>
        <pt x="279" y="66" on="1"/>
        <pt x="279" y="32" on="0"/>
        <pt x="283" y="5" on="1"/>
        <pt x="248" y="-3" on="0"/>
        <pt x="223" y="-3" on="1"/>
        <pt x="164" y="-3" on="0"/>
        <pt x="164" y="49" on="1"/>
        <pt x="164" y="55" on="0"/>
        <pt x="170" y="102" on="0"/>
        <pt x="189" y="241" on="0"/>
        <pt x="199" y="313" on="1"/>
        <pt x="106" y="569" on="0"/>
        <pt x="47" y="619" on="1"/>
        <pt x="93" y="667" on="0"/>
        <pt x="128" y="667" on="1"/>
        <pt x="164" y="667" on="0"/>
        <pt x="181" y="633" on="1"/>
        <pt x="237" y="518" on="0"/>
        <pt x="275" y="395" on="1"/>
        <pt x="413" y="614" on="0"/>
        <pt x="424" y="672" on="1"/>
        <pt x="521" y="672" on="0"/>
      </contour>
    </TTGlyph>
    <TTGlyph name="Yacute" xMin="47" yMin="-3" xMax="521" yMax="899">
      <contour>
        <pt x="426" y="801" on="1"/>
        <pt x="401" y="787" on="0"/>
        <pt x="270" y="727" on="0"/>
        <pt x="255" y="715" on="1"/>
        <pt x="231" y="739" on="0"/>
        <pt x="231" y="758" on="1"/>
        <pt x="231" y="778" on="0"/>
        <pt x="254" y="790" on="1"/>
        <pt x="282" y="803" on="0"/>
        <pt x="395" y="873" on="0"/>
        <pt x="424" y="899" on="1"/>
        <pt x="457" y="882" on="0"/>
        <pt x="457" y="848" on="1"/>
        <pt x="457" y="819" on="0"/>
      </contour>
      <contour>
        <pt x="521" y="620" on="1"/>
        <pt x="521" y="587" on="0"/>
        <pt x="341" y="356" on="1"/>
        <pt x="317" y="325" on="0"/>
        <pt x="305" y="309" on="1"/>
        <pt x="291" y="203" on="1"/>
        <pt x="279" y="115" on="0"/>
        <pt x="279" y="66" on="1"/>
        <pt x="279" y="32" on="0"/>
        <pt x="283" y="5" on="1"/>
        <pt x="248" y="-3" on="0"/>
        <pt x="223" y="-3" on="1"/>
        <pt x="164" y="-3" on="0"/>
        <pt x="164" y="49" on="1"/>
        <pt x="164" y="55" on="0"/>
        <pt x="170" y="102" on="0"/>
        <pt x="189" y="241" on="0"/>
        <pt x="199" y="313" on="1"/>
        <pt x="106" y="569" on="0"/>
        <pt x="47" y="619" on="1"/>
        <pt x="93" y="667" on="0"/>
        <pt x="128" y="667" on="1"/>
        <pt x="164" y="667" on="0"/>
        <pt x="181" y="633" on="1"/>
        <pt x="237" y="518" on="0"/>
        <pt x="275" y="395" on="1"/>
        <pt x="413" y="614" on="0"/>
        <pt x="424" y="672" on="1"/>
        <pt x="521" y="672" on="0"/>
      </contour>
    </TTGlyph>
    <TTGlyph name="Ydieresis" xMin="47" yMin="-3" xMax="521" yMax="860">
      <contour>
        <pt x="521" y="620" on="1"/>
        <pt x="521" y="587" on="0"/>
        <pt x="341" y="356" on="1"/>
        <pt x="317" y="325" on="0"/>
        <pt x="305" y="309" on="1"/>
        <pt x="291" y="203" on="1"/>
        <pt x="279" y="115" on="0"/>
        <pt x="279" y="66" on="1"/>
        <pt x="279" y="32" on="0"/>
        <pt x="283" y="5" on="1"/>
        <pt x="248" y="-3" on="0"/>
        <pt x="223" y="-3" on="1"/>
        <pt x="164" y="-3" on="0"/>
        <pt x="164" y="49" on="1"/>
        <pt x="164" y="55" on="0"/>
        <pt x="170" y="102" on="0"/>
        <pt x="189" y="241" on="0"/>
        <pt x="199" y="313" on="1"/>
        <pt x="106" y="569" on="0"/>
        <pt x="47" y="619" on="1"/>
        <pt x="93" y="667" on="0"/>
        <pt x="128" y="667" on="1"/>
        <pt x="164" y="667" on="0"/>
        <pt x="181" y="633" on="1"/>
        <pt x="237" y="518" on="0"/>
        <pt x="275" y="395" on="1"/>
        <pt x="413" y="614" on="0"/>
        <pt x="424" y="672" on="1"/>
        <pt x="521" y="672" on="0"/>
      </contour>
      <contour>
        <pt x="397" y="721" on="1"/>
        <pt x="372" y="721" on="0"/>
        <pt x="341" y="754" on="0"/>
        <pt x="341" y="782" on="1"/>
        <pt x="341" y="814" on="0"/>
        <pt x="385" y="860" on="0"/>
        <pt x="414" y="860" on="1"/>
        <pt x="437" y="860" on="0"/>
        <pt x="470" y="823" on="0"/>
        <pt x="470" y="796" on="1"/>
        <pt x="470" y="765" on="0"/>
        <pt x="423" y="721" on="0"/>
      </contour>
      <contour>
        <pt x="224" y="721" on="1"/>
        <pt x="199" y="721" on="0"/>
        <pt x="168" y="754" on="0"/>
        <pt x="168" y="782" on="1"/>
        <pt x="168" y="814" on="0"/>
        <pt x="212" y="860" on="0"/>
        <pt x="241" y="860" on="1"/>
        <pt x="264" y="860" on="0"/>
        <pt x="297" y="823" on="0"/>
        <pt x="297" y="796" on="1"/>
        <pt x="297" y="765" on="0"/>
        <pt x="250" y="721" on="0"/>
      </contour>
    </TTGlyph>
    <TTGlyph name="Z" xMin="38" yMin="-10" xMax="527" yMax="667">
      <contour>
        <pt x="142" y="667" on="1"/>
        <pt x="172" y="667" on="0"/>
        <pt x="382" y="640" on="0"/>
        <pt x="433" y="640" on="1"/>
        <pt x="479" y="640" on="0"/>
        <pt x="504" y="653" on="1"/>
        <pt x="527" y="630" on="0"/>
        <pt x="527" y="595" on="1"/>
        <pt x="527" y="554" on="0"/>
        <pt x="508" y="531" on="1"/>
        <pt x="236" y="206" on="1"/>
        <pt x="182" y="140" on="0"/>
        <pt x="154" y="99" on="1"/>
        <pt x="191" y="99" on="0"/>
        <pt x="359" y="74" on="0"/>
        <pt x="395" y="74" on="1"/>
        <pt x="455" y="74" on="0"/>
        <pt x="487" y="90" on="1"/>
        <pt x="498" y="67" on="0"/>
        <pt x="498" y="51" on="1"/>
        <pt x="498" y="-10" on="0"/>
        <pt x="395" y="-10" on="1"/>
        <pt x="367" y="-10" on="0"/>
        <pt x="195" y="15" on="0"/>
        <pt x="148" y="15" on="1"/>
        <pt x="99" y="15" on="0"/>
        <pt x="65" y="3" on="1"/>
        <pt x="38" y="38" on="0"/>
        <pt x="38" y="84" on="0"/>
        <pt x="56" y="119" on="1"/>
        <pt x="115" y="228" on="0"/>
        <pt x="402" y="560" on="1"/>
        <pt x="374" y="562" on="0"/>
        <pt x="215" y="584" on="0"/>
        <pt x="170" y="584" on="1"/>
        <pt x="124" y="584" on="0"/>
        <pt x="84" y="565" on="1"/>
        <pt x="72" y="590" on="0"/>
        <pt x="72" y="610" on="1"/>
        <pt x="72" y="667" on="0"/>
      </contour>
    </TTGlyph>
    <TTGlyph name="Zcaron" xMin="38" yMin="-10" xMax="527" yMax="892">
      <contour>
        <pt x="337" y="805" on="1"/>
        <pt x="434" y="880" on="0"/>
        <pt x="462" y="880" on="1"/>
        <pt x="483" y="880" on="0"/>
        <pt x="499" y="854" on="1"/>
        <pt x="410" y="765" on="0"/>
        <pt x="323" y="709" on="1"/>
        <pt x="205" y="801" on="0"/>
        <pt x="205" y="843" on="1"/>
        <pt x="205" y="869" on="0"/>
        <pt x="248" y="892" on="1"/>
        <pt x="262" y="871" on="0"/>
        <pt x="307" y="828" on="0"/>
        <pt x="322" y="816" on="1"/>
      </contour>
      <contour>
        <pt x="142" y="667" on="1"/>
        <pt x="172" y="667" on="0"/>
        <pt x="382" y="640" on="0"/>
        <pt x="433" y="640" on="1"/>
        <pt x="479" y="640" on="0"/>
        <pt x="504" y="653" on="1"/>
        <pt x="527" y="630" on="0"/>
        <pt x="527" y="595" on="1"/>
        <pt x="527" y="554" on="0"/>
        <pt x="508" y="531" on="1"/>
        <pt x="236" y="206" on="1"/>
        <pt x="182" y="140" on="0"/>
        <pt x="154" y="99" on="1"/>
        <pt x="191" y="99" on="0"/>
        <pt x="359" y="74" on="0"/>
        <pt x="395" y="74" on="1"/>
        <pt x="455" y="74" on="0"/>
        <pt x="487" y="90" on="1"/>
        <pt x="498" y="67" on="0"/>
        <pt x="498" y="51" on="1"/>
        <pt x="498" y="-10" on="0"/>
        <pt x="395" y="-10" on="1"/>
        <pt x="367" y="-10" on="0"/>
        <pt x="195" y="15" on="0"/>
        <pt x="148" y="15" on="1"/>
        <pt x="99" y="15" on="0"/>
        <pt x="65" y="3" on="1"/>
        <pt x="38" y="38" on="0"/>
        <pt x="38" y="84" on="0"/>
        <pt x="56" y="119" on="1"/>
        <pt x="115" y="228" on="0"/>
        <pt x="402" y="560" on="1"/>
        <pt x="374" y="562" on="0"/>
        <pt x="215" y="584" on="0"/>
        <pt x="170" y="584" on="1"/>
        <pt x="124" y="584" on="0"/>
        <pt x="84" y="565" on="1"/>
        <pt x="72" y="590" on="0"/>
        <pt x="72" y="610" on="1"/>
        <pt x="72" y="667" on="0"/>
      </contour>
    </TTGlyph>
    <TTGlyph name="a" xMin="27" yMin="-10" xMax="462" yMax="484">
      <contour>
        <pt x="308" y="94" on="1"/>
        <pt x="239" y="-10" on="0"/>
        <pt x="155" y="-10" on="1"/>
        <pt x="98" y="-10" on="0"/>
        <pt x="27" y="82" on="0"/>
        <pt x="27" y="170" on="1"/>
        <pt x="27" y="299" on="0"/>
        <pt x="166" y="484" on="0"/>
        <pt x="267" y="484" on="1"/>
        <pt x="377" y="484" on="0"/>
        <pt x="462" y="427" on="1"/>
        <pt x="413" y="203" on="0"/>
        <pt x="413" y="116" on="1"/>
        <pt x="413" y="69" on="0"/>
        <pt x="451" y="52" on="1"/>
        <pt x="447" y="29" on="0"/>
        <pt x="410" y="-10" on="0"/>
        <pt x="378" y="-10" on="1"/>
        <pt x="345" y="-10" on="0"/>
        <pt x="307" y="38" on="0"/>
        <pt x="307" y="75" on="1"/>
        <pt x="307" y="88" on="0"/>
      </contour>
      <contour>
        <pt x="319" y="206" on="1"/>
        <pt x="346" y="376" on="1"/>
        <pt x="307" y="418" on="0"/>
        <pt x="266" y="418" on="1"/>
        <pt x="216" y="418" on="0"/>
        <pt x="150" y="291" on="0"/>
        <pt x="150" y="191" on="1"/>
        <pt x="150" y="137" on="0"/>
        <pt x="183" y="66" on="0"/>
        <pt x="210" y="66" on="1"/>
        <pt x="234" y="66" on="0"/>
        <pt x="296" y="145" on="0"/>
      </contour>
    </TTGlyph>
    <TTGlyph name="aacute" xMin="37" yMin="-10" xMax="472" yMax="709">
      <contour>
        <pt x="416" y="611" on="1"/>
        <pt x="391" y="597" on="0"/>
        <pt x="260" y="537" on="0"/>
        <pt x="245" y="525" on="1"/>
        <pt x="221" y="549" on="0"/>
        <pt x="221" y="568" on="1"/>
        <pt x="221" y="588" on="0"/>
        <pt x="244" y="600" on="1"/>
        <pt x="272" y="613" on="0"/>
        <pt x="385" y="683" on="0"/>
        <pt x="414" y="709" on="1"/>
        <pt x="447" y="692" on="0"/>
        <pt x="447" y="658" on="1"/>
        <pt x="447" y="629" on="0"/>
      </contour>
      <contour>
        <pt x="318" y="94" on="1"/>
        <pt x="249" y="-10" on="0"/>
        <pt x="165" y="-10" on="1"/>
        <pt x="108" y="-10" on="0"/>
        <pt x="37" y="82" on="0"/>
        <pt x="37" y="170" on="1"/>
        <pt x="37" y="299" on="0"/>
        <pt x="176" y="484" on="0"/>
        <pt x="277" y="484" on="1"/>
        <pt x="387" y="484" on="0"/>
        <pt x="472" y="427" on="1"/>
        <pt x="423" y="203" on="0"/>
        <pt x="423" y="116" on="1"/>
        <pt x="423" y="69" on="0"/>
        <pt x="461" y="52" on="1"/>
        <pt x="457" y="29" on="0"/>
        <pt x="420" y="-10" on="0"/>
        <pt x="388" y="-10" on="1"/>
        <pt x="355" y="-10" on="0"/>
        <pt x="317" y="38" on="0"/>
        <pt x="317" y="75" on="1"/>
        <pt x="317" y="88" on="0"/>
      </contour>
      <contour>
        <pt x="329" y="206" on="1"/>
        <pt x="356" y="376" on="1"/>
        <pt x="317" y="418" on="0"/>
        <pt x="276" y="418" on="1"/>
        <pt x="226" y="418" on="0"/>
        <pt x="160" y="291" on="0"/>
        <pt x="160" y="191" on="1"/>
        <pt x="160" y="137" on="0"/>
        <pt x="193" y="66" on="0"/>
        <pt x="220" y="66" on="1"/>
        <pt x="244" y="66" on="0"/>
        <pt x="306" y="145" on="0"/>
      </contour>
    </TTGlyph>
    <TTGlyph name="acircumflex" xMin="37" yMin="-10" xMax="472" yMax="702">
      <contour>
        <pt x="432" y="568" on="1"/>
        <pt x="432" y="537" on="0"/>
        <pt x="389" y="519" on="1"/>
        <pt x="375" y="540" on="0"/>
        <pt x="330" y="583" on="0"/>
        <pt x="315" y="594" on="1"/>
        <pt x="300" y="606" on="1"/>
        <pt x="203" y="531" on="0"/>
        <pt x="175" y="531" on="1"/>
        <pt x="155" y="531" on="0"/>
        <pt x="145" y="557" on="1"/>
        <pt x="241" y="655" on="0"/>
        <pt x="314" y="702" on="1"/>
        <pt x="432" y="610" on="0"/>
      </contour>
      <contour>
        <pt x="318" y="94" on="1"/>
        <pt x="249" y="-10" on="0"/>
        <pt x="165" y="-10" on="1"/>
        <pt x="108" y="-10" on="0"/>
        <pt x="37" y="82" on="0"/>
        <pt x="37" y="170" on="1"/>
        <pt x="37" y="299" on="0"/>
        <pt x="176" y="484" on="0"/>
        <pt x="277" y="484" on="1"/>
        <pt x="387" y="484" on="0"/>
        <pt x="472" y="427" on="1"/>
        <pt x="423" y="203" on="0"/>
        <pt x="423" y="116" on="1"/>
        <pt x="423" y="69" on="0"/>
        <pt x="461" y="52" on="1"/>
        <pt x="457" y="29" on="0"/>
        <pt x="420" y="-10" on="0"/>
        <pt x="388" y="-10" on="1"/>
        <pt x="355" y="-10" on="0"/>
        <pt x="317" y="38" on="0"/>
        <pt x="317" y="75" on="1"/>
        <pt x="317" y="88" on="0"/>
      </contour>
      <contour>
        <pt x="329" y="206" on="1"/>
        <pt x="356" y="376" on="1"/>
        <pt x="317" y="418" on="0"/>
        <pt x="276" y="418" on="1"/>
        <pt x="226" y="418" on="0"/>
        <pt x="160" y="291" on="0"/>
        <pt x="160" y="191" on="1"/>
        <pt x="160" y="137" on="0"/>
        <pt x="193" y="66" on="0"/>
        <pt x="220" y="66" on="1"/>
        <pt x="244" y="66" on="0"/>
        <pt x="306" y="145" on="0"/>
      </contour>
    </TTGlyph>
    <TTGlyph name="acute" xMin="0" yMin="525" xMax="226" yMax="709">
      <contour>
        <pt x="195" y="611" on="1"/>
        <pt x="170" y="597" on="0"/>
        <pt x="39" y="537" on="0"/>
        <pt x="24" y="525" on="1"/>
        <pt x="0" y="549" on="0"/>
        <pt x="0" y="568" on="1"/>
        <pt x="0" y="588" on="0"/>
        <pt x="23" y="600" on="1"/>
        <pt x="51" y="613" on="0"/>
        <pt x="164" y="683" on="0"/>
        <pt x="193" y="709" on="1"/>
        <pt x="226" y="692" on="0"/>
        <pt x="226" y="658" on="1"/>
        <pt x="226" y="629" on="0"/>
      </contour>
    </TTGlyph>
    <TTGlyph name="adieresis" xMin="37" yMin="-10" xMax="472" yMax="670">
      <contour>
        <pt x="318" y="94" on="1"/>
        <pt x="249" y="-10" on="0"/>
        <pt x="165" y="-10" on="1"/>
        <pt x="108" y="-10" on="0"/>
        <pt x="37" y="82" on="0"/>
        <pt x="37" y="170" on="1"/>
        <pt x="37" y="299" on="0"/>
        <pt x="176" y="484" on="0"/>
        <pt x="277" y="484" on="1"/>
        <pt x="387" y="484" on="0"/>
        <pt x="472" y="427" on="1"/>
        <pt x="423" y="203" on="0"/>
        <pt x="423" y="116" on="1"/>
        <pt x="423" y="69" on="0"/>
        <pt x="461" y="52" on="1"/>
        <pt x="457" y="29" on="0"/>
        <pt x="420" y="-10" on="0"/>
        <pt x="388" y="-10" on="1"/>
        <pt x="355" y="-10" on="0"/>
        <pt x="317" y="38" on="0"/>
        <pt x="317" y="75" on="1"/>
        <pt x="317" y="88" on="0"/>
      </contour>
      <contour>
        <pt x="329" y="206" on="1"/>
        <pt x="356" y="376" on="1"/>
        <pt x="317" y="418" on="0"/>
        <pt x="276" y="418" on="1"/>
        <pt x="226" y="418" on="0"/>
        <pt x="160" y="291" on="0"/>
        <pt x="160" y="191" on="1"/>
        <pt x="160" y="137" on="0"/>
        <pt x="193" y="66" on="0"/>
        <pt x="220" y="66" on="1"/>
        <pt x="244" y="66" on="0"/>
        <pt x="306" y="145" on="0"/>
      </contour>
      <contour>
        <pt x="385" y="531" on="1"/>
        <pt x="360" y="531" on="0"/>
        <pt x="329" y="564" on="0"/>
        <pt x="329" y="592" on="1"/>
        <pt x="329" y="624" on="0"/>
        <pt x="373" y="670" on="0"/>
        <pt x="402" y="670" on="1"/>
        <pt x="425" y="670" on="0"/>
        <pt x="458" y="633" on="0"/>
        <pt x="458" y="606" on="1"/>
        <pt x="458" y="575" on="0"/>
        <pt x="411" y="531" on="0"/>
      </contour>
      <contour>
        <pt x="212" y="531" on="1"/>
        <pt x="187" y="531" on="0"/>
        <pt x="156" y="564" on="0"/>
        <pt x="156" y="592" on="1"/>
        <pt x="156" y="624" on="0"/>
        <pt x="200" y="670" on="0"/>
        <pt x="229" y="670" on="1"/>
        <pt x="252" y="670" on="0"/>
        <pt x="285" y="633" on="0"/>
        <pt x="285" y="606" on="1"/>
        <pt x="285" y="575" on="0"/>
        <pt x="238" y="531" on="0"/>
      </contour>
    </TTGlyph>
    <TTGlyph name="ae" xMin="37" yMin="-10" xMax="693" yMax="484">
      <contour>
        <pt x="569" y="358" on="1"/>
        <pt x="569" y="384" on="0"/>
        <pt x="544" y="419" on="0"/>
        <pt x="524" y="419" on="1"/>
        <pt x="487" y="419" on="0"/>
        <pt x="431" y="314" on="0"/>
        <pt x="425" y="236" on="1"/>
        <pt x="444" y="236" on="0"/>
        <pt x="471" y="239" on="0"/>
        <pt x="517" y="253" on="0"/>
        <pt x="546" y="277" on="0"/>
        <pt x="569" y="325" on="0"/>
      </contour>
      <contour>
        <pt x="300" y="183" on="1"/>
        <pt x="300" y="294" on="0"/>
        <pt x="356" y="376" on="1"/>
        <pt x="317" y="418" on="0"/>
        <pt x="276" y="418" on="1"/>
        <pt x="226" y="418" on="0"/>
        <pt x="160" y="291" on="0"/>
        <pt x="160" y="191" on="1"/>
        <pt x="160" y="137" on="0"/>
        <pt x="193" y="66" on="0"/>
        <pt x="220" y="66" on="1"/>
        <pt x="237" y="66" on="0"/>
        <pt x="282" y="110" on="0"/>
        <pt x="302" y="147" on="1"/>
        <pt x="300" y="169" on="0"/>
      </contour>
      <contour>
        <pt x="424" y="179" on="1"/>
        <pt x="425" y="117" on="0"/>
        <pt x="472" y="56" on="0"/>
        <pt x="506" y="56" on="1"/>
        <pt x="534" y="56" on="0"/>
        <pt x="588" y="94" on="0"/>
        <pt x="605" y="126" on="1"/>
        <pt x="653" y="107" on="0"/>
        <pt x="653" y="67" on="1"/>
        <pt x="653" y="36" on="0"/>
        <pt x="559" y="-10" on="0"/>
        <pt x="498" y="-10" on="1"/>
        <pt x="438" y="-10" on="0"/>
        <pt x="340" y="40" on="0"/>
        <pt x="317" y="93" on="1"/>
        <pt x="248" y="-10" on="0"/>
        <pt x="165" y="-10" on="1"/>
        <pt x="108" y="-10" on="0"/>
        <pt x="37" y="82" on="0"/>
        <pt x="37" y="170" on="1"/>
        <pt x="37" y="299" on="0"/>
        <pt x="176" y="484" on="0"/>
        <pt x="277" y="484" on="1"/>
        <pt x="375" y="484" on="0"/>
        <pt x="435" y="438" on="1"/>
        <pt x="485" y="484" on="0"/>
        <pt x="558" y="484" on="1"/>
        <pt x="625" y="484" on="0"/>
        <pt x="693" y="415" on="0"/>
        <pt x="693" y="363" on="1"/>
        <pt x="693" y="313" on="0"/>
        <pt x="635" y="220" on="0"/>
        <pt x="586" y="200" on="1"/>
        <pt x="532" y="177" on="0"/>
        <pt x="457" y="177" on="1"/>
        <pt x="442" y="177" on="0"/>
      </contour>
    </TTGlyph>
    <TTGlyph name="agrave" xMin="37" yMin="-10" xMax="472" yMax="730">
      <contour>
        <pt x="162" y="633" on="1"/>
        <pt x="135" y="650" on="0"/>
        <pt x="135" y="676" on="1"/>
        <pt x="135" y="712" on="0"/>
        <pt x="176" y="730" on="1"/>
        <pt x="221" y="673" on="0"/>
        <pt x="322" y="600" on="1"/>
        <pt x="341" y="587" on="0"/>
        <pt x="341" y="566" on="1"/>
        <pt x="341" y="541" on="0"/>
        <pt x="322" y="524" on="1"/>
        <pt x="309" y="536" on="0"/>
        <pt x="187" y="614" on="0"/>
      </contour>
      <contour>
        <pt x="318" y="94" on="1"/>
        <pt x="249" y="-10" on="0"/>
        <pt x="165" y="-10" on="1"/>
        <pt x="108" y="-10" on="0"/>
        <pt x="37" y="82" on="0"/>
        <pt x="37" y="170" on="1"/>
        <pt x="37" y="299" on="0"/>
        <pt x="176" y="484" on="0"/>
        <pt x="277" y="484" on="1"/>
        <pt x="387" y="484" on="0"/>
        <pt x="472" y="427" on="1"/>
        <pt x="423" y="203" on="0"/>
        <pt x="423" y="116" on="1"/>
        <pt x="423" y="69" on="0"/>
        <pt x="461" y="52" on="1"/>
        <pt x="457" y="29" on="0"/>
        <pt x="420" y="-10" on="0"/>
        <pt x="388" y="-10" on="1"/>
        <pt x="355" y="-10" on="0"/>
        <pt x="317" y="38" on="0"/>
        <pt x="317" y="75" on="1"/>
        <pt x="317" y="88" on="0"/>
      </contour>
      <contour>
        <pt x="329" y="206" on="1"/>
        <pt x="356" y="376" on="1"/>
        <pt x="317" y="418" on="0"/>
        <pt x="276" y="418" on="1"/>
        <pt x="226" y="418" on="0"/>
        <pt x="160" y="291" on="0"/>
        <pt x="160" y="191" on="1"/>
        <pt x="160" y="137" on="0"/>
        <pt x="193" y="66" on="0"/>
        <pt x="220" y="66" on="1"/>
        <pt x="244" y="66" on="0"/>
        <pt x="306" y="145" on="0"/>
      </contour>
    </TTGlyph>
    <TTGlyph name="ampersand" xMin="37" yMin="-11" xMax="748" yMax="675">
      <contour>
        <pt x="472" y="388" on="1"/>
        <pt x="499" y="388" on="0"/>
        <pt x="606" y="358" on="0"/>
        <pt x="624" y="358" on="1"/>
        <pt x="665" y="358" on="0"/>
        <pt x="665" y="402" on="1"/>
        <pt x="665" y="425" on="0"/>
        <pt x="652" y="445" on="1"/>
        <pt x="666" y="475" on="0"/>
        <pt x="709" y="475" on="1"/>
        <pt x="729" y="475" on="0"/>
        <pt x="748" y="451" on="0"/>
        <pt x="748" y="435" on="1"/>
        <pt x="748" y="388" on="0"/>
        <pt x="672" y="283" on="0"/>
        <pt x="621" y="283" on="1"/>
        <pt x="604" y="283" on="0"/>
        <pt x="581" y="288" on="1"/>
        <pt x="573" y="208" on="0"/>
        <pt x="514" y="89" on="0"/>
        <pt x="425" y="21" on="0"/>
        <pt x="322" y="-11" on="0"/>
        <pt x="263" y="-11" on="1"/>
        <pt x="160" y="-11" on="0"/>
        <pt x="37" y="101" on="0"/>
        <pt x="37" y="179" on="1"/>
        <pt x="37" y="238" on="0"/>
        <pt x="118" y="344" on="0"/>
        <pt x="196" y="375" on="1"/>
        <pt x="106" y="415" on="0"/>
        <pt x="106" y="492" on="1"/>
        <pt x="106" y="566" on="0"/>
        <pt x="232" y="675" on="0"/>
        <pt x="324" y="675" on="1"/>
        <pt x="384" y="675" on="0"/>
        <pt x="470" y="622" on="0"/>
        <pt x="470" y="590" on="1"/>
        <pt x="470" y="566" on="0"/>
        <pt x="428" y="535" on="0"/>
        <pt x="391" y="531" on="1"/>
        <pt x="369" y="600" on="0"/>
        <pt x="311" y="600" on="1"/>
        <pt x="270" y="600" on="0"/>
        <pt x="216" y="547" on="0"/>
        <pt x="216" y="504" on="1"/>
        <pt x="216" y="476" on="0"/>
        <pt x="265" y="426" on="0"/>
        <pt x="305" y="426" on="1"/>
        <pt x="317" y="426" on="0"/>
        <pt x="324" y="427" on="1"/>
        <pt x="326" y="409" on="0"/>
        <pt x="326" y="404" on="1"/>
        <pt x="326" y="395" on="0"/>
        <pt x="324" y="382" on="0"/>
        <pt x="318" y="372" on="0"/>
        <pt x="314" y="367" on="0"/>
        <pt x="303" y="362" on="0"/>
        <pt x="299" y="360" on="0"/>
        <pt x="285" y="356" on="0"/>
        <pt x="283" y="356" on="1"/>
        <pt x="224" y="341" on="0"/>
        <pt x="152" y="251" on="0"/>
        <pt x="152" y="199" on="1"/>
        <pt x="152" y="144" on="0"/>
        <pt x="225" y="64" on="0"/>
        <pt x="289" y="64" on="1"/>
        <pt x="377" y="64" on="0"/>
        <pt x="489" y="180" on="0"/>
        <pt x="489" y="311" on="1"/>
        <pt x="475" y="314" on="0"/>
        <pt x="463" y="314" on="1"/>
        <pt x="445" y="314" on="0"/>
        <pt x="425" y="289" on="0"/>
        <pt x="425" y="270" on="1"/>
        <pt x="425" y="243" on="0"/>
        <pt x="439" y="227" on="1"/>
        <pt x="424" y="196" on="0"/>
        <pt x="384" y="196" on="1"/>
        <pt x="363" y="196" on="0"/>
        <pt x="344" y="220" on="0"/>
        <pt x="344" y="236" on="1"/>
        <pt x="344" y="285" on="0"/>
        <pt x="419" y="388" on="0"/>
      </contour>
    </TTGlyph>
    <TTGlyph name="ampersand_alt" xMin="57" yMin="-10" xMax="572" yMax="673">
      <contour>
        <pt x="309" y="607" on="1"/>
        <pt x="276" y="607" on="0"/>
        <pt x="241" y="552" on="0"/>
        <pt x="241" y="516" on="1"/>
        <pt x="241" y="472" on="0"/>
        <pt x="277" y="397" on="1"/>
        <pt x="354" y="466" on="0"/>
        <pt x="354" y="542" on="1"/>
        <pt x="354" y="570" on="0"/>
        <pt x="332" y="607" on="0"/>
      </contour>
      <contour>
        <pt x="227" y="285" on="1"/>
        <pt x="165" y="228" on="0"/>
        <pt x="165" y="161" on="1"/>
        <pt x="165" y="115" on="0"/>
        <pt x="222" y="62" on="0"/>
        <pt x="269" y="62" on="1"/>
        <pt x="309" y="62" on="0"/>
        <pt x="342" y="85" on="1"/>
        <pt x="290" y="156" on="0"/>
      </contour>
      <contour>
        <pt x="473" y="298" on="1"/>
        <pt x="516" y="298" on="0"/>
        <pt x="516" y="249" on="1"/>
        <pt x="516" y="188" on="0"/>
        <pt x="466" y="111" on="1"/>
        <pt x="522" y="71" on="0"/>
        <pt x="572" y="71" on="1"/>
        <pt x="572" y="-10" on="0"/>
        <pt x="494" y="-10" on="1"/>
        <pt x="433" y="-10" on="0"/>
        <pt x="388" y="33" on="1"/>
        <pt x="320" y="-10" on="0"/>
        <pt x="166" y="-10" on="0"/>
        <pt x="57" y="70" on="0"/>
        <pt x="57" y="142" on="1"/>
        <pt x="57" y="262" on="0"/>
        <pt x="193" y="347" on="1"/>
        <pt x="143" y="432" on="0"/>
        <pt x="143" y="486" on="1"/>
        <pt x="143" y="564" on="0"/>
        <pt x="247" y="673" on="0"/>
        <pt x="329" y="673" on="1"/>
        <pt x="389" y="673" on="0"/>
        <pt x="454" y="609" on="0"/>
        <pt x="454" y="563" on="1"/>
        <pt x="454" y="500" on="0"/>
        <pt x="376" y="395" on="0"/>
        <pt x="306" y="341" on="1"/>
        <pt x="347" y="244" on="0"/>
        <pt x="405" y="168" on="1"/>
        <pt x="421" y="214" on="0"/>
        <pt x="421" y="256" on="1"/>
        <pt x="421" y="272" on="0"/>
        <pt x="418" y="286" on="1"/>
        <pt x="442" y="298" on="0"/>
      </contour>
    </TTGlyph>
    <TTGlyph name="apple" xMin="80" yMin="-1" xMax="736" yMax="688">
      <contour>
        <pt x="713" y="162" on="1"/>
        <pt x="721" y="132" on="0"/>
        <pt x="724" y="117" on="1"/>
        <pt x="736" y="62" on="0"/>
        <pt x="736" y="6" on="1"/>
        <pt x="736" y="-1" on="0"/>
        <pt x="729" y="-1" on="1"/>
        <pt x="703" y="-1" on="1"/>
        <pt x="697" y="-1" on="0"/>
        <pt x="697" y="5" on="1"/>
        <pt x="697" y="12" on="0"/>
        <pt x="704" y="12" on="1"/>
        <pt x="723" y="12" on="1"/>
        <pt x="723" y="59" on="0"/>
        <pt x="705" y="137" on="1"/>
        <pt x="700" y="159" on="1"/>
        <pt x="696" y="179" on="0"/>
        <pt x="660" y="211" on="0"/>
        <pt x="631" y="214" on="1"/>
        <pt x="588" y="218" on="0"/>
        <pt x="533" y="236" on="1"/>
        <pt x="519" y="241" on="0"/>
        <pt x="518" y="243" on="1"/>
        <pt x="517" y="249" on="0"/>
        <pt x="514" y="289" on="0"/>
        <pt x="513" y="296" on="1"/>
        <pt x="486" y="296" on="0"/>
        <pt x="460" y="309" on="1"/>
        <pt x="457" y="310" on="0"/>
        <pt x="457" y="322" on="0"/>
        <pt x="464" y="322" on="1"/>
        <pt x="465" y="322" on="0"/>
        <pt x="498" y="309" on="0"/>
        <pt x="522" y="309" on="1"/>
        <pt x="542" y="309" on="0"/>
        <pt x="549" y="316" on="1"/>
        <pt x="553" y="321" on="0"/>
        <pt x="570" y="430" on="0"/>
        <pt x="577" y="445" on="1"/>
        <pt x="581" y="458" on="0"/>
        <pt x="581" y="510" on="1"/>
        <pt x="581" y="556" on="0"/>
        <pt x="577" y="576" on="1"/>
        <pt x="559" y="673" on="0"/>
        <pt x="447" y="673" on="1"/>
        <pt x="363" y="673" on="0"/>
        <pt x="269" y="588" on="0"/>
        <pt x="269" y="512" on="1"/>
        <pt x="269" y="447" on="0"/>
        <pt x="314" y="358" on="0"/>
        <pt x="353" y="348" on="1"/>
        <pt x="359" y="346" on="0"/>
        <pt x="359" y="334" on="0"/>
        <pt x="353" y="241" on="0"/>
        <pt x="352" y="239" on="1"/>
        <pt x="350" y="237" on="0"/>
        <pt x="348" y="237" on="1"/>
        <pt x="322" y="237" on="0"/>
        <pt x="261" y="214" on="1"/>
        <pt x="208" y="193" on="0"/>
        <pt x="186" y="190" on="1"/>
        <pt x="130" y="182" on="0"/>
        <pt x="118" y="136" on="1"/>
        <pt x="111" y="107" on="1"/>
        <pt x="97" y="47" on="0"/>
        <pt x="94" y="12" on="1"/>
        <pt x="236" y="12" on="1"/>
        <pt x="243" y="12" on="0"/>
        <pt x="243" y="6" on="1"/>
        <pt x="243" y="-1" on="0"/>
        <pt x="236" y="-1" on="1"/>
        <pt x="87" y="-1" on="1"/>
        <pt x="80" y="-1" on="0"/>
        <pt x="80" y="6" on="1"/>
        <pt x="83" y="48" on="0"/>
        <pt x="98" y="108" on="1"/>
        <pt x="106" y="138" on="1"/>
        <pt x="110" y="162" on="0"/>
        <pt x="153" y="201" on="0"/>
        <pt x="185" y="205" on="1"/>
        <pt x="207" y="208" on="0"/>
        <pt x="266" y="230" on="1"/>
        <pt x="318" y="249" on="0"/>
        <pt x="341" y="250" on="1"/>
        <pt x="345" y="306" on="0"/>
        <pt x="346" y="336" on="1"/>
        <pt x="303" y="350" on="0"/>
        <pt x="256" y="443" on="0"/>
        <pt x="256" y="512" on="1"/>
        <pt x="256" y="595" on="0"/>
        <pt x="356" y="688" on="0"/>
        <pt x="447" y="688" on="1"/>
        <pt x="568" y="688" on="0"/>
        <pt x="592" y="579" on="1"/>
        <pt x="595" y="561" on="0"/>
        <pt x="595" y="527" on="1"/>
        <pt x="595" y="467" on="0"/>
        <pt x="590" y="440" on="1"/>
        <pt x="577" y="408" on="0"/>
        <pt x="572" y="358" on="1"/>
        <pt x="567" y="319" on="0"/>
        <pt x="556" y="306" on="1"/>
        <pt x="548" y="297" on="0"/>
        <pt x="526" y="295" on="1"/>
        <pt x="527" y="286" on="0"/>
        <pt x="530" y="253" on="0"/>
        <pt x="530" y="250" on="1"/>
        <pt x="591" y="232" on="0"/>
        <pt x="634" y="227" on="1"/>
        <pt x="665" y="224" on="0"/>
        <pt x="707" y="185" on="0"/>
      </contour>
      <contour>
        <pt x="507" y="563" on="1"/>
        <pt x="512" y="558" on="1"/>
        <pt x="494" y="530" on="1"/>
        <pt x="481" y="541" on="1"/>
      </contour>
      <contour>
        <pt x="515" y="558" on="1"/>
        <pt x="520" y="563" on="1"/>
        <pt x="546" y="541" on="1"/>
        <pt x="533" y="530" on="1"/>
      </contour>
      <contour>
        <pt x="517" y="574" on="1"/>
        <pt x="510" y="574" on="1"/>
        <pt x="505" y="605" on="1"/>
        <pt x="522" y="605" on="1"/>
      </contour>
      <contour>
        <pt x="509" y="572" on="1"/>
        <pt x="506" y="565" on="1"/>
        <pt x="475" y="572" on="1"/>
        <pt x="481" y="587" on="1"/>
      </contour>
      <contour>
        <pt x="520" y="565" on="1"/>
        <pt x="518" y="572" on="1"/>
        <pt x="546" y="587" on="1"/>
        <pt x="552" y="572" on="1"/>
      </contour>
    </TTGlyph>
    <TTGlyph name="approxequal" xMin="25" yMin="73" xMax="549" yMax="420">
      <contour>
        <pt x="549" y="173" on="1"/>
        <pt x="549" y="140" on="0"/>
        <pt x="455" y="73" on="0"/>
        <pt x="401" y="73" on="1"/>
        <pt x="355" y="73" on="0"/>
        <pt x="264" y="111" on="0"/>
        <pt x="192" y="149" on="0"/>
        <pt x="171" y="149" on="1"/>
        <pt x="151" y="149" on="0"/>
        <pt x="112" y="126" on="0"/>
        <pt x="90" y="103" on="0"/>
        <pt x="75" y="84" on="1"/>
        <pt x="52" y="90" on="0"/>
        <pt x="25" y="114" on="0"/>
        <pt x="25" y="125" on="1"/>
        <pt x="25" y="159" on="0"/>
        <pt x="120" y="225" on="0"/>
        <pt x="173" y="225" on="1"/>
        <pt x="220" y="225" on="0"/>
        <pt x="307" y="187" on="0"/>
        <pt x="376" y="149" on="0"/>
        <pt x="404" y="149" on="1"/>
        <pt x="424" y="149" on="0"/>
        <pt x="462" y="172" on="0"/>
        <pt x="484" y="195" on="0"/>
        <pt x="499" y="215" on="1"/>
        <pt x="523" y="208" on="0"/>
        <pt x="549" y="184" on="0"/>
      </contour>
      <contour>
        <pt x="549" y="368" on="1"/>
        <pt x="549" y="335" on="0"/>
        <pt x="455" y="268" on="0"/>
        <pt x="401" y="268" on="1"/>
        <pt x="355" y="268" on="0"/>
        <pt x="264" y="306" on="0"/>
        <pt x="192" y="344" on="0"/>
        <pt x="171" y="344" on="1"/>
        <pt x="151" y="344" on="0"/>
        <pt x="112" y="321" on="0"/>
        <pt x="90" y="298" on="0"/>
        <pt x="75" y="279" on="1"/>
        <pt x="52" y="285" on="0"/>
        <pt x="25" y="309" on="0"/>
        <pt x="25" y="320" on="1"/>
        <pt x="25" y="354" on="0"/>
        <pt x="120" y="420" on="0"/>
        <pt x="173" y="420" on="1"/>
        <pt x="220" y="420" on="0"/>
        <pt x="307" y="382" on="0"/>
        <pt x="376" y="344" on="0"/>
        <pt x="404" y="344" on="1"/>
        <pt x="424" y="344" on="0"/>
        <pt x="462" y="367" on="0"/>
        <pt x="484" y="390" on="0"/>
        <pt x="499" y="410" on="1"/>
        <pt x="523" y="403" on="0"/>
        <pt x="549" y="379" on="0"/>
      </contour>
    </TTGlyph>
    <TTGlyph name="aring" xMin="37" yMin="-10" xMax="472" yMax="710">
      <contour>
        <pt x="325" y="662" on="1"/>
        <pt x="305" y="662" on="0"/>
        <pt x="280" y="631" on="0"/>
        <pt x="280" y="608" on="1"/>
        <pt x="280" y="568" on="0"/>
        <pt x="312" y="568" on="1"/>
        <pt x="331" y="568" on="0"/>
        <pt x="355" y="600" on="0"/>
        <pt x="355" y="622" on="1"/>
        <pt x="355" y="662" on="0"/>
      </contour>
      <contour>
        <pt x="305" y="520" on="1"/>
        <pt x="269" y="520" on="0"/>
        <pt x="223" y="565" on="0"/>
        <pt x="223" y="599" on="1"/>
        <pt x="223" y="644" on="0"/>
        <pt x="285" y="710" on="0"/>
        <pt x="332" y="710" on="1"/>
        <pt x="369" y="710" on="0"/>
        <pt x="413" y="668" on="0"/>
        <pt x="413" y="632" on="1"/>
        <pt x="413" y="587" on="0"/>
        <pt x="352" y="520" on="0"/>
      </contour>
      <contour>
        <pt x="318" y="94" on="1"/>
        <pt x="249" y="-10" on="0"/>
        <pt x="165" y="-10" on="1"/>
        <pt x="108" y="-10" on="0"/>
        <pt x="37" y="82" on="0"/>
        <pt x="37" y="170" on="1"/>
        <pt x="37" y="299" on="0"/>
        <pt x="176" y="484" on="0"/>
        <pt x="277" y="484" on="1"/>
        <pt x="387" y="484" on="0"/>
        <pt x="472" y="427" on="1"/>
        <pt x="423" y="203" on="0"/>
        <pt x="423" y="116" on="1"/>
        <pt x="423" y="69" on="0"/>
        <pt x="461" y="52" on="1"/>
        <pt x="457" y="29" on="0"/>
        <pt x="420" y="-10" on="0"/>
        <pt x="388" y="-10" on="1"/>
        <pt x="355" y="-10" on="0"/>
        <pt x="317" y="38" on="0"/>
        <pt x="317" y="75" on="1"/>
        <pt x="317" y="88" on="0"/>
      </contour>
      <contour>
        <pt x="329" y="206" on="1"/>
        <pt x="356" y="376" on="1"/>
        <pt x="317" y="418" on="0"/>
        <pt x="276" y="418" on="1"/>
        <pt x="226" y="418" on="0"/>
        <pt x="160" y="291" on="0"/>
        <pt x="160" y="191" on="1"/>
        <pt x="160" y="137" on="0"/>
        <pt x="193" y="66" on="0"/>
        <pt x="220" y="66" on="1"/>
        <pt x="244" y="66" on="0"/>
        <pt x="306" y="145" on="0"/>
      </contour>
    </TTGlyph>
    <TTGlyph name="asciicircum" xMin="20" yMin="408" xMax="466" yMax="685">
      <contour>
        <pt x="423" y="408" on="1"/>
        <pt x="385" y="408" on="0"/>
        <pt x="243" y="558" on="1"/>
        <pt x="192" y="504" on="0"/>
        <pt x="85" y="408" on="0"/>
        <pt x="43" y="408" on="0"/>
        <pt x="20" y="431" on="1"/>
        <pt x="43" y="470" on="0"/>
        <pt x="194" y="637" on="0"/>
        <pt x="243" y="685" on="1"/>
        <pt x="290" y="639" on="0"/>
        <pt x="442" y="470" on="0"/>
        <pt x="466" y="431" on="1"/>
        <pt x="441" y="408" on="0"/>
      </contour>
    </TTGlyph>
    <TTGlyph name="asciitilde" xMin="32" yMin="201" xMax="521" yMax="344">
      <contour>
        <pt x="32" y="269" on="1"/>
        <pt x="32" y="337" on="0"/>
        <pt x="155" y="337" on="1"/>
        <pt x="212" y="337" on="0"/>
        <pt x="358" y="298" on="0"/>
        <pt x="396" y="298" on="1"/>
        <pt x="442" y="298" on="0"/>
        <pt x="489" y="344" on="1"/>
        <pt x="521" y="304" on="0"/>
        <pt x="521" y="277" on="1"/>
        <pt x="521" y="241" on="0"/>
        <pt x="449" y="208" on="0"/>
        <pt x="396" y="208" on="1"/>
        <pt x="360" y="208" on="0"/>
        <pt x="211" y="247" on="0"/>
        <pt x="171" y="247" on="1"/>
        <pt x="111" y="247" on="0"/>
        <pt x="65" y="201" on="1"/>
        <pt x="32" y="244" on="0"/>
      </contour>
    </TTGlyph>
    <TTGlyph name="asterisk" xMin="94" yMin="392" xMax="449" yMax="742">
      <contour>
        <pt x="322" y="623" on="1"/>
        <pt x="394" y="671" on="0"/>
        <pt x="414" y="686" on="1"/>
        <pt x="449" y="653" on="0"/>
        <pt x="449" y="625" on="1"/>
        <pt x="449" y="600" on="0"/>
        <pt x="395" y="571" on="0"/>
        <pt x="324" y="548" on="1"/>
        <pt x="358" y="508" on="0"/>
        <pt x="412" y="456" on="1"/>
        <pt x="379" y="409" on="0"/>
        <pt x="338" y="409" on="1"/>
        <pt x="319" y="409" on="0"/>
        <pt x="290" y="433" on="0"/>
        <pt x="274" y="463" on="0"/>
        <pt x="258" y="499" on="1"/>
        <pt x="217" y="448" on="0"/>
        <pt x="179" y="392" on="1"/>
        <pt x="153" y="402" on="0"/>
        <pt x="113" y="434" on="0"/>
        <pt x="113" y="451" on="1"/>
        <pt x="113" y="459" on="0"/>
        <pt x="127" y="479" on="0"/>
        <pt x="161" y="510" on="0"/>
        <pt x="184" y="529" on="0"/>
        <pt x="209" y="550" on="1"/>
        <pt x="181" y="563" on="0"/>
        <pt x="94" y="594" on="1"/>
        <pt x="102" y="620" on="0"/>
        <pt x="141" y="663" on="0"/>
        <pt x="165" y="663" on="1"/>
        <pt x="191" y="663" on="0"/>
        <pt x="239" y="627" on="1"/>
        <pt x="241" y="657" on="0"/>
        <pt x="241" y="679" on="1"/>
        <pt x="241" y="690" on="0"/>
        <pt x="239" y="730" on="1"/>
        <pt x="263" y="742" on="0"/>
        <pt x="287" y="742" on="1"/>
        <pt x="343" y="742" on="0"/>
        <pt x="343" y="704" on="1"/>
        <pt x="343" y="686" on="0"/>
      </contour>
    </TTGlyph>
    <TTGlyph name="at" xMin="85" yMin="-109" xMax="796" yMax="590">
      <contour>
        <pt x="349" y="54" on="1"/>
        <pt x="306" y="54" on="0"/>
        <pt x="256" y="110" on="0"/>
        <pt x="256" y="164" on="1"/>
        <pt x="256" y="268" on="0"/>
        <pt x="393" y="443" on="0"/>
        <pt x="479" y="443" on="1"/>
        <pt x="570" y="443" on="0"/>
        <pt x="627" y="397" on="1"/>
        <pt x="560" y="230" on="0"/>
        <pt x="560" y="170" on="1"/>
        <pt x="560" y="133" on="0"/>
        <pt x="583" y="133" on="1"/>
        <pt x="620" y="133" on="0"/>
        <pt x="689" y="267" on="0"/>
        <pt x="689" y="356" on="1"/>
        <pt x="689" y="518" on="0"/>
        <pt x="514" y="518" on="1"/>
        <pt x="425" y="518" on="0"/>
        <pt x="269" y="400" on="0"/>
        <pt x="184" y="229" on="0"/>
        <pt x="184" y="146" on="1"/>
        <pt x="184" y="67" on="0"/>
        <pt x="280" y="-32" on="0"/>
        <pt x="376" y="-32" on="1"/>
        <pt x="486" y="-32" on="0"/>
        <pt x="520" y="41" on="1"/>
        <pt x="574" y="24" on="0"/>
        <pt x="574" y="-10" on="1"/>
        <pt x="574" y="-54" on="0"/>
        <pt x="443" y="-109" on="0"/>
        <pt x="356" y="-109" on="1"/>
        <pt x="221" y="-109" on="0"/>
        <pt x="85" y="26" on="0"/>
        <pt x="85" y="132" on="1"/>
        <pt x="85" y="210" on="0"/>
        <pt x="155" y="373" on="0"/>
        <pt x="275" y="505" on="0"/>
        <pt x="451" y="590" on="0"/>
        <pt x="548" y="590" on="1"/>
        <pt x="664" y="590" on="0"/>
        <pt x="796" y="471" on="0"/>
        <pt x="796" y="376" on="1"/>
        <pt x="796" y="300" on="0"/>
        <pt x="715" y="154" on="0"/>
        <pt x="603" y="69" on="0"/>
        <pt x="556" y="69" on="1"/>
        <pt x="527" y="69" on="0"/>
        <pt x="490" y="108" on="0"/>
        <pt x="486" y="146" on="1"/>
        <pt x="460" y="103" on="0"/>
        <pt x="385" y="54" on="0"/>
      </contour>
      <contour>
        <pt x="464" y="194" on="1"/>
        <pt x="472" y="220" on="0"/>
        <pt x="507" y="346" on="0"/>
        <pt x="508" y="350" on="1"/>
        <pt x="486" y="375" on="0"/>
        <pt x="460" y="375" on="1"/>
        <pt x="421" y="375" on="0"/>
        <pt x="362" y="264" on="0"/>
        <pt x="362" y="193" on="1"/>
        <pt x="362" y="130" on="0"/>
        <pt x="392" y="130" on="1"/>
        <pt x="435" y="130" on="0"/>
      </contour>
    </TTGlyph>
    <TTGlyph name="atilde" xMin="37" yMin="-10" xMax="472" yMax="648">
      <contour>
        <pt x="318" y="94" on="1"/>
        <pt x="249" y="-10" on="0"/>
        <pt x="165" y="-10" on="1"/>
        <pt x="108" y="-10" on="0"/>
        <pt x="37" y="82" on="0"/>
        <pt x="37" y="170" on="1"/>
        <pt x="37" y="299" on="0"/>
        <pt x="176" y="484" on="0"/>
        <pt x="277" y="484" on="1"/>
        <pt x="387" y="484" on="0"/>
        <pt x="472" y="427" on="1"/>
        <pt x="423" y="203" on="0"/>
        <pt x="423" y="116" on="1"/>
        <pt x="423" y="69" on="0"/>
        <pt x="461" y="52" on="1"/>
        <pt x="457" y="29" on="0"/>
        <pt x="420" y="-10" on="0"/>
        <pt x="388" y="-10" on="1"/>
        <pt x="355" y="-10" on="0"/>
        <pt x="317" y="38" on="0"/>
        <pt x="317" y="75" on="1"/>
        <pt x="317" y="88" on="0"/>
      </contour>
      <contour>
        <pt x="329" y="206" on="1"/>
        <pt x="356" y="376" on="1"/>
        <pt x="317" y="418" on="0"/>
        <pt x="276" y="418" on="1"/>
        <pt x="226" y="418" on="0"/>
        <pt x="160" y="291" on="0"/>
        <pt x="160" y="191" on="1"/>
        <pt x="160" y="137" on="0"/>
        <pt x="193" y="66" on="0"/>
        <pt x="220" y="66" on="1"/>
        <pt x="244" y="66" on="0"/>
        <pt x="306" y="145" on="0"/>
      </contour>
      <contour>
        <pt x="451" y="620" on="1"/>
        <pt x="451" y="587" on="0"/>
        <pt x="370" y="530" on="0"/>
        <pt x="332" y="530" on="1"/>
        <pt x="303" y="530" on="0"/>
        <pt x="234" y="574" on="0"/>
        <pt x="227" y="574" on="1"/>
        <pt x="212" y="574" on="0"/>
        <pt x="169" y="528" on="1"/>
        <pt x="141" y="542" on="0"/>
        <pt x="141" y="566" on="1"/>
        <pt x="145" y="595" on="0"/>
        <pt x="219" y="647" on="0"/>
        <pt x="260" y="647" on="1"/>
        <pt x="284" y="647" on="0"/>
        <pt x="353" y="603" on="0"/>
        <pt x="364" y="603" on="1"/>
        <pt x="382" y="603" on="0"/>
        <pt x="421" y="648" on="1"/>
        <pt x="451" y="640" on="0"/>
      </contour>
    </TTGlyph>
    <TTGlyph name="b" xMin="41" yMin="-10" xMax="469" yMax="753">
      <contour>
        <pt x="41" y="47" on="1"/>
        <pt x="66" y="154" on="0"/>
        <pt x="123" y="593" on="0"/>
        <pt x="123" y="635" on="1"/>
        <pt x="123" y="672" on="0"/>
        <pt x="96" y="686" on="1"/>
        <pt x="98" y="715" on="0"/>
        <pt x="143" y="753" on="0"/>
        <pt x="174" y="753" on="1"/>
        <pt x="206" y="753" on="0"/>
        <pt x="236" y="716" on="0"/>
        <pt x="236" y="689" on="1"/>
        <pt x="236" y="624" on="0"/>
        <pt x="201" y="397" on="1"/>
        <pt x="226" y="438" on="0"/>
        <pt x="301" y="484" on="0"/>
        <pt x="337" y="484" on="1"/>
        <pt x="396" y="484" on="0"/>
        <pt x="469" y="387" on="0"/>
        <pt x="469" y="297" on="1"/>
        <pt x="469" y="163" on="0"/>
        <pt x="328" y="-10" on="0"/>
        <pt x="235" y="-10" on="1"/>
        <pt x="126" y="-10" on="0"/>
      </contour>
      <contour>
        <pt x="185" y="278" on="1"/>
        <pt x="181" y="248" on="0"/>
        <pt x="161" y="121" on="0"/>
        <pt x="158" y="100" on="1"/>
        <pt x="194" y="55" on="0"/>
        <pt x="232" y="55" on="1"/>
        <pt x="280" y="55" on="0"/>
        <pt x="346" y="168" on="0"/>
        <pt x="346" y="266" on="1"/>
        <pt x="346" y="323" on="0"/>
        <pt x="317" y="408" on="0"/>
        <pt x="288" y="408" on="1"/>
        <pt x="264" y="408" on="0"/>
        <pt x="207" y="337" on="0"/>
      </contour>
    </TTGlyph>
    <TTGlyph name="backslash" xMin="33" yMin="-120" xMax="241" yMax="741">
      <contour>
        <pt x="125" y="117" on="1"/>
        <pt x="33" y="692" on="0"/>
        <pt x="33" y="708" on="1"/>
        <pt x="33" y="741" on="0"/>
        <pt x="84" y="741" on="1"/>
        <pt x="99" y="741" on="0"/>
        <pt x="120" y="734" on="1"/>
        <pt x="130" y="626" on="0"/>
        <pt x="149" y="505" on="1"/>
        <pt x="173" y="345" on="0"/>
        <pt x="197" y="198" on="1"/>
        <pt x="241" y="-79" on="0"/>
        <pt x="241" y="-85" on="1"/>
        <pt x="241" y="-120" on="0"/>
        <pt x="193" y="-120" on="1"/>
        <pt x="180" y="-120" on="0"/>
        <pt x="154" y="-114" on="1"/>
        <pt x="144" y="-7" on="0"/>
      </contour>
    </TTGlyph>
    <TTGlyph name="bar" xMin="208" yMin="-249" xMax="301" yMax="737">
      <contour>
        <pt x="216" y="-9" on="1"/>
        <pt x="216" y="564" on="1"/>
        <pt x="216" y="681" on="0"/>
        <pt x="208" y="734" on="1"/>
        <pt x="224" y="737" on="0"/>
        <pt x="254" y="737" on="1"/>
        <pt x="300" y="737" on="0"/>
        <pt x="300" y="699" on="1"/>
        <pt x="300" y="694" on="0"/>
        <pt x="293" y="560" on="0"/>
        <pt x="293" y="528" on="1"/>
        <pt x="293" y="-54" on="1"/>
        <pt x="293" y="-174" on="0"/>
        <pt x="301" y="-246" on="1"/>
        <pt x="285" y="-249" on="0"/>
        <pt x="255" y="-249" on="1"/>
        <pt x="209" y="-249" on="0"/>
        <pt x="209" y="-211" on="1"/>
        <pt x="209" y="-206" on="0"/>
        <pt x="216" y="-42" on="0"/>
      </contour>
    </TTGlyph>
    <TTGlyph name="braceleft" xMin="63" yMin="-139" xMax="453" yMax="715">
      <contour>
        <pt x="318" y="586" on="1"/>
        <pt x="290" y="391" on="1"/>
        <pt x="286" y="363" on="0"/>
        <pt x="238" y="303" on="0"/>
        <pt x="211" y="287" on="1"/>
        <pt x="232" y="274" on="0"/>
        <pt x="261" y="222" on="0"/>
        <pt x="261" y="196" on="1"/>
        <pt x="261" y="182" on="0"/>
        <pt x="231" y="-22" on="0"/>
        <pt x="231" y="-40" on="1"/>
        <pt x="231" y="-56" on="0"/>
        <pt x="252" y="-68" on="0"/>
        <pt x="284" y="-68" on="1"/>
        <pt x="343" y="-68" on="0"/>
        <pt x="343" y="-101" on="1"/>
        <pt x="343" y="-116" on="0"/>
        <pt x="331" y="-137" on="1"/>
        <pt x="305" y="-139" on="0"/>
        <pt x="284" y="-139" on="1"/>
        <pt x="201" y="-139" on="0"/>
        <pt x="135" y="-97" on="0"/>
        <pt x="135" y="-51" on="1"/>
        <pt x="135" y="-24" on="0"/>
        <pt x="165" y="181" on="0"/>
        <pt x="165" y="189" on="1"/>
        <pt x="165" y="215" on="0"/>
        <pt x="115" y="256" on="0"/>
        <pt x="63" y="256" on="1"/>
        <pt x="72" y="319" on="1"/>
        <pt x="126" y="319" on="0"/>
        <pt x="189" y="368" on="0"/>
        <pt x="194" y="395" on="1"/>
        <pt x="204" y="446" on="0"/>
        <pt x="224" y="600" on="1"/>
        <pt x="232" y="660" on="0"/>
        <pt x="308" y="715" on="0"/>
        <pt x="402" y="715" on="1"/>
        <pt x="427" y="715" on="0"/>
        <pt x="451" y="713" on="1"/>
        <pt x="453" y="705" on="0"/>
        <pt x="453" y="692" on="1"/>
        <pt x="453" y="643" on="0"/>
        <pt x="391" y="643" on="1"/>
        <pt x="348" y="643" on="0"/>
        <pt x="322" y="620" on="0"/>
      </contour>
    </TTGlyph>
    <TTGlyph name="braceright" xMin="-15" yMin="-139" xMax="375" yMax="715">
      <contour>
        <pt x="120" y="-10" on="1"/>
        <pt x="148" y="185" on="1"/>
        <pt x="152" y="213" on="0"/>
        <pt x="200" y="273" on="0"/>
        <pt x="227" y="289" on="1"/>
        <pt x="206" y="302" on="0"/>
        <pt x="177" y="354" on="0"/>
        <pt x="177" y="380" on="1"/>
        <pt x="177" y="394" on="0"/>
        <pt x="207" y="598" on="0"/>
        <pt x="207" y="616" on="1"/>
        <pt x="207" y="632" on="0"/>
        <pt x="186" y="644" on="0"/>
        <pt x="154" y="644" on="1"/>
        <pt x="95" y="644" on="0"/>
        <pt x="95" y="677" on="1"/>
        <pt x="95" y="692" on="0"/>
        <pt x="107" y="713" on="1"/>
        <pt x="133" y="715" on="0"/>
        <pt x="154" y="715" on="1"/>
        <pt x="237" y="715" on="0"/>
        <pt x="303" y="673" on="0"/>
        <pt x="303" y="627" on="1"/>
        <pt x="303" y="600" on="0"/>
        <pt x="273" y="395" on="0"/>
        <pt x="273" y="387" on="1"/>
        <pt x="273" y="361" on="0"/>
        <pt x="323" y="320" on="0"/>
        <pt x="375" y="320" on="1"/>
        <pt x="366" y="257" on="1"/>
        <pt x="312" y="257" on="0"/>
        <pt x="249" y="208" on="0"/>
        <pt x="244" y="181" on="1"/>
        <pt x="234" y="130" on="0"/>
        <pt x="214" y="-24" on="1"/>
        <pt x="206" y="-84" on="0"/>
        <pt x="130" y="-139" on="0"/>
        <pt x="36" y="-139" on="1"/>
        <pt x="11" y="-139" on="0"/>
        <pt x="-13" y="-137" on="1"/>
        <pt x="-15" y="-129" on="0"/>
        <pt x="-15" y="-116" on="1"/>
        <pt x="-15" y="-67" on="0"/>
        <pt x="47" y="-67" on="1"/>
        <pt x="90" y="-67" on="0"/>
        <pt x="116" y="-44" on="0"/>
      </contour>
    </TTGlyph>
    <TTGlyph name="bracketleft" xMin="81" yMin="-190" xMax="423" yMax="720">
      <contour>
        <pt x="295" y="650" on="1"/>
        <pt x="186" y="-121" on="1"/>
        <pt x="216" y="-120" on="0"/>
        <pt x="248" y="-120" on="1"/>
        <pt x="303" y="-120" on="0"/>
        <pt x="303" y="-153" on="1"/>
        <pt x="303" y="-168" on="0"/>
        <pt x="292" y="-190" on="1"/>
        <pt x="81" y="-190" on="1"/>
        <pt x="208" y="720" on="1"/>
        <pt x="420" y="720" on="1"/>
        <pt x="423" y="708" on="0"/>
        <pt x="423" y="697" on="1"/>
        <pt x="423" y="649" on="0"/>
        <pt x="360" y="649" on="1"/>
        <pt x="321" y="649" on="0"/>
      </contour>
    </TTGlyph>
    <TTGlyph name="bracketright" xMin="-21" yMin="-190" xMax="321" yMax="720">
      <contour>
        <pt x="107" y="-120" on="1"/>
        <pt x="216" y="651" on="1"/>
        <pt x="186" y="650" on="0"/>
        <pt x="154" y="650" on="1"/>
        <pt x="99" y="650" on="0"/>
        <pt x="99" y="683" on="1"/>
        <pt x="99" y="698" on="0"/>
        <pt x="110" y="720" on="1"/>
        <pt x="321" y="720" on="1"/>
        <pt x="194" y="-190" on="1"/>
        <pt x="-18" y="-190" on="1"/>
        <pt x="-21" y="-178" on="0"/>
        <pt x="-21" y="-167" on="1"/>
        <pt x="-21" y="-119" on="0"/>
        <pt x="42" y="-119" on="1"/>
        <pt x="81" y="-119" on="0"/>
      </contour>
    </TTGlyph>
    <TTGlyph name="breve" xMin="118" yMin="534" xMax="382" yMax="687">
      <contour>
        <pt x="195" y="599" on="0"/>
        <pt x="275" y="599" on="0"/>
        <pt x="327" y="641" on="0"/>
        <pt x="352" y="687" on="1"/>
        <pt x="382" y="684" on="0"/>
        <pt x="382" y="666" on="1"/>
        <pt x="382" y="627" on="0"/>
        <pt x="277" y="534" on="0"/>
        <pt x="218" y="534" on="1"/>
        <pt x="170" y="534" on="0"/>
        <pt x="118" y="595" on="0"/>
        <pt x="118" y="633" on="1"/>
        <pt x="118" y="683" on="0"/>
        <pt x="166" y="687" on="1"/>
        <pt x="166" y="642" on="0"/>
      </contour>
    </TTGlyph>
    <TTGlyph name="brokenbar" xMin="240" yMin="-249" xMax="333" yMax="737">
      <contour>
        <pt x="248" y="565" on="1"/>
        <pt x="248" y="681" on="0"/>
        <pt x="240" y="734" on="1"/>
        <pt x="256" y="737" on="0"/>
        <pt x="286" y="737" on="1"/>
        <pt x="332" y="737" on="0"/>
        <pt x="332" y="699" on="1"/>
        <pt x="332" y="694" on="0"/>
        <pt x="325" y="560" on="0"/>
        <pt x="325" y="528" on="1"/>
        <pt x="325" y="488" on="1"/>
        <pt x="325" y="368" on="0"/>
        <pt x="333" y="296" on="1"/>
        <pt x="317" y="293" on="0"/>
        <pt x="287" y="293" on="1"/>
        <pt x="241" y="293" on="0"/>
        <pt x="241" y="331" on="1"/>
        <pt x="241" y="336" on="0"/>
        <pt x="248" y="532" on="0"/>
      </contour>
      <contour>
        <pt x="248" y="-18" on="1"/>
        <pt x="248" y="21" on="1"/>
        <pt x="248" y="139" on="0"/>
        <pt x="240" y="192" on="1"/>
        <pt x="256" y="195" on="0"/>
        <pt x="286" y="195" on="1"/>
        <pt x="332" y="195" on="0"/>
        <pt x="332" y="157" on="1"/>
        <pt x="332" y="152" on="0"/>
        <pt x="325" y="19" on="0"/>
        <pt x="325" y="-14" on="1"/>
        <pt x="325" y="-54" on="1"/>
        <pt x="325" y="-174" on="0"/>
        <pt x="333" y="-246" on="1"/>
        <pt x="317" y="-249" on="0"/>
        <pt x="287" y="-249" on="1"/>
        <pt x="241" y="-249" on="0"/>
        <pt x="241" y="-211" on="1"/>
        <pt x="241" y="-207" on="0"/>
        <pt x="248" y="-54" on="0"/>
      </contour>
    </TTGlyph>
    <TTGlyph name="bullet" xMin="38" yMin="132" xMax="286" yMax="406">
      <contour>
        <pt x="145" y="132" on="1"/>
        <pt x="98" y="132" on="0"/>
        <pt x="38" y="195" on="0"/>
        <pt x="38" y="246" on="1"/>
        <pt x="38" y="309" on="0"/>
        <pt x="123" y="406" on="0"/>
        <pt x="182" y="406" on="1"/>
        <pt x="227" y="406" on="0"/>
        <pt x="286" y="340" on="0"/>
        <pt x="286" y="289" on="1"/>
        <pt x="286" y="224" on="0"/>
        <pt x="202" y="132" on="0"/>
      </contour>
    </TTGlyph>
    <TTGlyph name="c" xMin="27" yMin="-10" xMax="421" yMax="484">
      <contour>
        <pt x="339" y="337" on="1"/>
        <pt x="318" y="413" on="0"/>
        <pt x="214" y="413" on="0"/>
        <pt x="150" y="284" on="0"/>
        <pt x="150" y="195" on="1"/>
        <pt x="150" y="125" on="0"/>
        <pt x="196" y="56" on="0"/>
        <pt x="233" y="56" on="1"/>
        <pt x="293" y="56" on="0"/>
        <pt x="332" y="126" on="1"/>
        <pt x="380" y="107" on="0"/>
        <pt x="380" y="67" on="1"/>
        <pt x="380" y="36" on="0"/>
        <pt x="284" y="-10" on="0"/>
        <pt x="225" y="-10" on="1"/>
        <pt x="134" y="-10" on="0"/>
        <pt x="27" y="92" on="0"/>
        <pt x="27" y="180" on="1"/>
        <pt x="27" y="254" on="0"/>
        <pt x="73" y="374" on="0"/>
        <pt x="149" y="446" on="0"/>
        <pt x="237" y="484" on="0"/>
        <pt x="283" y="484" on="1"/>
        <pt x="333" y="484" on="0"/>
        <pt x="421" y="443" on="0"/>
        <pt x="421" y="403" on="1"/>
        <pt x="421" y="379" on="0"/>
        <pt x="383" y="338" on="0"/>
      </contour>
    </TTGlyph>
    <TTGlyph name="caron" xMin="113" yMin="519" xMax="407" yMax="702">
      <contour>
        <pt x="245" y="615" on="1"/>
        <pt x="342" y="690" on="0"/>
        <pt x="370" y="690" on="1"/>
        <pt x="391" y="690" on="0"/>
        <pt x="407" y="664" on="1"/>
        <pt x="318" y="575" on="0"/>
        <pt x="231" y="519" on="1"/>
        <pt x="113" y="611" on="0"/>
        <pt x="113" y="653" on="1"/>
        <pt x="113" y="679" on="0"/>
        <pt x="156" y="702" on="1"/>
        <pt x="170" y="681" on="0"/>
        <pt x="215" y="638" on="0"/>
        <pt x="230" y="626" on="1"/>
      </contour>
    </TTGlyph>
    <TTGlyph name="ccedilla" xMin="27" yMin="-244" xMax="421" yMax="484">
      <contour>
        <pt x="339" y="337" on="1"/>
        <pt x="318" y="413" on="0"/>
        <pt x="214" y="413" on="0"/>
        <pt x="150" y="284" on="0"/>
        <pt x="150" y="195" on="1"/>
        <pt x="150" y="125" on="0"/>
        <pt x="196" y="56" on="0"/>
        <pt x="233" y="56" on="1"/>
        <pt x="293" y="56" on="0"/>
        <pt x="332" y="126" on="1"/>
        <pt x="380" y="107" on="0"/>
        <pt x="380" y="67" on="1"/>
        <pt x="380" y="37" on="0"/>
        <pt x="291" y="-8" on="0"/>
        <pt x="235" y="-10" on="1"/>
        <pt x="225" y="-28" on="0"/>
        <pt x="225" y="-40" on="1"/>
        <pt x="225" y="-45" on="0"/>
        <pt x="260" y="-66" on="0"/>
        <pt x="294" y="-104" on="0"/>
        <pt x="294" y="-130" on="1"/>
        <pt x="294" y="-178" on="0"/>
        <pt x="199" y="-244" on="0"/>
        <pt x="145" y="-244" on="1"/>
        <pt x="99" y="-244" on="0"/>
        <pt x="99" y="-217" on="1"/>
        <pt x="99" y="-197" on="0"/>
        <pt x="130" y="-170" on="1"/>
        <pt x="142" y="-184" on="0"/>
        <pt x="167" y="-184" on="1"/>
        <pt x="182" y="-184" on="0"/>
        <pt x="208" y="-166" on="0"/>
        <pt x="208" y="-148" on="1"/>
        <pt x="208" y="-131" on="0"/>
        <pt x="152" y="-86" on="0"/>
        <pt x="152" y="-67" on="1"/>
        <pt x="152" y="-42" on="0"/>
        <pt x="173" y="-5" on="1"/>
        <pt x="105" y="9" on="0"/>
        <pt x="27" y="106" on="0"/>
        <pt x="27" y="254" on="0"/>
        <pt x="73" y="374" on="0"/>
        <pt x="149" y="446" on="0"/>
        <pt x="237" y="484" on="0"/>
        <pt x="283" y="484" on="1"/>
        <pt x="333" y="484" on="0"/>
        <pt x="421" y="443" on="0"/>
        <pt x="421" y="403" on="1"/>
        <pt x="421" y="379" on="0"/>
        <pt x="383" y="338" on="0"/>
      </contour>
    </TTGlyph>
    <TTGlyph name="cedilla" xMin="48" yMin="-244" xMax="243" yMax="32">
      <contour>
        <pt x="147" y="32" on="1"/>
        <pt x="202" y="24" on="1"/>
        <pt x="200" y="19" on="0"/>
        <pt x="184" y="-10" on="0"/>
        <pt x="174" y="-32" on="0"/>
        <pt x="174" y="-40" on="1"/>
        <pt x="174" y="-45" on="0"/>
        <pt x="208" y="-66" on="0"/>
        <pt x="243" y="-104" on="0"/>
        <pt x="243" y="-130" on="1"/>
        <pt x="243" y="-178" on="0"/>
        <pt x="148" y="-244" on="0"/>
        <pt x="94" y="-244" on="1"/>
        <pt x="48" y="-244" on="0"/>
        <pt x="48" y="-217" on="1"/>
        <pt x="48" y="-197" on="0"/>
        <pt x="79" y="-170" on="1"/>
        <pt x="91" y="-184" on="0"/>
        <pt x="116" y="-184" on="1"/>
        <pt x="131" y="-184" on="0"/>
        <pt x="157" y="-166" on="0"/>
        <pt x="157" y="-148" on="1"/>
        <pt x="157" y="-131" on="0"/>
        <pt x="101" y="-86" on="0"/>
        <pt x="101" y="-67" on="1"/>
        <pt x="101" y="-27" on="0"/>
      </contour>
    </TTGlyph>
    <TTGlyph name="cent" xMin="63" yMin="-16" xMax="531" yMax="684">
      <contour>
        <pt x="181" y="291" on="1"/>
        <pt x="181" y="186" on="0"/>
        <pt x="253" y="153" on="1"/>
        <pt x="301" y="499" on="1"/>
        <pt x="248" y="478" on="0"/>
        <pt x="181" y="364" on="0"/>
      </contour>
      <contour>
        <pt x="322" y="681" on="1"/>
        <pt x="338" y="684" on="0"/>
        <pt x="346" y="684" on="1"/>
        <pt x="379" y="684" on="0"/>
        <pt x="379" y="662" on="1"/>
        <pt x="379" y="660" on="0"/>
        <pt x="368" y="581" on="1"/>
        <pt x="375" y="581" on="1"/>
        <pt x="449" y="581" on="0"/>
        <pt x="531" y="531" on="0"/>
        <pt x="531" y="497" on="1"/>
        <pt x="531" y="473" on="0"/>
        <pt x="489" y="435" on="0"/>
        <pt x="450" y="427" on="1"/>
        <pt x="411" y="506" on="0"/>
        <pt x="358" y="509" on="1"/>
        <pt x="307" y="142" on="1"/>
        <pt x="331" y="142" on="0"/>
        <pt x="392" y="187" on="0"/>
        <pt x="419" y="227" on="1"/>
        <pt x="450" y="220" on="0"/>
        <pt x="485" y="185" on="0"/>
        <pt x="485" y="163" on="1"/>
        <pt x="485" y="126" on="0"/>
        <pt x="389" y="71" on="0"/>
        <pt x="296" y="70" on="1"/>
        <pt x="295" y="57" on="1"/>
        <pt x="290" y="-8" on="0"/>
        <pt x="290" y="-14" on="1"/>
        <pt x="269" y="-16" on="1"/>
        <pt x="233" y="-16" on="0"/>
        <pt x="233" y="6" on="1"/>
        <pt x="233" y="13" on="0"/>
        <pt x="242" y="73" on="1"/>
        <pt x="160" y="86" on="0"/>
        <pt x="63" y="193" on="0"/>
        <pt x="63" y="276" on="1"/>
        <pt x="63" y="399" on="0"/>
        <pt x="208" y="557" on="0"/>
        <pt x="312" y="576" on="1"/>
        <pt x="312" y="578" on="1"/>
        <pt x="313" y="580" on="1"/>
        <pt x="319" y="625" on="0"/>
      </contour>
    </TTGlyph>
    <TTGlyph name="centoldstyle" xMin="63" yMin="-96" xMax="503" yMax="568">
      <contour>
        <pt x="181" y="200" on="1"/>
        <pt x="181" y="105" on="0"/>
        <pt x="243" y="73" on="1"/>
        <pt x="247" y="98" on="0"/>
        <pt x="276" y="307" on="0"/>
        <pt x="288" y="393" on="1"/>
        <pt x="241" y="373" on="0"/>
        <pt x="181" y="267" on="0"/>
      </contour>
      <contour>
        <pt x="307" y="565" on="1"/>
        <pt x="324" y="568" on="0"/>
        <pt x="331" y="568" on="1"/>
        <pt x="364" y="568" on="0"/>
        <pt x="364" y="546" on="1"/>
        <pt x="364" y="545" on="0"/>
        <pt x="355" y="475" on="1"/>
        <pt x="425" y="475" on="0"/>
        <pt x="503" y="425" on="0"/>
        <pt x="503" y="391" on="1"/>
        <pt x="503" y="367" on="0"/>
        <pt x="461" y="329" on="0"/>
        <pt x="421" y="321" on="1"/>
        <pt x="388" y="396" on="0"/>
        <pt x="344" y="402" on="1"/>
        <pt x="296" y="62" on="1"/>
        <pt x="317" y="63" on="0"/>
        <pt x="368" y="108" on="0"/>
        <pt x="392" y="147" on="1"/>
        <pt x="424" y="140" on="0"/>
        <pt x="459" y="105" on="0"/>
        <pt x="459" y="83" on="1"/>
        <pt x="459" y="47" on="0"/>
        <pt x="371" y="-9" on="0"/>
        <pt x="286" y="-10" on="1"/>
        <pt x="280" y="-49" on="0"/>
        <pt x="280" y="-94" on="1"/>
        <pt x="259" y="-96" on="1"/>
        <pt x="223" y="-96" on="0"/>
        <pt x="223" y="-74" on="1"/>
        <pt x="223" y="-72" on="0"/>
        <pt x="232" y="-6" on="1"/>
        <pt x="155" y="5" on="0"/>
        <pt x="63" y="106" on="0"/>
        <pt x="63" y="186" on="1"/>
        <pt x="63" y="302" on="0"/>
        <pt x="201" y="453" on="0"/>
        <pt x="299" y="470" on="1"/>
        <pt x="304" y="512" on="0"/>
      </contour>
    </TTGlyph>
    <TTGlyph name="ch" xMin="27" yMin="-10" xMax="868" yMax="743">
      <contour>
        <pt x="600" y="259" on="1"/>
        <pt x="580" y="109" on="0"/>
        <pt x="580" y="59" on="1"/>
        <pt x="580" y="30" on="0"/>
        <pt x="583" y="5" on="1"/>
        <pt x="544" y="-4" on="0"/>
        <pt x="517" y="-4" on="1"/>
        <pt x="462" y="-4" on="0"/>
        <pt x="462" y="66" on="0"/>
        <pt x="551" y="589" on="0"/>
        <pt x="551" y="625" on="1"/>
        <pt x="551" y="677" on="0"/>
        <pt x="523" y="677" on="1"/>
        <pt x="447" y="677" on="0"/>
        <pt x="364" y="614" on="0"/>
        <pt x="364" y="558" on="1"/>
        <pt x="364" y="520" on="0"/>
        <pt x="392" y="462" on="0"/>
        <pt x="421" y="421" on="0"/>
        <pt x="421" y="403" on="1"/>
        <pt x="421" y="379" on="0"/>
        <pt x="383" y="338" on="0"/>
        <pt x="339" y="337" on="1"/>
        <pt x="318" y="413" on="0"/>
        <pt x="214" y="413" on="0"/>
        <pt x="150" y="284" on="0"/>
        <pt x="150" y="195" on="1"/>
        <pt x="150" y="125" on="0"/>
        <pt x="196" y="56" on="0"/>
        <pt x="233" y="56" on="1"/>
        <pt x="293" y="56" on="0"/>
        <pt x="332" y="126" on="1"/>
        <pt x="380" y="107" on="0"/>
        <pt x="380" y="67" on="1"/>
        <pt x="380" y="36" on="0"/>
        <pt x="284" y="-10" on="0"/>
        <pt x="225" y="-10" on="1"/>
        <pt x="134" y="-10" on="0"/>
        <pt x="27" y="92" on="0"/>
        <pt x="27" y="180" on="1"/>
        <pt x="27" y="254" on="0"/>
        <pt x="73" y="374" on="0"/>
        <pt x="149" y="446" on="0"/>
        <pt x="237" y="484" on="0"/>
        <pt x="283" y="484" on="1"/>
        <pt x="311" y="484" on="0"/>
        <pt x="336" y="477" on="1"/>
        <pt x="309" y="540" on="0"/>
        <pt x="309" y="590" on="1"/>
        <pt x="309" y="743" on="0"/>
        <pt x="569" y="743" on="1"/>
        <pt x="619" y="743" on="0"/>
        <pt x="664" y="718" on="0"/>
        <pt x="664" y="679" on="1"/>
        <pt x="664" y="630" on="0"/>
        <pt x="622" y="395" on="1"/>
        <pt x="652" y="438" on="0"/>
        <pt x="730" y="484" on="0"/>
        <pt x="766" y="484" on="1"/>
        <pt x="815" y="484" on="0"/>
        <pt x="868" y="414" on="0"/>
        <pt x="868" y="358" on="1"/>
        <pt x="868" y="340" on="0"/>
        <pt x="833" y="136" on="0"/>
        <pt x="831" y="108" on="1"/>
        <pt x="831" y="69" on="0"/>
        <pt x="868" y="52" on="1"/>
        <pt x="864" y="24" on="0"/>
        <pt x="821" y="-10" on="0"/>
        <pt x="795" y="-10" on="1"/>
        <pt x="765" y="-10" on="0"/>
        <pt x="723" y="36" on="0"/>
        <pt x="723" y="80" on="1"/>
        <pt x="723" y="122" on="0"/>
        <pt x="759" y="323" on="0"/>
        <pt x="759" y="342" on="1"/>
        <pt x="759" y="407" on="0"/>
        <pt x="719" y="407" on="1"/>
        <pt x="689" y="407" on="0"/>
        <pt x="624" y="324" on="0"/>
      </contour>
    </TTGlyph>
    <TTGlyph name="circumflex" xMin="69" yMin="519" xMax="356" yMax="702">
      <contour>
        <pt x="356" y="568" on="1"/>
        <pt x="356" y="537" on="0"/>
        <pt x="313" y="519" on="1"/>
        <pt x="299" y="540" on="0"/>
        <pt x="254" y="583" on="0"/>
        <pt x="239" y="594" on="1"/>
        <pt x="224" y="606" on="1"/>
        <pt x="127" y="531" on="0"/>
        <pt x="99" y="531" on="1"/>
        <pt x="79" y="531" on="0"/>
        <pt x="69" y="557" on="1"/>
        <pt x="165" y="655" on="0"/>
        <pt x="238" y="702" on="1"/>
        <pt x="356" y="610" on="0"/>
      </contour>
    </TTGlyph>
    <TTGlyph name="colon" xMin="29" yMin="-10" xMax="214" yMax="484">
      <contour>
        <pt x="136" y="331" on="1"/>
        <pt x="111" y="331" on="0"/>
        <pt x="76" y="366" on="0"/>
        <pt x="76" y="395" on="1"/>
        <pt x="76" y="430" on="0"/>
        <pt x="124" y="484" on="0"/>
        <pt x="156" y="484" on="1"/>
        <pt x="181" y="484" on="0"/>
        <pt x="214" y="447" on="0"/>
        <pt x="214" y="419" on="1"/>
        <pt x="214" y="383" on="0"/>
        <pt x="169" y="331" on="0"/>
      </contour>
      <contour>
        <pt x="89" y="-10" on="1"/>
        <pt x="64" y="-10" on="0"/>
        <pt x="29" y="25" on="0"/>
        <pt x="29" y="54" on="1"/>
        <pt x="29" y="89" on="0"/>
        <pt x="77" y="143" on="0"/>
        <pt x="109" y="143" on="1"/>
        <pt x="134" y="143" on="0"/>
        <pt x="167" y="106" on="0"/>
        <pt x="167" y="78" on="1"/>
        <pt x="167" y="42" on="0"/>
        <pt x="122" y="-10" on="0"/>
      </contour>
    </TTGlyph>
    <TTGlyph name="comma" xMin="-16" yMin="-154" xMax="158" yMax="120">
      <contour>
        <pt x="98" y="120" on="1"/>
        <pt x="123" y="120" on="0"/>
        <pt x="158" y="83" on="0"/>
        <pt x="158" y="45" on="1"/>
        <pt x="158" y="-18" on="0"/>
        <pt x="68" y="-154" on="0"/>
        <pt x="7" y="-154" on="1"/>
        <pt x="-16" y="-154" on="0"/>
        <pt x="-16" y="-127" on="1"/>
        <pt x="-16" y="-112" on="0"/>
        <pt x="-12" y="-101" on="1"/>
        <pt x="-8" y="-101" on="1"/>
        <pt x="21" y="-101" on="0"/>
        <pt x="68" y="-51" on="0"/>
        <pt x="68" y="-23" on="1"/>
        <pt x="68" y="17" on="0"/>
        <pt x="30" y="25" on="1"/>
        <pt x="25" y="40" on="0"/>
        <pt x="25" y="51" on="1"/>
        <pt x="25" y="80" on="0"/>
        <pt x="66" y="118" on="0"/>
      </contour>
    </TTGlyph>
    <TTGlyph name="copyright" xMin="123" yMin="-34" xMax="815" yMax="674">
      <contour>
        <pt x="743" y="320" on="1"/>
        <pt x="743" y="452" on="0"/>
        <pt x="584" y="617" on="0"/>
        <pt x="470" y="617" on="1"/>
        <pt x="354" y="617" on="0"/>
        <pt x="195" y="453" on="0"/>
        <pt x="195" y="187" on="0"/>
        <pt x="354" y="23" on="0"/>
        <pt x="470" y="23" on="1"/>
        <pt x="584" y="23" on="0"/>
        <pt x="743" y="187" on="0"/>
      </contour>
      <contour>
        <pt x="815" y="320" on="1"/>
        <pt x="815" y="170" on="0"/>
        <pt x="614" y="-34" on="0"/>
        <pt x="470" y="-34" on="1"/>
        <pt x="323" y="-34" on="0"/>
        <pt x="123" y="169" on="0"/>
        <pt x="123" y="320" on="1"/>
        <pt x="123" y="472" on="0"/>
        <pt x="323" y="674" on="0"/>
        <pt x="470" y="674" on="1"/>
        <pt x="615" y="674" on="0"/>
        <pt x="815" y="472" on="0"/>
      </contour>
      <contour>
        <pt x="620" y="161" on="1"/>
        <pt x="620" y="135" on="0"/>
        <pt x="538" y="96" on="0"/>
        <pt x="482" y="96" on="1"/>
        <pt x="441" y="96" on="0"/>
        <pt x="367" y="119" on="0"/>
        <pt x="300" y="168" on="0"/>
        <pt x="260" y="259" on="0"/>
        <pt x="260" y="319" on="1"/>
        <pt x="260" y="433" on="0"/>
        <pt x="392" y="551" on="0"/>
        <pt x="476" y="551" on="1"/>
        <pt x="506" y="551" on="0"/>
        <pt x="569" y="534" on="0"/>
        <pt x="621" y="493" on="0"/>
        <pt x="621" y="464" on="1"/>
        <pt x="621" y="425" on="0"/>
        <pt x="548" y="415" on="1"/>
        <pt x="540" y="446" on="0"/>
        <pt x="494" y="478" on="0"/>
        <pt x="469" y="478" on="1"/>
        <pt x="429" y="478" on="0"/>
        <pt x="375" y="396" on="0"/>
        <pt x="375" y="330" on="1"/>
        <pt x="375" y="246" on="0"/>
        <pt x="444" y="169" on="0"/>
        <pt x="491" y="169" on="1"/>
        <pt x="545" y="169" on="0"/>
        <pt x="579" y="215" on="1"/>
        <pt x="620" y="190" on="0"/>
      </contour>
    </TTGlyph>
    <TTGlyph name="ct" xMin="27" yMin="-10" xMax="820" yMax="644">
      <contour>
        <pt x="533" y="473" on="1"/>
        <pt x="557" y="473" on="1"/>
        <pt x="567" y="561" on="1"/>
        <pt x="561" y="586" on="0"/>
        <pt x="518" y="586" on="1"/>
        <pt x="481" y="586" on="0"/>
        <pt x="409" y="513" on="0"/>
        <pt x="409" y="465" on="1"/>
        <pt x="409" y="446" on="0"/>
        <pt x="421" y="412" on="0"/>
        <pt x="421" y="403" on="1"/>
        <pt x="421" y="379" on="0"/>
        <pt x="383" y="338" on="0"/>
        <pt x="339" y="337" on="1"/>
        <pt x="318" y="413" on="0"/>
        <pt x="214" y="413" on="0"/>
        <pt x="150" y="284" on="0"/>
        <pt x="150" y="195" on="1"/>
        <pt x="150" y="125" on="0"/>
        <pt x="196" y="56" on="0"/>
        <pt x="233" y="56" on="1"/>
        <pt x="293" y="56" on="0"/>
        <pt x="332" y="126" on="1"/>
        <pt x="380" y="107" on="0"/>
        <pt x="380" y="67" on="1"/>
        <pt x="380" y="36" on="0"/>
        <pt x="284" y="-10" on="0"/>
        <pt x="225" y="-10" on="1"/>
        <pt x="134" y="-10" on="0"/>
        <pt x="27" y="92" on="0"/>
        <pt x="27" y="180" on="1"/>
        <pt x="27" y="254" on="0"/>
        <pt x="73" y="374" on="0"/>
        <pt x="149" y="446" on="0"/>
        <pt x="237" y="484" on="0"/>
        <pt x="283" y="484" on="1"/>
        <pt x="331" y="484" on="0"/>
        <pt x="369" y="467" on="1"/>
        <pt x="367" y="485" on="0"/>
        <pt x="367" y="495" on="1"/>
        <pt x="367" y="559" on="0"/>
        <pt x="474" y="644" on="0"/>
        <pt x="539" y="644" on="1"/>
        <pt x="592" y="644" on="0"/>
        <pt x="679" y="588" on="0"/>
        <pt x="679" y="551" on="1"/>
        <pt x="679" y="550" on="0"/>
        <pt x="667" y="472" on="1"/>
        <pt x="752" y="472" on="0"/>
        <pt x="817" y="477" on="1"/>
        <pt x="820" y="465" on="0"/>
        <pt x="820" y="453" on="1"/>
        <pt x="820" y="406" on="0"/>
        <pt x="774" y="403" on="1"/>
        <pt x="743" y="402" on="0"/>
        <pt x="656" y="402" on="1"/>
        <pt x="620" y="170" on="0"/>
        <pt x="620" y="133" on="1"/>
        <pt x="620" y="89" on="0"/>
        <pt x="650" y="59" on="0"/>
        <pt x="714" y="59" on="0"/>
        <pt x="742" y="89" on="1"/>
        <pt x="768" y="71" on="0"/>
        <pt x="768" y="43" on="1"/>
        <pt x="768" y="-10" on="0"/>
        <pt x="651" y="-10" on="1"/>
        <pt x="593" y="-10" on="0"/>
        <pt x="515" y="52" on="0"/>
        <pt x="515" y="125" on="1"/>
        <pt x="515" y="147" on="0"/>
        <pt x="526" y="235" on="0"/>
        <pt x="546" y="369" on="0"/>
        <pt x="550" y="402" on="1"/>
        <pt x="543" y="402" on="0"/>
        <pt x="477" y="396" on="1"/>
        <pt x="475" y="410" on="0"/>
        <pt x="475" y="417" on="1"/>
        <pt x="475" y="473" on="0"/>
      </contour>
    </TTGlyph>
    <TTGlyph name="d" xMin="24" yMin="-10" xMax="486" yMax="743">
      <contour>
        <pt x="349" y="435" on="1"/>
        <pt x="373" y="598" on="0"/>
        <pt x="373" y="626" on="1"/>
        <pt x="373" y="664" on="0"/>
        <pt x="346" y="676" on="1"/>
        <pt x="348" y="702" on="0"/>
        <pt x="391" y="743" on="0"/>
        <pt x="424" y="743" on="1"/>
        <pt x="456" y="743" on="0"/>
        <pt x="486" y="706" on="0"/>
        <pt x="486" y="679" on="1"/>
        <pt x="486" y="640" on="0"/>
        <pt x="408" y="127" on="0"/>
        <pt x="408" y="107" on="1"/>
        <pt x="408" y="68" on="0"/>
        <pt x="445" y="52" on="1"/>
        <pt x="432" y="-10" on="0"/>
        <pt x="374" y="-10" on="1"/>
        <pt x="342" y="-10" on="0"/>
        <pt x="304" y="40" on="0"/>
        <pt x="304" y="71" on="1"/>
        <pt x="304" y="84" on="0"/>
        <pt x="305" y="94" on="1"/>
        <pt x="235" y="-10" on="0"/>
        <pt x="153" y="-10" on="1"/>
        <pt x="96" y="-10" on="0"/>
        <pt x="24" y="83" on="0"/>
        <pt x="24" y="170" on="1"/>
        <pt x="24" y="294" on="0"/>
        <pt x="157" y="483" on="0"/>
        <pt x="244" y="483" on="1"/>
        <pt x="304" y="483" on="0"/>
      </contour>
      <contour>
        <pt x="315" y="205" on="1"/>
        <pt x="339" y="370" on="1"/>
        <pt x="311" y="400" on="0"/>
        <pt x="282" y="419" on="0"/>
        <pt x="265" y="419" on="1"/>
        <pt x="214" y="419" on="0"/>
        <pt x="147" y="292" on="0"/>
        <pt x="147" y="191" on="1"/>
        <pt x="147" y="136" on="0"/>
        <pt x="179" y="66" on="0"/>
        <pt x="206" y="66" on="1"/>
        <pt x="230" y="66" on="0"/>
        <pt x="293" y="145" on="0"/>
      </contour>
    </TTGlyph>
    <TTGlyph name="dagger" xMin="63" yMin="-111" xMax="458" yMax="674">
      <contour>
        <pt x="65" y="458" on="1"/>
        <pt x="73" y="510" on="0"/>
        <pt x="125" y="510" on="1"/>
        <pt x="135" y="510" on="0"/>
        <pt x="194" y="498" on="0"/>
        <pt x="221" y="497" on="1"/>
        <pt x="223" y="518" on="0"/>
        <pt x="231" y="665" on="1"/>
        <pt x="272" y="674" on="0"/>
        <pt x="308" y="674" on="0"/>
        <pt x="346" y="665" on="1"/>
        <pt x="324" y="566" on="0"/>
        <pt x="310" y="497" on="1"/>
        <pt x="363" y="500" on="0"/>
        <pt x="449" y="525" on="1"/>
        <pt x="458" y="506" on="0"/>
        <pt x="458" y="489" on="1"/>
        <pt x="458" y="453" on="0"/>
        <pt x="423" y="422" on="0"/>
        <pt x="379" y="422" on="1"/>
        <pt x="363" y="422" on="0"/>
        <pt x="312" y="426" on="0"/>
        <pt x="300" y="426" on="1"/>
        <pt x="274" y="197" on="0"/>
        <pt x="255" y="-23" on="1"/>
        <pt x="254" y="-39" on="0"/>
        <pt x="217" y="-83" on="0"/>
        <pt x="199" y="-97" on="1"/>
        <pt x="181" y="-111" on="1"/>
        <pt x="130" y="-66" on="0"/>
        <pt x="130" y="-29" on="1"/>
        <pt x="130" y="-18" on="0"/>
        <pt x="151" y="90" on="0"/>
        <pt x="193" y="311" on="0"/>
        <pt x="211" y="428" on="1"/>
        <pt x="180" y="427" on="0"/>
        <pt x="83" y="417" on="0"/>
        <pt x="63" y="416" on="1"/>
        <pt x="63" y="442" on="0"/>
      </contour>
    </TTGlyph>
    <TTGlyph name="daggerdbl" xMin="16" yMin="-103" xMax="460" yMax="674">
      <contour>
        <pt x="295" y="281" on="1"/>
        <pt x="292" y="262" on="0"/>
        <pt x="267" y="165" on="0"/>
        <pt x="263" y="142" on="1"/>
        <pt x="287" y="143" on="0"/>
        <pt x="333" y="147" on="0"/>
        <pt x="391" y="153" on="0"/>
        <pt x="411" y="155" on="1"/>
        <pt x="411" y="129" on="0"/>
        <pt x="409" y="113" on="1"/>
        <pt x="401" y="61" on="0"/>
        <pt x="349" y="61" on="1"/>
        <pt x="338" y="61" on="0"/>
        <pt x="277" y="73" on="0"/>
        <pt x="253" y="74" on="1"/>
        <pt x="247" y="24" on="0"/>
        <pt x="243" y="-94" on="1"/>
        <pt x="201" y="-103" on="0"/>
        <pt x="185" y="-103" on="1"/>
        <pt x="162" y="-103" on="0"/>
        <pt x="128" y="-94" on="1"/>
        <pt x="155" y="25" on="0"/>
        <pt x="164" y="74" on="1"/>
        <pt x="111" y="71" on="0"/>
        <pt x="25" y="45" on="1"/>
        <pt x="16" y="66" on="0"/>
        <pt x="16" y="81" on="1"/>
        <pt x="16" y="118" on="0"/>
        <pt x="54" y="149" on="0"/>
        <pt x="95" y="149" on="1"/>
        <pt x="108" y="149" on="0"/>
        <pt x="163" y="144" on="0"/>
        <pt x="174" y="144" on="1"/>
        <pt x="177" y="169" on="0"/>
        <pt x="177" y="190" on="1"/>
        <pt x="177" y="199" on="0"/>
        <pt x="176" y="226" on="0"/>
        <pt x="176" y="231" on="1"/>
        <pt x="176" y="281" on="0"/>
        <pt x="210" y="411" on="0"/>
        <pt x="213" y="428" on="1"/>
        <pt x="184" y="427" on="0"/>
        <pt x="92" y="417" on="0"/>
        <pt x="65" y="416" on="1"/>
        <pt x="65" y="442" on="0"/>
        <pt x="67" y="458" on="1"/>
        <pt x="75" y="510" on="0"/>
        <pt x="127" y="510" on="1"/>
        <pt x="137" y="510" on="0"/>
        <pt x="203" y="497" on="0"/>
        <pt x="223" y="497" on="1"/>
        <pt x="228" y="541" on="0"/>
        <pt x="233" y="665" on="1"/>
        <pt x="275" y="674" on="0"/>
        <pt x="291" y="674" on="1"/>
        <pt x="314" y="674" on="0"/>
        <pt x="348" y="665" on="1"/>
        <pt x="343" y="642" on="0"/>
        <pt x="319" y="531" on="0"/>
        <pt x="312" y="497" on="1"/>
        <pt x="365" y="500" on="0"/>
        <pt x="451" y="525" on="1"/>
        <pt x="460" y="506" on="0"/>
        <pt x="460" y="489" on="1"/>
        <pt x="460" y="452" on="0"/>
        <pt x="423" y="422" on="0"/>
        <pt x="382" y="422" on="1"/>
        <pt x="375" y="422" on="0"/>
        <pt x="358" y="423" on="0"/>
        <pt x="322" y="426" on="0"/>
        <pt x="302" y="427" on="1"/>
        <pt x="298" y="388" on="0"/>
        <pt x="298" y="343" on="1"/>
        <pt x="298" y="310" on="0"/>
      </contour>
    </TTGlyph>
    <TTGlyph name="degree" xMin="47" yMin="387" xMax="353" yMax="711">
      <contour>
        <pt x="215" y="647" on="1"/>
        <pt x="173" y="647" on="0"/>
        <pt x="123" y="577" on="0"/>
        <pt x="123" y="527" on="1"/>
        <pt x="123" y="493" on="0"/>
        <pt x="155" y="451" on="0"/>
        <pt x="186" y="451" on="1"/>
        <pt x="228" y="451" on="0"/>
        <pt x="276" y="523" on="0"/>
        <pt x="276" y="572" on="1"/>
        <pt x="276" y="606" on="0"/>
        <pt x="245" y="647" on="0"/>
      </contour>
      <contour>
        <pt x="47" y="520" on="1"/>
        <pt x="47" y="597" on="0"/>
        <pt x="146" y="711" on="0"/>
        <pt x="224" y="711" on="1"/>
        <pt x="282" y="711" on="0"/>
        <pt x="353" y="637" on="0"/>
        <pt x="353" y="579" on="1"/>
        <pt x="353" y="502" on="0"/>
        <pt x="254" y="387" on="0"/>
        <pt x="177" y="387" on="1"/>
        <pt x="118" y="387" on="0"/>
        <pt x="47" y="461" on="0"/>
      </contour>
    </TTGlyph>
    <TTGlyph name="dieresis" xMin="43" yMin="531" xMax="345" yMax="670">
      <contour>
        <pt x="272" y="531" on="1"/>
        <pt x="247" y="531" on="0"/>
        <pt x="216" y="564" on="0"/>
        <pt x="216" y="592" on="1"/>
        <pt x="216" y="624" on="0"/>
        <pt x="260" y="670" on="0"/>
        <pt x="289" y="670" on="1"/>
        <pt x="312" y="670" on="0"/>
        <pt x="345" y="633" on="0"/>
        <pt x="345" y="606" on="1"/>
        <pt x="345" y="575" on="0"/>
        <pt x="298" y="531" on="0"/>
      </contour>
      <contour>
        <pt x="99" y="531" on="1"/>
        <pt x="74" y="531" on="0"/>
        <pt x="43" y="564" on="0"/>
        <pt x="43" y="592" on="1"/>
        <pt x="43" y="624" on="0"/>
        <pt x="87" y="670" on="0"/>
        <pt x="116" y="670" on="1"/>
        <pt x="139" y="670" on="0"/>
        <pt x="172" y="633" on="0"/>
        <pt x="172" y="606" on="1"/>
        <pt x="172" y="575" on="0"/>
        <pt x="125" y="531" on="0"/>
      </contour>
    </TTGlyph>
</ttFont>
